<svg width="30" height="30" viewBox="0 0 30 30" fill="none" xmlns="http://www.w3.org/2000/svg">
<path fill-rule="evenodd" clip-rule="evenodd" d="M10.1041 21.7669V19.5816H9.3045C8.94671 19.5816 8.60827 19.4987 8.30734 19.3511L9.15196 8.04229C9.20237 8.03894 9.25324 8.03724 9.3045 8.03724H20.6955C21.9477 8.03724 22.9628 9.05232 22.9628 10.3045V17.3143C22.9628 18.5665 21.9477 19.5816 20.6955 19.5816H12.5625L10.1041 21.7669ZM9.14071 8.04306C9.14446 8.04279 9.14821 8.04254 9.15196 8.04229L9.17911 7.67873C9.22066 7.67678 9.26247 7.67579 9.3045 7.67579H20.6955C22.1473 7.67579 23.3242 8.8527 23.3242 10.3045V17.3143C23.3242 18.3126 22.7678 19.1809 21.9482 19.6259C22.7678 19.1809 23.3243 18.3126 23.3243 17.3143V10.3045C23.3243 8.85268 22.1474 7.67578 20.6956 7.67578H9.30456C9.26251 7.67578 9.22068 7.67676 9.17911 7.67872L9.17911 7.67873C9.17603 7.67887 9.17296 7.67902 9.16988 7.67918L9.16988 7.67917C8.99465 7.68801 8.82394 7.71401 8.6594 7.75553C8.82394 7.71402 8.99465 7.68802 9.16988 7.67918L9.14071 8.04306ZM8.2371 19.3151C8.26028 19.3275 8.28369 19.3395 8.30734 19.3511L8.27864 19.7353C8.25424 19.7249 8.23002 19.7142 8.20599 19.7032L8.2371 19.3151ZM8.09642 21.0701C6.47852 20.5503 5.36054 19.0396 5.36151 17.3143V10.3045C5.36151 8.45643 6.63287 6.90533 8.34867 6.47809C6.63284 6.90531 5.36145 8.45643 5.36145 10.3045V17.3143C5.36048 19.0396 6.47849 20.5504 8.09642 21.0701L8.06681 21.4394C6.25699 20.8971 4.99902 19.2264 5 17.3143V10.3045C5 7.92719 6.92719 6 9.30449 6L9.27551 6.36154C9.27617 6.36153 9.27683 6.36153 9.27749 6.36152L9.30449 6H20.6955C23.0728 6 25 7.92719 25 10.3045V17.3143C25 19.6917 23.0728 21.6188 20.6955 21.6188H13.3411L10.8598 23.8225C10.367 24.263 9.66072 24.3731 9.05747 24.1028C8.45408 23.8325 8.06604 23.2327 8.06681 22.5715L8.17709 21.0951C8.25959 21.1196 8.34334 21.1416 8.42826 21.161V22.5717C8.42758 23.0904 8.73194 23.5609 9.20524 23.7729C9.38216 23.8522 9.57031 23.8898 9.75678 23.8878C9.57033 23.8898 9.3822 23.8522 9.2053 23.7729C8.732 23.5609 8.42764 23.0903 8.42832 22.5717V21.161C8.34338 21.1416 8.25961 21.1196 8.17709 21.095L8.17709 21.0951C8.15006 21.087 8.12317 21.0787 8.09642 21.0701L8.09642 21.0701ZM13.2037 21.2574H20.6955C20.798 21.2574 20.8995 21.2535 21 21.2458C20.8995 21.2535 20.798 21.2574 20.6956 21.2574H13.2038L13.2037 21.2574ZM8.2371 19.3151C7.52307 18.9334 7.03725 18.1806 7.03725 17.3143V10.3045C7.03725 9.1074 7.965 8.12699 9.14071 8.04306L8.2371 19.3151ZM15.0001 14.828C15.5626 14.828 16.0187 14.372 16.0187 13.8094C16.0187 13.2469 15.5626 12.7908 15.0001 12.7908C14.4375 12.7908 13.9814 13.2469 13.9814 13.8094C13.9814 14.372 14.4375 14.828 15.0001 14.828ZM19.3812 14.828C19.9437 14.828 20.3998 14.372 20.3998 13.8094C20.3998 13.2469 19.9437 12.7908 19.3812 12.7908C18.8186 12.7908 18.3626 13.2469 18.3626 13.8094C18.3626 14.372 18.8186 14.828 19.3812 14.828ZM10.6714 14.828C11.234 14.828 11.69 14.372 11.69 13.8094C11.69 13.2469 11.234 12.7908 10.6714 12.7908C10.1088 12.7908 9.65279 13.2469 9.65279 13.8094C9.65279 14.372 10.1088 14.828 10.6714 14.828ZM15.0804 14.4617C15.0541 14.4649 15.0273 14.4666 15.0001 14.4666C14.6371 14.4666 14.3429 14.1724 14.3429 13.8094C14.3429 13.501 14.5553 13.2423 14.8418 13.1714C14.5553 13.2423 14.3429 13.5011 14.3429 13.8094C14.3429 14.1724 14.6372 14.4666 15.0001 14.4666C15.0273 14.4666 15.0541 14.4649 15.0804 14.4617ZM19.2189 13.1724C18.9345 13.2447 18.7241 13.5025 18.7241 13.8094C18.7241 14.1724 19.0183 14.4666 19.3812 14.4666C19.4152 14.4666 19.4486 14.464 19.4813 14.459C19.4486 14.464 19.4152 14.4666 19.3812 14.4666C19.0182 14.4666 18.724 14.1724 18.724 13.8094C18.724 13.5025 18.9344 13.2447 19.2189 13.1724ZM10.8298 14.4474C10.779 14.4599 10.726 14.4666 10.6714 14.4666C10.3085 14.4666 10.0142 14.1724 10.0142 13.8094C10.0142 13.5025 10.2247 13.2447 10.5092 13.1724C10.2247 13.2447 10.0143 13.5025 10.0143 13.8094C10.0143 14.1724 10.3085 14.4666 10.6715 14.4666C10.726 14.4666 10.7791 14.4599 10.8298 14.4474Z" fill="url(#paint0_linear)"/>
<defs>
<linearGradient id="paint0_linear" x1="25" y1="24.2492" x2="4.00273" y2="23.0187" gradientUnits="userSpaceOnUse">
<stop stop-color="#2E5BFF"/>
<stop offset="1" stop-color="#BC2EFF"/>
</linearGradient>
</defs>
</svg>
