<svg width="30" height="30" viewBox="0 0 30 30" fill="none" xmlns="http://www.w3.org/2000/svg">
<path fill-rule="evenodd" clip-rule="evenodd" d="M25 15.7366C25 17.0836 23.908 18.1756 22.561 18.1756H19.1463V21.5903C19.1463 23.0537 18.3073 24.5171 16.7073 24.5171C15.1073 24.5171 14.2683 23.0537 14.2683 21.5903V20.2439L12.5073 18.4829L10.2537 17.7512C10.0285 18.2993 9.495 18.6576 8.90244 18.6586H6.46341C5.65519 18.6586 5 18.0034 5 17.1951V6.46343C5 5.65521 5.65519 5.00002 6.46341 5.00002H8.90244C9.71066 5.00002 10.3659 5.65521 10.3659 6.46343V6.65368L12.4829 5.24392C12.723 5.0847 13.0046 4.99986 13.2927 5.00002H22.561C23.908 5.00002 25 6.092 25 7.43904V7.92685C24.7386 8.37963 24.7386 8.93748 25 9.39026V10.8537C24.7386 11.3065 24.7386 11.8643 25 12.3171V13.7805C24.7386 14.2333 24.7386 14.7911 25 15.2439V15.7366ZM8.90244 6.46831H6.46341V17.2H8.90244V6.46831ZM23.5366 15.2488H22.8049C22.4008 15.2488 22.0732 14.9212 22.0732 14.5171C22.0732 14.113 22.4008 13.7854 22.8049 13.7854H23.5366V12.322H22.8049C22.4008 12.322 22.0732 11.9944 22.0732 11.5903C22.0732 11.1862 22.4008 10.8586 22.8049 10.8586H23.5366V9.39514H22.8049C22.4008 9.39514 22.0732 9.06754 22.0732 8.66343C22.0732 8.25932 22.4008 7.93172 22.8049 7.93172H23.5366V7.44392C23.5366 6.90511 23.0998 6.46831 22.561 6.46831H13.2927L10.3659 8.41953V16.2537L13.2927 17.2L15.7317 19.639V21.5903C15.7317 21.5903 15.7317 23.0537 16.7073 23.0537C17.6829 23.0537 17.6829 21.5903 17.6829 21.5903V16.7122H22.561C23.0998 16.7122 23.5366 16.2754 23.5366 15.7366V15.2488Z" fill="#E53654"/>
</svg>
