<svg width="30" height="30" viewBox="0 0 30 30" fill="none" xmlns="http://www.w3.org/2000/svg">
<path fill-rule="evenodd" clip-rule="evenodd" d="M14.7719 6.39614L17.5642 12.4462H23.6143L19.4258 16.6346L20.3566 23.1501L14.7719 19.3478L9.18728 23.1501L10.5834 16.6346L6.39496 12.4462H11.9796L14.7719 6.39614ZM14.7719 5C14.2283 5.00047 13.7344 5.31643 13.5061 5.80977L11.0861 11.05H6.39497C5.83066 11.0505 5.32213 11.3907 5.10625 11.9121C4.89036 12.4334 5.00957 13.0335 5.40835 13.4328L9.05698 17.0814L7.8144 22.8522C7.69477 23.4101 7.92659 23.9846 8.39987 24.3032C8.87316 24.6218 9.49267 24.6203 9.96449 24.2996L14.7673 21.0419L19.5608 24.2996C20.0177 24.611 20.6153 24.6235 21.0848 24.3313C21.5543 24.0391 21.8071 23.4974 21.7295 22.95L20.9011 17.1233L24.5962 13.4281C24.9911 13.0291 25.1086 12.4322 24.8943 11.9133C24.68 11.3943 24.1757 11.0542 23.6143 11.05H18.4578L16.0378 5.80977C15.8095 5.31643 15.3155 5.00047 14.7719 5Z" fill="url(#paint0_linear)"/>
<defs>
<linearGradient id="paint0_linear" x1="5" y1="5" x2="26.0065" y2="6.1495" gradientUnits="userSpaceOnUse">
<stop stop-color="#29B1CC"/>
<stop offset="1" stop-color="#5AD4A1"/>
</linearGradient>
</defs>
</svg>
