<svg width="20" height="20" viewBox="0 0 20 20" fill="none" xmlns="http://www.w3.org/2000/svg">
<path fill-rule="evenodd" clip-rule="evenodd" d="M17.4744 5.04202C17.1989 4.47389 16.649 4.08874 16.0209 4.02391H15.8386V3.82391H16.0312L16.0415 3.82497C16.7384 3.89691 17.3486 4.32431 17.6543 4.95475C17.9448 5.55366 17.9213 6.25483 17.5966 6.83087C19.042 10.32 17.9242 14.3521 14.8767 16.5973C11.8326 18.84 7.6564 18.7155 4.75275 16.3088C4.56589 16.3646 4.37151 16.3931 4.17609 16.3933H3.98371L3.97372 16.3923C3.25231 16.3197 2.62489 15.8667 2.32902 15.2048C2.04915 14.5786 2.10643 13.8561 2.47492 13.2839C0.950016 9.75522 2.07404 5.63285 5.19289 3.36867C8.31409 1.10278 12.5859 1.31287 15.4688 3.86113C15.59 3.83754 15.7132 3.82507 15.8367 3.82392L15.8386 4.02391C15.8026 4.02425 15.7667 4.02565 15.7309 4.0281C15.7667 4.02565 15.8026 4.02426 15.8385 4.02392H16.0209C16.649 4.08875 17.1988 4.4739 17.4743 5.04203C17.7498 5.61016 17.7118 6.2804 17.3738 6.81374V6.81739C18.8411 10.2421 17.7576 14.2263 14.758 16.4363C13.9248 17.0501 13.0047 17.4822 12.0495 17.7343C13.0048 17.4822 13.9249 17.0501 14.7581 16.4363C17.7577 14.2263 18.8412 10.2421 17.3739 6.81738V6.81373C17.7119 6.28039 17.7499 5.61015 17.4744 5.04202ZM4.79599 16.084C4.79599 16.084 4.79598 16.0839 4.79598 16.0839C4.7476 16.1015 4.69856 16.117 4.64901 16.1304C4.69856 16.117 4.7476 16.1015 4.79599 16.084ZM8.81731 2.09077C11.141 1.73847 13.5753 2.4139 15.4119 4.07863C15.4119 4.07862 15.4119 4.07862 15.4119 4.07862C13.5753 2.41388 11.1411 1.73845 8.81731 2.09077ZM16.3653 5.88932C16.338 6.16083 16.1088 6.36712 15.836 6.36575H15.7674C15.4771 6.34875 15.2543 6.10086 15.2689 5.8099C15.2835 5.51741 15.5325 5.2924 15.825 5.30702H15.8977C16.035 5.32234 16.161 5.39079 16.2486 5.49791C16.3381 5.60728 16.3801 5.74878 16.3653 5.88932ZM15.6872 5.11449C15.3514 5.16586 15.0867 5.44744 15.0691 5.79993C15.0489 6.20274 15.3591 6.54562 15.7619 6.56576H15.8349C15.8467 6.56582 15.8584 6.56559 15.87 6.56509C15.8584 6.56559 15.8467 6.56581 15.835 6.56575H15.762C15.3592 6.54561 15.049 6.20273 15.0691 5.79992C15.0867 5.44745 15.3515 5.16588 15.6872 5.11449ZM7.5164 6.23719C7.57449 6.22818 7.6333 6.22195 7.69266 6.21859C7.72737 6.21662 7.76227 6.21564 7.79732 6.21566H7.97967C8.59794 6.27944 9.14114 6.65376 9.42088 7.2088C9.70062 7.76385 9.67835 8.42316 9.36181 8.95807L11.1159 10.7122C11.1159 10.7122 11.116 10.7122 11.116 10.7122L9.36187 8.95806C9.67842 8.42315 9.70068 7.76384 9.42094 7.20879C9.14121 6.65375 8.598 6.27943 7.97973 6.21565H7.79739C7.76232 6.21563 7.72739 6.21662 7.69266 6.21859C7.6333 6.22195 7.57449 6.22818 7.5164 6.23719ZM12.1089 10.3501C12.1328 10.3487 12.1568 10.3479 12.1808 10.3475H12.3631C12.4233 10.3566 12.4829 10.3688 12.5418 10.384L12.5418 10.3839C12.483 10.3687 12.4233 10.3566 12.3632 10.3475H12.1809V10.1475H12.3782L12.3931 10.1497C12.4085 10.1521 12.4238 10.1546 12.4391 10.1572L14.1888 7.00986C13.6993 6.32468 13.6874 5.40746 14.153 4.71098C12.9747 3.77658 11.5138 3.26588 10.0064 3.26481C6.29223 3.26728 3.28206 6.27899 3.28206 9.99375V9.99617C3.27211 10.8181 3.41471 11.6341 3.70212 12.4031C3.8446 12.3698 3.99045 12.352 4.13713 12.3502L4.13964 12.5502C4.11591 12.5505 4.09221 12.5512 4.06855 12.5524C4.09219 12.5512 4.11587 12.5505 4.13957 12.5502H4.32191C4.38206 12.5593 4.4417 12.5714 4.5006 12.5866L4.50062 12.5866C4.44173 12.5714 4.38211 12.5593 4.32198 12.5502H4.13964V12.3502H4.337L4.35185 12.3524C4.36723 12.3547 4.38257 12.3572 4.39788 12.3599L6.14765 9.21236C5.72474 8.61844 5.65238 7.83822 5.96754 7.17287C6.30247 6.4658 7.01502 6.01518 7.79739 6.01565H7.99002L8.00025 6.01671C8.68634 6.08748 9.28912 6.50285 9.59954 7.11878C9.88631 7.68778 9.88708 8.35551 9.6086 8.92194L11.1401 10.4535C11.4508 10.2598 11.8094 10.1535 12.1776 10.1475L12.1809 10.3475C12.1568 10.3479 12.1328 10.3487 12.1089 10.3501ZM3.58167 12.645C3.2409 11.8031 3.07106 10.9019 3.08206 9.99375C3.08206 6.52907 5.62501 3.65832 8.94629 3.1461C5.62497 3.65829 3.08199 6.52905 3.08199 9.99376C3.071 10.9019 3.24083 11.8031 3.58161 12.645C3.58163 12.645 3.58165 12.645 3.58167 12.645ZM12.0381 11.4603C11.7034 11.5126 11.4399 11.7937 11.4223 12.1454C11.4022 12.5482 11.7124 12.8911 12.1152 12.9112H12.1881C12.2013 12.9113 12.2144 12.911 12.2274 12.9104C12.2144 12.911 12.2013 12.9113 12.1881 12.9112H12.1151C11.7123 12.8911 11.4021 12.5482 11.4222 12.1454C11.4398 11.7937 11.7034 11.5126 12.0381 11.4603ZM12.9175 12.2548H12.9247C12.9247 12.2548 12.9247 12.2548 12.9247 12.2548H12.9175C12.9175 12.2548 12.9175 12.2548 12.9175 12.2548ZM12.6072 11.8418C12.6786 11.9281 12.7203 12.0342 12.7276 12.1445L12.7185 12.2348C12.6912 12.5063 12.462 12.7126 12.1891 12.7112H12.1206C11.8303 12.6942 11.6075 12.4463 11.6221 12.1554C11.6367 11.8629 11.8856 11.6379 12.1781 11.6525H12.2519C12.3906 11.6663 12.5183 11.7343 12.6072 11.8418ZM7.66422 7.30622C7.32843 7.35759 7.06368 7.63917 7.04606 7.99166C7.02592 8.39448 7.33614 8.73735 7.73896 8.75749H7.81189C7.85082 8.75769 7.88911 8.75481 7.9265 8.74909C7.88913 8.75481 7.85086 8.75768 7.81196 8.75748H7.73902C7.33621 8.73734 7.02599 8.39447 7.04613 7.99165C7.06375 7.63919 7.32847 7.35762 7.66422 7.30622ZM7.80196 7.49875H7.8746C8.0114 7.5141 8.13698 7.58217 8.22453 7.68869C8.31394 7.79747 8.35633 7.93739 8.34231 8.0775L8.34132 8.08743V8.09024C8.30985 8.3572 8.08275 8.55884 7.81296 8.55748H7.74441C7.45416 8.54049 7.23133 8.2926 7.24588 8.00164C7.2605 7.70914 7.50946 7.48413 7.80196 7.49875ZM3.39931 14.3371C3.41689 13.9854 3.68045 13.7043 4.01513 13.652C3.68042 13.7043 3.41683 13.9854 3.39924 14.3371C3.3791 14.7399 3.68932 15.0828 4.09214 15.1029H4.16508C4.18957 15.1042 4.21385 15.1042 4.23784 15.103C4.21387 15.1042 4.18962 15.1042 4.16514 15.1029L4.17513 14.9032C4.46763 14.9178 4.7166 14.6926 4.73122 14.4001C4.74577 14.1091 4.52295 13.8612 4.23269 13.8442L4.15515 13.844C3.86266 13.8293 3.61369 14.0546 3.59906 14.3471C3.58451 14.6381 3.80734 14.8859 4.09759 14.9029H4.16514V15.1029H4.09221C3.68939 15.0828 3.37917 14.7399 3.39931 14.3371ZM7.33785 9.78591L5.48164 13.1264C6.0766 13.7414 6.15446 14.691 5.66762 15.3947C6.8936 16.3866 8.42304 16.9273 10 16.9263L9.99997 16.9264C8.423 16.9273 6.89354 16.3866 5.66756 15.3947C6.1544 14.691 6.07654 13.7414 5.48157 13.1264L7.3378 9.78589C7.33782 9.7859 7.33783 9.7859 7.33785 9.78591ZM10.0109 16.9227C10.1184 16.9227 10.2257 16.9201 10.3326 16.9151C10.2257 16.9201 10.1185 16.9226 10.011 16.9227L10.0109 16.9227ZM16.4804 7.53582C16.4804 7.53582 16.4804 7.53581 16.4804 7.53581C16.4223 7.55765 16.3632 7.57649 16.3034 7.59226C16.3632 7.57649 16.4223 7.55767 16.4804 7.53582ZM15.3718 7.59417C15.3718 7.59417 15.3717 7.59416 15.3717 7.59416L13.5155 10.9346C14.011 11.463 14.1467 12.2346 13.8613 12.9004C13.6372 13.4231 13.1868 13.8028 12.6531 13.9444C13.1868 13.8028 13.6372 13.4231 13.8613 12.9004C14.1468 12.2346 14.0111 11.463 13.5156 10.9346L15.3718 7.59417ZM8.53397 9.68015L8.53395 9.68013C8.41935 9.73239 8.29995 9.77249 8.17772 9.79999C8.29995 9.77249 8.41936 9.7324 8.53397 9.68015ZM10.2181 11.6471L8.48703 9.91598C8.26993 9.99726 8.04012 10.0408 7.80763 10.0442L7.80466 10.0442H7.61004L7.59785 10.0427C7.54438 10.0361 7.49121 10.0274 7.43847 10.0166L5.72565 13.099C6.25401 13.7338 6.33485 14.6303 5.93208 15.3484C7.08959 16.2354 8.50686 16.7201 9.96776 16.7263L9.97847 16.7227L10.0109 16.7227C11.7961 16.7218 13.5078 16.0114 14.7692 14.7481C16.0305 13.4847 16.7382 11.7718 16.7363 9.98652C16.736 9.23597 16.6083 8.49139 16.359 7.78443C16.1895 7.82954 16.0146 7.8525 15.8386 7.8525H15.644L15.6318 7.85099C15.5783 7.8444 15.5251 7.83568 15.4724 7.82486L13.7585 10.9092C14.2281 11.4892 14.3424 12.2859 14.0452 12.9792C13.7284 13.718 13.0044 14.1992 12.2006 14.2052L12.1991 14.2053L12.0084 14.2052L12.0002 14.2046C11.3772 14.1528 10.8132 13.816 10.4721 13.2921C10.1543 12.8039 10.0634 12.2044 10.2181 11.6471Z" fill="#9DA5B1"/>
</svg>
