<svg width="18" height="18" viewBox="0 0 18 18" fill="none" xmlns="http://www.w3.org/2000/svg">
<mask id="path-1-outside-1" maskUnits="userSpaceOnUse" x="0" y="0" width="18" height="18" fill="black">
<rect fill="white" width="18" height="18"/>
<path fill-rule="evenodd" clip-rule="evenodd" d="M9 1C4.58172 1 1 4.58172 1 9C1 13.4183 4.58172 17 9 17C13.4183 17 17 13.4183 17 9C17 4.58172 13.4183 1 9 1ZM13.48 3.74547L11.6946 5.53093L11.6727 5.55638C10.103 4.32692 7.89703 4.32692 6.32729 5.55638L6.30547 5.53093L4.52002 3.74547C7.09968 1.53667 10.904 1.53667 13.4837 3.74547H13.48ZM8.99997 12.2728C7.1925 12.2728 5.72725 10.8075 5.72725 9.00007C5.72725 7.19259 7.1925 5.72734 8.99997 5.72734C10.8075 5.72734 12.2727 7.19259 12.2727 9.00007C12.2727 10.8075 10.8075 12.2728 8.99997 12.2728ZM2.09092 8.99992C2.0895 7.35688 2.67643 5.76763 3.74547 4.51992L5.53092 6.30538L5.55638 6.32719C4.32691 7.89693 4.32691 10.1029 5.55638 11.6726L5.53092 11.6945L3.74547 13.4799C2.67643 12.2322 2.0895 10.643 2.09092 8.99992ZM4.51994 14.2545L6.3054 12.469L6.32722 12.4436C7.89695 13.673 10.1029 13.673 11.6727 12.4436L11.6945 12.469L13.4799 14.2545C10.9003 16.4633 7.09597 16.4633 4.51631 14.2545H4.51994ZM14.2546 13.4836L12.4546 11.6945L12.4291 11.6726C13.6586 10.1029 13.6586 7.89693 12.4291 6.32719L12.4546 6.30538L14.24 4.51992C16.4488 7.09958 16.4488 10.9039 14.24 13.4836H14.2546Z"/>
</mask>
<path fill-rule="evenodd" clip-rule="evenodd" d="M9 1C4.58172 1 1 4.58172 1 9C1 13.4183 4.58172 17 9 17C13.4183 17 17 13.4183 17 9C17 4.58172 13.4183 1 9 1ZM13.48 3.74547L11.6946 5.53093L11.6727 5.55638C10.103 4.32692 7.89703 4.32692 6.32729 5.55638L6.30547 5.53093L4.52002 3.74547C7.09968 1.53667 10.904 1.53667 13.4837 3.74547H13.48ZM8.99997 12.2728C7.1925 12.2728 5.72725 10.8075 5.72725 9.00007C5.72725 7.19259 7.1925 5.72734 8.99997 5.72734C10.8075 5.72734 12.2727 7.19259 12.2727 9.00007C12.2727 10.8075 10.8075 12.2728 8.99997 12.2728ZM2.09092 8.99992C2.0895 7.35688 2.67643 5.76763 3.74547 4.51992L5.53092 6.30538L5.55638 6.32719C4.32691 7.89693 4.32691 10.1029 5.55638 11.6726L5.53092 11.6945L3.74547 13.4799C2.67643 12.2322 2.0895 10.643 2.09092 8.99992ZM4.51994 14.2545L6.3054 12.469L6.32722 12.4436C7.89695 13.673 10.1029 13.673 11.6727 12.4436L11.6945 12.469L13.4799 14.2545C10.9003 16.4633 7.09597 16.4633 4.51631 14.2545H4.51994ZM14.2546 13.4836L12.4546 11.6945L12.4291 11.6726C13.6586 10.1029 13.6586 7.89693 12.4291 6.32719L12.4546 6.30538L14.24 4.51992C16.4488 7.09958 16.4488 10.9039 14.24 13.4836H14.2546Z" fill="#9DA5B1"/>
<path d="M13.48 3.74547V3.44547H13.3558L13.2679 3.53334L13.48 3.74547ZM11.6946 5.53093L11.4824 5.3188L11.4743 5.32694L11.4668 5.33569L11.6946 5.53093ZM11.6727 5.55638L11.4878 5.79256L11.7137 5.96955L11.9005 5.75162L11.6727 5.55638ZM6.32729 5.55638L6.09951 5.75162L6.28631 5.96955L6.51228 5.79256L6.32729 5.55638ZM6.30547 5.53093L6.53325 5.33569L6.52575 5.32694L6.51761 5.3188L6.30547 5.53093ZM4.52002 3.74547L4.3249 3.51759L4.07869 3.72841L4.30789 3.9576L4.52002 3.74547ZM13.4837 3.74547V4.04547H14.2953L13.6788 3.51759L13.4837 3.74547ZM12.2727 9.00007H12.5727H12.2727ZM3.74547 4.51992L3.9576 4.30779L3.72848 4.07867L3.51765 4.32473L3.74547 4.51992ZM5.53092 6.30538L5.31879 6.51751L5.32694 6.52566L5.33568 6.53315L5.53092 6.30538ZM5.55638 6.32719L5.79256 6.51218L5.96954 6.28621L5.75161 6.09942L5.55638 6.32719ZM5.55638 11.6726L5.75161 11.9004L5.96954 11.7136L5.79256 11.4877L5.55638 11.6726ZM5.53092 11.6945L5.33569 11.4667L5.32694 11.4742L5.31879 11.4823L5.53092 11.6945ZM3.74547 13.4799L3.51765 13.6751L3.72848 13.9212L3.9576 13.6921L3.74547 13.4799ZM4.51994 14.2545V14.5545H4.64421L4.73208 14.4666L4.51994 14.2545ZM6.3054 12.469L6.51753 12.6811L6.52568 12.673L6.53318 12.6642L6.3054 12.469ZM6.32722 12.4436L6.5122 12.2074L6.28623 12.0304L6.09944 12.2483L6.32722 12.4436ZM11.6727 12.4436L11.9005 12.2483L11.7137 12.0304L11.4877 12.2074L11.6727 12.4436ZM11.6945 12.469L11.4667 12.6642L11.4742 12.673L11.4824 12.6811L11.6945 12.469ZM13.4799 14.2545L13.6751 14.4823L13.9213 14.2715L13.6921 14.0423L13.4799 14.2545ZM4.51631 14.2545V13.9545H3.70468L4.32119 14.4823L4.51631 14.2545ZM14.2546 13.4836V13.7836H14.9819L14.466 13.2708L14.2546 13.4836ZM12.4546 11.6945L12.666 11.4817L12.6582 11.4739L12.6498 11.4667L12.4546 11.6945ZM12.4291 11.6726L12.1929 11.4877L12.0159 11.7136L12.2339 11.9004L12.4291 11.6726ZM12.4291 6.32719L12.2339 6.09942L12.0159 6.28621L12.1929 6.51218L12.4291 6.32719ZM12.4546 6.30538L12.6498 6.53315L12.6585 6.52566L12.6667 6.51751L12.4546 6.30538ZM14.24 4.51992L14.4679 4.3248L14.2571 4.07859L14.0279 4.30779L14.24 4.51992ZM14.24 13.4836L14.0121 13.2884L13.5882 13.7836H14.24V13.4836ZM9 0.7C4.41604 0.7 0.7 4.41604 0.7 9H1.3C1.3 4.74741 4.74741 1.3 9 1.3V0.7ZM0.7 9C0.7 13.584 4.41604 17.3 9 17.3V16.7C4.74741 16.7 1.3 13.2526 1.3 9H0.7ZM9 17.3C13.584 17.3 17.3 13.584 17.3 9H16.7C16.7 13.2526 13.2526 16.7 9 16.7V17.3ZM17.3 9C17.3 4.41604 13.584 0.7 9 0.7V1.3C13.2526 1.3 16.7 4.74741 16.7 9H17.3ZM13.2679 3.53334L11.4824 5.3188L11.9067 5.74306L13.6922 3.9576L13.2679 3.53334ZM11.4668 5.33569L11.445 5.36115L11.9005 5.75162L11.9223 5.72616L11.4668 5.33569ZM11.8577 5.3202C10.1794 4.00565 7.82069 4.00565 6.14231 5.3202L6.51228 5.79256C7.97337 4.64819 10.0267 4.64819 11.4878 5.79256L11.8577 5.3202ZM6.55507 5.36115L6.53325 5.33569L6.0777 5.72616L6.09951 5.75162L6.55507 5.36115ZM6.51761 5.3188L4.73215 3.53334L4.30789 3.9576L6.09334 5.74306L6.51761 5.3188ZM4.71514 3.97335C7.18249 1.86071 10.8212 1.86071 13.2885 3.97335L13.6788 3.51759C10.9868 1.21262 7.01687 1.21262 4.3249 3.51759L4.71514 3.97335ZM13.4837 3.44547H13.48V4.04547H13.4837V3.44547ZM8.99997 11.9728C7.35818 11.9728 6.02725 10.6419 6.02725 9.00007H5.42725C5.42725 10.9732 7.02681 12.5728 8.99997 12.5728V11.9728ZM6.02725 9.00007C6.02725 7.35828 7.35818 6.02734 8.99997 6.02734V5.42734C7.02681 5.42734 5.42725 7.02691 5.42725 9.00007H6.02725ZM8.99997 6.02734C10.6418 6.02734 11.9727 7.35828 11.9727 9.00007H12.5727C12.5727 7.02691 10.9731 5.42734 8.99997 5.42734V6.02734ZM11.9727 9.00007C11.9727 10.6419 10.6418 11.9728 8.99997 11.9728V12.5728C10.9731 12.5728 12.5727 10.9732 12.5727 9.00007H11.9727ZM2.39092 8.99966C2.38956 7.4283 2.95089 5.90839 3.97328 4.71511L3.51765 4.32473C2.40198 5.62687 1.78943 7.28545 1.79092 9.00018L2.39092 8.99966ZM3.53333 4.73205L5.31879 6.51751L5.74305 6.09324L3.9576 4.30779L3.53333 4.73205ZM5.33568 6.53315L5.36114 6.55497L5.75161 6.09942L5.72616 6.0776L5.33568 6.53315ZM5.32019 6.14221C4.00564 7.82059 4.00564 10.1793 5.32019 11.8576L5.79256 11.4877C4.64819 10.0266 4.64819 7.97327 5.79256 6.51218L5.32019 6.14221ZM5.36114 11.4449L5.33569 11.4667L5.72616 11.9222L5.75161 11.9004L5.36114 11.4449ZM5.31879 11.4823L3.53333 13.2678L3.9576 13.6921L5.74305 11.9066L5.31879 11.4823ZM3.97328 13.2847C2.95089 12.0915 2.38956 10.5715 2.39092 9.00018L1.79092 8.99966C1.78943 10.7144 2.40198 12.373 3.51765 13.6751L3.97328 13.2847ZM4.73208 14.4666L6.51753 12.6811L6.09327 12.2569L4.30781 14.0423L4.73208 14.4666ZM6.53318 12.6642L6.55499 12.6388L6.09944 12.2483L6.07762 12.2738L6.53318 12.6642ZM6.14223 12.6797C7.82061 13.9943 10.1793 13.9943 11.8577 12.6797L11.4877 12.2074C10.0266 13.3517 7.97329 13.3517 6.5122 12.2074L6.14223 12.6797ZM11.4449 12.6388L11.4667 12.6642L11.9223 12.2738L11.9005 12.2483L11.4449 12.6388ZM11.4824 12.6811L13.2678 14.4666L13.6921 14.0423L11.9066 12.2569L11.4824 12.6811ZM13.2848 14.0266C10.8175 16.1392 7.17878 16.1392 4.71143 14.0266L4.32119 14.4823C7.01316 16.7873 10.9831 16.7873 13.6751 14.4823L13.2848 14.0266ZM4.51631 14.5545H4.51994V13.9545H4.51631V14.5545ZM14.466 13.2708L12.666 11.4817L12.2431 11.9072L14.0431 13.6963L14.466 13.2708ZM12.6498 11.4667L12.6243 11.4449L12.2339 11.9004L12.2593 11.9222L12.6498 11.4667ZM12.6653 11.8576C13.9798 10.1793 13.9798 7.82059 12.6653 6.14221L12.1929 6.51218C13.3373 7.97327 13.3373 10.0266 12.1929 11.4877L12.6653 11.8576ZM12.6243 6.55497L12.6498 6.53315L12.2593 6.0776L12.2339 6.09942L12.6243 6.55497ZM12.6667 6.51751L14.4521 4.73205L14.0279 4.30779L12.2424 6.09324L12.6667 6.51751ZM14.0121 4.71504C16.1248 7.18239 16.1248 10.8211 14.0121 13.2884L14.4679 13.6787C16.7729 10.9867 16.7729 7.01677 14.4679 4.3248L14.0121 4.71504ZM14.24 13.7836H14.2546V13.1836H14.24V13.7836Z" fill="#9DA5B1" mask="url(#path-1-outside-1)"/>
</svg>
