<svg width="20" height="20" viewBox="0 0 20 20" fill="none" xmlns="http://www.w3.org/2000/svg">
<path fill-rule="evenodd" clip-rule="evenodd" d="M5.93633 15.7865V13.9727H5.27269C4.97572 13.9727 4.69481 13.9039 4.44504 13.7814L5.14608 4.39509C5.18792 4.39231 5.23014 4.3909 5.27269 4.3909H14.7272C15.7665 4.3909 16.6091 5.23342 16.6091 6.27272V12.0909C16.6091 13.1302 15.7665 13.9727 14.7272 13.9727H7.97681L5.93633 15.7865ZM5.13674 4.39574C5.13985 4.39552 5.14296 4.3953 5.14608 4.39509L5.16862 4.09335C5.16606 4.09347 5.16351 4.09359 5.16095 4.09372L5.13674 4.39574ZM4.38675 13.7515C4.40598 13.7618 4.42541 13.7718 4.44504 13.7814L4.42122 14.1003C4.40097 14.0917 4.38086 14.0828 4.36093 14.0736L4.38675 13.7515ZM4.26998 15.2082C2.92713 14.7768 1.9992 13.5229 2 12.0909V6.27273C2 4.47329 3.45224 3.01305 5.24862 3.00009L5.24862 3.00008C5.24917 3.00008 5.24972 3.00008 5.25027 3.00007L5.25027 3.00008C5.25775 3.00003 5.26524 3 5.27273 3H14.7273C14.7414 3 14.7555 3.00009 14.7695 3.00026C14.7554 3.00009 14.7413 3 14.7272 3H5.27268C5.2652 3 5.25773 3.00002 5.25027 3.00007L5.27268 2.7H14.7272C16.7004 2.7 18.3 4.29956 18.3 6.27272V12.0909C18.3 14.0641 16.7004 15.6636 14.7272 15.6636H8.62303L6.56359 17.4927C6.15453 17.8583 5.56835 17.9496 5.06765 17.7253C4.56684 17.501 4.24476 17.0031 4.24541 16.4543L4.33693 15.2289C4.40541 15.2493 4.47492 15.2676 4.54541 15.2836V16.4545C4.54484 16.885 4.79746 17.2755 5.1903 17.4515C5.26293 17.4841 5.33784 17.5082 5.41373 17.524C5.33785 17.5082 5.26296 17.4841 5.19035 17.4515C4.79751 17.2756 4.54489 16.885 4.54546 16.4545V15.2836C4.47496 15.2676 4.40543 15.2493 4.33693 15.2289L4.33693 15.2289C4.3145 15.2222 4.29218 15.2153 4.26998 15.2082L4.26998 15.2082ZM4.26998 15.2082L4.24541 15.5147C2.74326 15.0646 1.69914 13.6779 1.69995 12.0909V6.27272C1.69995 4.29956 3.29952 2.7 5.27268 2.7L5.24862 3.00008C3.45222 3.01302 1.99995 4.47327 1.99995 6.27272V12.0909C1.99915 13.5229 2.9271 14.7768 4.26998 15.2082ZM5.27269 14.2727C5.27271 14.2727 5.27272 14.2727 5.27274 14.2727L5.63633 14.2727H5.27269ZM15.1669 4.13523C16.1612 4.33868 16.9091 5.21836 16.9091 6.27272V12.0909C16.9091 13.2959 15.9322 14.2727 14.7272 14.2727H8.09087L5.63637 16.4545V16.4545L8.09092 14.2727H14.7273C15.9323 14.2727 16.9091 13.2959 16.9091 12.0909V6.27272C16.9091 5.21835 16.1612 4.33866 15.1669 4.13523ZM4.38675 13.7515C3.7941 13.4347 3.39087 12.8099 3.39087 12.0909V6.27272C3.39087 5.27914 4.1609 4.4654 5.13674 4.39574L4.38675 13.7515ZM10 10.0273C10.4669 10.0273 10.8455 9.64875 10.8455 9.18182C10.8455 8.71489 10.4669 8.33636 10 8.33636C9.53307 8.33636 9.15454 8.71488 9.15454 9.18182C9.15454 9.64875 9.53307 10.0273 10 10.0273ZM13.6363 10.0273C14.1033 10.0273 14.4818 9.64875 14.4818 9.18182C14.4818 8.71489 14.1033 8.33636 13.6363 8.33636C13.1694 8.33636 12.7909 8.71488 12.7909 9.18182C12.7909 9.64875 13.1694 10.0273 13.6363 10.0273ZM6.40722 10.0273C6.87416 10.0273 7.25268 9.64875 7.25268 9.18182C7.25268 8.71488 6.87416 8.33636 6.40722 8.33636C5.94029 8.33636 5.56177 8.71488 5.56177 9.18182C5.56177 9.64875 5.94029 10.0273 6.40722 10.0273ZM9.88661 9.71547C9.63981 9.66327 9.45459 9.44417 9.45459 9.18182C9.45459 8.88057 9.6988 8.63636 10 8.63636C10.0106 8.63636 10.0211 8.63667 10.0316 8.63726C10.0211 8.63666 10.0106 8.63636 10 8.63636C9.69875 8.63636 9.45454 8.88057 9.45454 9.18182C9.45454 9.44418 9.63978 9.66329 9.88661 9.71547ZM13.6679 8.63726C13.6575 8.63667 13.647 8.63636 13.6364 8.63636C13.3351 8.63636 13.0909 8.88057 13.0909 9.18182C13.0909 9.46422 13.3055 9.6965 13.5806 9.72445C13.3055 9.69652 13.0909 9.46423 13.0909 9.18182C13.0909 8.88057 13.3351 8.63636 13.6363 8.63636C13.6469 8.63636 13.6575 8.63666 13.6679 8.63726ZM6.3757 9.72638C6.08914 9.71002 5.86182 9.47247 5.86182 9.18182C5.86182 8.88057 6.10603 8.63636 6.40727 8.63636C6.41785 8.63636 6.42837 8.63667 6.4388 8.63726C6.42835 8.63666 6.41782 8.63636 6.40722 8.63636C6.10598 8.63636 5.86177 8.88057 5.86177 9.18182C5.86177 9.47248 6.08912 9.71004 6.3757 9.72638Z" fill="#9DA5B1"/>
</svg>
