<svg width="20" height="20" viewBox="0 0 20 20" fill="none" xmlns="http://www.w3.org/2000/svg">
<mask id="path-1-outside-1" maskUnits="userSpaceOnUse" x="1" y="1" width="18" height="17" fill="black">
<rect fill="white" x="1" y="1" width="18" height="17"/>
<path fill-rule="evenodd" clip-rule="evenodd" d="M9.81754 3.11693L12.0514 7.95695H16.8914L13.5406 11.3077L14.2852 16.5201L9.81754 13.4783L5.34983 16.5201L6.46676 11.3077L3.11597 7.95695H7.58368L9.81754 3.11693ZM9.81754 2C9.38265 2.00037 8.98752 2.25314 8.80486 2.64782L6.86885 6.84002H3.11598C2.66453 6.84042 2.25771 7.11254 2.085 7.52965C1.91229 7.94676 2.00766 8.42682 2.32668 8.74624L5.24559 11.6651L4.25152 16.2818C4.15582 16.7281 4.34127 17.1877 4.7199 17.4425C5.09853 17.6974 5.59414 17.6963 5.97159 17.4397L9.81382 14.8335L13.6486 17.4397C14.0141 17.6888 14.4923 17.6988 14.8678 17.465C15.2434 17.2313 15.4457 16.798 15.3836 16.36L14.7209 11.6987L17.677 8.74252C17.9929 8.42324 18.0868 7.94579 17.9154 7.53063C17.744 7.11547 17.3406 6.84339 16.8914 6.84002H12.7662L10.8302 2.64782C10.6476 2.25314 10.2524 2.00037 9.81754 2Z"/>
</mask>
<path fill-rule="evenodd" clip-rule="evenodd" d="M9.81754 3.11693L12.0514 7.95695H16.8914L13.5406 11.3077L14.2852 16.5201L9.81754 13.4783L5.34983 16.5201L6.46676 11.3077L3.11597 7.95695H7.58368L9.81754 3.11693ZM9.81754 2C9.38265 2.00037 8.98752 2.25314 8.80486 2.64782L6.86885 6.84002H3.11598C2.66453 6.84042 2.25771 7.11254 2.085 7.52965C1.91229 7.94676 2.00766 8.42682 2.32668 8.74624L5.24559 11.6651L4.25152 16.2818C4.15582 16.7281 4.34127 17.1877 4.7199 17.4425C5.09853 17.6974 5.59414 17.6963 5.97159 17.4397L9.81382 14.8335L13.6486 17.4397C14.0141 17.6888 14.4923 17.6988 14.8678 17.465C15.2434 17.2313 15.4457 16.798 15.3836 16.36L14.7209 11.6987L17.677 8.74252C17.9929 8.42324 18.0868 7.94579 17.9154 7.53063C17.744 7.11547 17.3406 6.84339 16.8914 6.84002H12.7662L10.8302 2.64782C10.6476 2.25314 10.2524 2.00037 9.81754 2Z" fill="#9DA5B1"/>
<path d="M12.0514 7.95695L11.779 8.08266L11.8594 8.25695H12.0514V7.95695ZM16.8914 7.95695L17.1035 8.16908L17.6157 7.65695H16.8914V7.95695ZM13.5406 11.3077L13.3285 11.0956L13.2224 11.2017L13.2436 11.3502L13.5406 11.3077ZM14.2852 16.5201L14.1164 16.768L14.6784 17.1506L14.5822 16.4776L14.2852 16.5201ZM9.81754 13.4783L9.98637 13.2303L9.81754 13.1154L9.6487 13.2303L9.81754 13.4783ZM5.34983 16.5201L5.05649 16.4572L4.89956 17.1895L5.51866 16.768L5.34983 16.5201ZM6.46676 11.3077L6.7601 11.3706L6.79429 11.211L6.67889 11.0956L6.46676 11.3077ZM3.11597 7.95695V7.65695H2.39171L2.90384 8.16908L3.11597 7.95695ZM7.58368 7.95695V8.25695H7.77563L7.85607 8.08266L7.58368 7.95695ZM9.81754 2L9.8178 1.7L9.81729 1.7L9.81754 2ZM8.80486 2.64782L8.5326 2.52182L8.5325 2.52204L8.80486 2.64782ZM6.86885 6.84002V7.14002H7.06076L7.14121 6.9658L6.86885 6.84002ZM3.11598 6.84002V6.54002L3.11571 6.54002L3.11598 6.84002ZM2.32668 8.74624L2.11442 8.95824L2.11455 8.95837L2.32668 8.74624ZM5.24559 11.6651L5.53886 11.7283L5.57326 11.5686L5.45772 11.453L5.24559 11.6651ZM4.25152 16.2818L3.95824 16.2186L3.95819 16.2189L4.25152 16.2818ZM5.97159 17.4397L5.80319 17.1914L5.80292 17.1916L5.97159 17.4397ZM9.81382 14.8335L9.98245 14.5854L9.81398 14.4709L9.64542 14.5852L9.81382 14.8335ZM13.6486 17.4397L13.8176 17.1918L13.8172 17.1915L13.6486 17.4397ZM15.3836 16.36L15.6806 16.3179L15.6806 16.3177L15.3836 16.36ZM14.7209 11.6987L14.5087 11.4865L14.4027 11.5925L14.4238 11.7409L14.7209 11.6987ZM17.677 8.74252L17.8891 8.95465L17.8902 8.95353L17.677 8.74252ZM16.8914 6.84002L16.8937 6.54002H16.8914V6.84002ZM12.7662 6.84002L12.4939 6.9658L12.5743 7.14002H12.7662V6.84002ZM10.8302 2.64782L11.1026 2.52204L11.1025 2.52182L10.8302 2.64782ZM9.54515 3.24265L11.779 8.08266L12.3238 7.83123L10.0899 2.99121L9.54515 3.24265ZM12.0514 8.25695H16.8914V7.65695H12.0514V8.25695ZM16.6793 7.74481L13.3285 11.0956L13.7528 11.5199L17.1035 8.16908L16.6793 7.74481ZM13.2436 11.3502L13.9883 16.5625L14.5822 16.4776L13.8376 11.2653L13.2436 11.3502ZM14.4541 16.2721L9.98637 13.2303L9.6487 13.7263L14.1164 16.768L14.4541 16.2721ZM9.6487 13.2303L5.18099 16.2721L5.51866 16.768L9.98637 13.7263L9.6487 13.2303ZM5.64317 16.5829L6.7601 11.3706L6.17342 11.2449L5.05649 16.4572L5.64317 16.5829ZM6.67889 11.0956L3.32811 7.74481L2.90384 8.16908L6.25462 11.5199L6.67889 11.0956ZM3.11597 8.25695H7.58368V7.65695H3.11597V8.25695ZM7.85607 8.08266L10.0899 3.24265L9.54515 2.99121L7.3113 7.83123L7.85607 8.08266ZM9.81729 1.7C9.26558 1.70047 8.76432 2.02113 8.5326 2.52182L9.07712 2.77382C9.21071 2.48515 9.49972 2.30027 9.8178 2.3L9.81729 1.7ZM8.5325 2.52204L6.59649 6.71424L7.14121 6.9658L9.07722 2.7736L8.5325 2.52204ZM6.86885 6.54002H3.11598V7.14002H6.86885V6.54002ZM3.11571 6.54002C2.54301 6.54052 2.02692 6.88574 1.80782 7.41488L2.36218 7.64442C2.4885 7.33934 2.78605 7.14031 3.11624 7.14002L3.11571 6.54002ZM1.80782 7.41488C1.58872 7.94402 1.70971 8.55303 2.11442 8.95824L2.53895 8.53424C2.30561 8.30062 2.23586 7.94949 2.36218 7.64442L1.80782 7.41488ZM2.11455 8.95837L5.03345 11.8773L5.45772 11.453L2.53881 8.53411L2.11455 8.95837ZM4.95231 11.602L3.95824 16.2186L4.5448 16.3449L5.53886 11.7283L4.95231 11.602ZM3.95819 16.2189C3.83678 16.785 4.07205 17.3681 4.55237 17.6914L4.88743 17.1937C4.61049 17.0073 4.47485 16.6711 4.54485 16.3447L3.95819 16.2189ZM4.55237 17.6914C5.0327 18.0147 5.66143 18.0133 6.14026 17.6878L5.80292 17.1916C5.52685 17.3793 5.16436 17.3801 4.88743 17.1937L4.55237 17.6914ZM6.13999 17.6879L9.98222 15.0818L9.64542 14.5852L5.80319 17.1914L6.13999 17.6879ZM9.64519 15.0816L13.48 17.6878L13.8172 17.1915L9.98245 14.5854L9.64519 15.0816ZM13.4796 17.6876C13.9433 18.0036 14.5499 18.0163 15.0263 17.7197L14.7093 17.2103C14.4346 17.3813 14.0849 17.374 13.8176 17.1918L13.4796 17.6876ZM15.0263 17.7197C15.5028 17.4232 15.7594 16.8735 15.6806 16.3179L15.0865 16.4021C15.132 16.7224 14.984 17.0394 14.7093 17.2103L15.0263 17.7197ZM15.6806 16.3177L15.0179 11.6564L14.4238 11.7409L15.0866 16.4022L15.6806 16.3177ZM14.933 11.9108L17.8891 8.95465L17.4649 8.53039L14.5087 11.4865L14.933 11.9108ZM17.8902 8.95353C18.291 8.5485 18.4102 7.9428 18.1927 7.41613L17.6381 7.64513C17.7635 7.94878 17.6948 8.29799 17.4637 8.53151L17.8902 8.95353ZM18.1927 7.41613C17.9752 6.88946 17.4634 6.5443 16.8937 6.54003L16.8892 7.14001C17.2177 7.14247 17.5127 7.34148 17.6381 7.64513L18.1927 7.41613ZM16.8914 6.54002H12.7662V7.14002H16.8914V6.54002ZM13.0386 6.71424L11.1026 2.52204L10.5579 2.7736L12.4939 6.9658L13.0386 6.71424ZM11.1025 2.52182C10.8708 2.02113 10.3695 1.70047 9.8178 1.7L9.81729 2.3C10.1354 2.30027 10.4244 2.48515 10.558 2.77382L11.1025 2.52182Z" fill="#9DA5B1" mask="url(#path-1-outside-1)"/>
</svg>
