<svg width="10" height="10" viewBox="0 0 10 10" fill="none" xmlns="http://www.w3.org/2000/svg">
<path d="M9.81936 2.22746L8.94196 1.35005C8.82165 1.22966 8.67533 1.16943 8.50334 1.16943C8.3312 1.16943 8.18488 1.22966 8.06457 1.35005L3.83226 5.58877L1.93547 3.68552C1.81503 3.56507 1.6688 3.50492 1.49681 3.50492C1.32471 3.50492 1.17849 3.56507 1.05805 3.68552L0.180642 4.56294C0.0601989 4.68336 0 4.82964 0 5.00171C0 5.17366 0.0601989 5.32006 0.180642 5.44046L2.51608 7.77586L3.39355 8.65326C3.51393 8.77375 3.6602 8.8339 3.83226 8.8339C4.00424 8.8339 4.15052 8.77359 4.27096 8.65326L5.14841 7.77586L9.81936 3.10493C9.93969 2.98448 10 2.83824 10 2.66616C10.0001 2.49417 9.93969 2.3479 9.81936 2.22746Z" fill="#5AD4A1"/>
</svg>
