<svg width="24" height="15" viewBox="0 0 24 15" fill="none" xmlns="http://www.w3.org/2000/svg">
<path d="M2.14886 14.2008L3.60607 12.7383L3.11681 12.2473L2.20342 13.1642L0.543815 11.4975L0 12.0449L2.14886 14.2008ZM2.74899 10.1653L3.11681 10.5331L3.87182 9.77282L4.31004 10.2128L3.55327 10.9731L4.02141 11.4412L4.95593 10.5032L5.39415 10.9432L3.91582 12.4285L1.7652 10.2726L3.24529 8.78551L3.68351 9.22549L2.74899 10.1653ZM7.53421 8.79959L6.07172 8.37897C6.15317 8.20401 6.17746 8.00784 6.14113 7.81829C6.1048 7.62875 6.0097 7.45546 5.86933 7.32302C5.78535 7.24463 5.68655 7.18381 5.57873 7.14413C5.47092 7.10445 5.35627 7.08671 5.2415 7.09196C5.12674 7.0972 5.01418 7.12533 4.91044 7.17468C4.8067 7.22403 4.71386 7.29361 4.63738 7.37934L3.54799 8.47224L5.70741 10.6299L6.25299 10.0826L4.51419 8.33673L4.86617 7.98475C4.90194 7.94744 4.94472 7.91756 4.99206 7.89682C5.0394 7.87609 5.09037 7.86491 5.14205 7.86393C5.19372 7.86295 5.24508 7.87219 5.29317 7.89111C5.34127 7.91003 5.38515 7.93826 5.42231 7.97419C5.49531 8.04959 5.53538 8.1509 5.53373 8.25584C5.53208 8.36077 5.48884 8.46077 5.41351 8.53384L5.0932 8.85591L6.95168 9.38388L7.53421 8.79959ZM6.55041 5.37479C7.2227 4.70074 8.11146 4.76586 8.73975 5.39767C9.36804 6.02948 9.43492 6.92176 8.76263 7.59581C8.09034 8.26985 7.20334 8.20474 6.57329 7.56765C5.94324 6.93056 5.87813 6.04356 6.55041 5.36951V5.37479ZM6.97631 5.80773C6.63489 6.14915 6.74928 6.56625 7.16463 6.98335C7.57997 7.40045 7.99355 7.51133 8.33497 7.17167C8.6764 6.832 8.562 6.41314 8.14666 5.99604C7.73132 5.57894 7.31774 5.45575 6.97631 5.80773ZM9.3874 4.2414L8.98614 3.02354L9.62323 2.38469L10.1565 4.47371L10.9977 5.31847L10.4539 5.86581L9.61619 5.02457L7.6222 4.39276L8.22234 3.79086L9.37508 4.23964L9.3874 4.2414ZM19.3292 11.6753L21.4798 9.5194L20.9061 8.9439L18.7572 11.0998L19.3292 11.6753ZM11.1068 3.42128L12.7788 2.62052L11.5433 3.8595L12.0414 4.35932L14.1885 2.20166L13.5074 1.51705L11.89 2.30901L12.6996 0.705727L11.9956 0L9.84674 2.1559L10.343 2.65572L11.5785 1.41673L10.7813 3.09394L11.1068 3.42128ZM14.8326 3.72751L14.4648 4.09533L15.2902 4.92249L14.8519 5.36247L14.0283 4.53531L13.5602 5.00345L14.5633 6.01012L14.1251 6.4501L12.5764 4.89609L14.7252 2.73843L16.274 4.29244L15.8357 4.73242L14.8326 3.72751ZM16.9058 9.24485L18.363 10.7091L18.854 10.2163L17.9406 9.30117L19.6002 7.63452L19.0546 7.08895L16.9058 9.24485ZM22.6959 10.739L22.006 13.0252H22.0043L23.4896 11.5363L24 12.0484L21.8511 14.2043L21.1771 13.5285L21.7649 11.172H21.7667L20.2989 12.645L19.8026 12.147L21.9497 9.99105L22.6959 10.739ZM16.4992 8.83655L16.9128 7.36878C17.0877 7.45138 17.2843 7.47613 17.4742 7.43942C17.6641 7.40271 17.8373 7.30646 17.9688 7.16463C18.0464 7.08031 18.1066 6.98148 18.1459 6.87382C18.1852 6.76616 18.2028 6.6518 18.1977 6.53731C18.1926 6.42282 18.165 6.31046 18.1163 6.20669C18.0677 6.10293 17.999 6.00981 17.9142 5.93268L16.7579 4.77114L14.6073 6.93408L15.1529 7.48141L16.8952 5.73557L17.3088 6.15971C17.3448 6.19565 17.3735 6.23834 17.393 6.28534C17.4126 6.33234 17.4227 6.38273 17.4228 6.43364C17.4229 6.48454 17.4129 6.53497 17.3935 6.58203C17.3741 6.62909 17.3456 6.67187 17.3097 6.70793C17.2737 6.74398 17.231 6.7726 17.184 6.79216C17.137 6.81172 17.0867 6.82182 17.0357 6.82191C16.9848 6.82199 16.9344 6.81204 16.8874 6.79264C16.8403 6.77323 16.7975 6.74475 16.7615 6.70881L16.3672 6.31635L15.9097 8.25225L16.4992 8.83655Z" fill="#251B00"/>
<path d="M2.55713 14.6144H21.4463L12.0008 5.13373L2.55713 14.6144Z" fill="#66C05D"/>
</svg>
