<svg width="30" height="12" viewBox="0 0 30 12" fill="none" xmlns="http://www.w3.org/2000/svg">
<path d="M4.87871 0H3.28047C1.71028 0 0.378496 1.19534 0.378496 3.51591C0.378496 4.90808 1.02346 5.93467 2.17288 6.44096L0.0280799 10.3224C-0.0420415 10.4491 0.0280799 10.5473 0.140059 10.5473H1.13543C1.2196 10.5473 1.2757 10.5193 1.30376 10.4491L3.25241 6.63777H3.95348V10.4491C3.95348 10.4912 3.99555 10.5473 4.05142 10.5473H4.92078C5.00494 10.5473 5.03299 10.5052 5.03299 10.4351V0.140695C5.03299 0.042063 4.97689 0 4.87871 0ZM3.95348 5.73786H3.36463C2.43937 5.73786 1.54219 5.06278 1.54219 3.37521C1.54219 1.617 2.38326 0.899877 3.23838 0.899877H3.95348V5.73786Z" fill="#FF0303"/>
<path d="M10.1485 3.49646H9.27935C9.209 3.49646 9.16714 3.55257 9.16714 3.59463V6.28078H7.55465V3.59463C7.55465 3.52451 7.5268 3.49646 7.45668 3.49646H6.58732C6.51741 3.49646 6.47534 3.53855 6.47534 3.59463V10.4297C6.47534 10.4998 6.50339 10.5419 6.57328 10.5419H7.45668C7.51279 10.5419 7.55465 10.4998 7.55465 10.4297V7.16712H9.16714V10.4297C9.16714 10.4998 9.209 10.5419 9.27935 10.5419H10.1485C10.2186 10.5419 10.2464 10.4858 10.2464 10.4297V3.59463C10.2464 3.53855 10.2046 3.49646 10.1485 3.49646Z" fill="black"/>
<path d="M29.9949 10.0922L29.8826 9.61393C29.8689 9.57186 29.8548 9.55782 29.8126 9.55782C29.7427 9.55782 29.3641 9.7121 28.8174 9.7121C27.7518 9.7121 27.2332 8.68598 27.2332 7.05447C27.2332 5.61974 27.6678 4.19954 28.3965 4.19954C28.593 4.19954 28.8313 4.25567 29.2099 4.60766C29.252 4.6497 29.2801 4.66377 29.3217 4.66377C29.3641 4.66377 29.4063 4.63523 29.4482 4.56513L29.8267 3.94662C29.8548 3.90411 29.8689 3.86158 29.8689 3.81949C29.8689 3.76341 29.8126 3.72132 29.7285 3.67925C29.1538 3.3838 28.7612 3.3277 28.4246 3.3277C27.1069 3.3277 26.0835 4.90264 26.0835 7.36347C26.0835 9.48724 27.0648 10.7107 28.4667 10.7107C29.0558 10.7107 29.6866 10.4297 29.9389 10.2464C29.9949 10.2044 30.0088 10.1483 29.9949 10.0922Z" fill="black"/>
<path d="M23.9017 6.67442L25.5842 3.59463C25.6122 3.55257 25.5981 3.49646 25.542 3.49646H24.715C24.4764 3.49646 24.3923 3.58062 24.3085 3.76341L23.0463 6.39343C22.9764 6.54817 22.9063 6.64634 22.8361 6.6889V3.59463C22.8361 3.53855 22.8081 3.49646 22.752 3.49646H21.8408C21.7989 3.49646 21.7568 3.53855 21.7568 3.59463V10.4437C21.7568 10.4858 21.7849 10.5419 21.8408 10.5419H22.752C22.8081 10.5419 22.8361 10.4998 22.8361 10.4437V6.91374C22.8782 6.94181 22.9063 6.98388 22.9345 7.04043L24.5327 10.331C24.6168 10.4998 24.743 10.5419 24.9253 10.5419H25.8223C25.8786 10.5419 25.8925 10.4858 25.8647 10.4437L23.9017 6.67442Z" fill="black"/>
<path d="M15.8684 9.65601H15.7001C15.4897 9.65601 15.4339 9.57185 15.4339 9.40309V3.59463C15.4339 3.52451 15.4058 3.49646 15.3497 3.49646H12.5457C12.4758 3.49646 12.4335 3.53855 12.4335 3.59463V4.10093C12.4335 5.80256 12.3355 7.99645 11.4383 9.65601H11.1298C11.0456 9.65601 11.0176 9.69854 11.0176 9.76866C11.0176 9.76866 11.0176 11.4563 11.0176 11.8218C11.0176 11.8924 11.0737 11.92 11.1158 11.92H11.7888C11.9428 11.92 11.9989 11.8078 11.9989 11.7092V10.5419H14.9993V11.8218C14.9993 11.8779 15.0411 11.92 15.0972 11.92H15.8123C15.8963 11.92 15.9804 11.8499 15.9804 11.7092V9.76866C15.9804 9.69854 15.9383 9.65601 15.8684 9.65601ZM14.3541 9.65601H12.3215C13.0366 8.4326 13.3167 7.05446 13.4151 5.36683C13.4429 5.00128 13.4569 4.62124 13.4569 4.38231H14.3541V9.65601Z" fill="black"/>
<path d="M18.7284 3.3277C17.2145 3.3277 16.5415 5.24018 16.5415 7.32138C16.5415 9.44517 17.4948 10.7107 18.8967 10.7107C19.5835 10.7107 20.1866 10.4437 20.4949 10.2464C20.551 10.2184 20.5648 10.1763 20.5511 10.1202L20.4388 9.64198C20.4248 9.58588 20.3968 9.55782 20.3266 9.55782C20.2708 9.55782 19.864 9.7121 19.2892 9.7121C18.2097 9.7121 17.7049 8.77012 17.7049 7.53269C17.7049 7.36347 17.7049 7.19969 17.7049 7.19969C17.7049 7.19969 18.2517 7.26529 18.5741 7.26529H20.6212V6.67442C20.6212 4.49501 19.8498 3.3277 18.7284 3.3277ZM18.5741 6.37941C18.2517 6.37941 17.747 6.43552 17.747 6.43552C17.747 6.43552 17.747 6.2247 17.7751 5.99937C17.9011 4.80401 18.1956 4.19954 18.6863 4.19954C19.1351 4.19954 19.4154 4.81804 19.4856 5.90117C19.4993 6.12606 19.4993 6.37941 19.4993 6.37941H18.5741Z" fill="black"/>
</svg>
