<svg width="30" height="8" viewBox="0 0 30 8" fill="none" xmlns="http://www.w3.org/2000/svg">
<path d="M15.2794 3.21265C14.9997 3.21265 14.7275 3.45203 14.7225 3.73928C14.7174 4.04165 14.9871 4.22811 15.2617 4.22811C15.5414 4.22811 15.8136 3.98873 15.8186 3.69896C15.8236 3.39659 15.554 3.21265 15.2794 3.21265Z" fill="#010202"/>
<path d="M29.2413 6.13053C28.8911 5.4502 28.8105 4.54813 28.7399 3.7015C28.7046 3.32354 28.7349 2.90274 28.6089 2.40384C28.5509 2.18714 28.4778 2.0032 28.3367 1.84193C28.2032 1.68067 27.9689 1.5698 27.7648 1.57736C27.5833 1.57736 27.4397 1.63532 27.3213 1.70083C27.2029 1.76634 27.1021 1.84445 27.0088 1.92509C26.8803 2.03847 26.7795 2.16194 26.6964 2.28037C26.6208 2.3862 26.5578 2.49203 26.4847 2.60542C26.4747 2.51722 26.4646 2.43659 26.4545 2.3736C26.3991 2.0284 26.3184 1.57736 26.1748 1.1742C26.1017 0.972625 26.0135 0.778605 25.875 0.599704C25.8044 0.511513 25.7187 0.425842 25.6053 0.360329C25.492 0.292296 25.3483 0.246941 25.2022 0.246941C25.1669 0.246941 25.1291 0.24946 25.0938 0.2545C24.8167 0.299855 24.6604 0.44852 24.5269 0.589625C24.3304 0.808842 24.1767 1.07341 24.0355 1.34807C23.897 1.62272 23.7785 1.90745 23.6903 2.13926C23.1184 3.63599 22.9924 4.57837 22.69 5.84328C22.6295 6.10029 22.7858 6.35982 23.0377 6.42282C23.2922 6.48581 23.5492 6.32707 23.6097 6.06753C23.9247 4.74467 24.033 3.89552 24.5723 2.48447C24.6781 2.2073 24.8368 1.84193 24.9981 1.56224C25.0636 1.44634 25.1316 1.34807 25.1871 1.28003C25.1946 1.29263 25.2022 1.31027 25.2097 1.32539C25.3458 1.59248 25.4567 2.12918 25.5172 2.52478C25.5247 2.57518 25.5449 2.74652 25.5625 2.91786C25.5827 3.09424 25.6028 3.27315 25.6305 3.41425C25.6608 3.56795 25.691 3.70402 25.7414 3.84009C25.7666 3.90812 25.7968 3.97615 25.8573 4.0593C25.8876 4.10214 25.9279 4.14749 25.9959 4.19537C26.0614 4.24072 26.1572 4.28356 26.268 4.2886H26.2806H26.2932C26.452 4.28356 26.5276 4.22813 26.578 4.19789C26.6662 4.13238 26.6939 4.09206 26.7266 4.05174C26.8274 3.92072 26.9055 3.77205 26.9988 3.60575C27.0895 3.44449 27.1827 3.27315 27.2482 3.17488C27.3414 3.02873 27.412 2.91534 27.4674 2.83471C27.5254 2.75156 27.5682 2.70368 27.6287 2.65077C27.6463 2.63565 27.664 2.62053 27.6816 2.60542C27.6841 2.61801 27.6892 2.63061 27.6917 2.64573C27.7748 2.95818 27.7597 3.31598 27.795 3.78213C27.8681 4.62373 27.9336 5.64674 28.3972 6.56644C28.4804 6.73275 28.6467 6.8285 28.818 6.8285C28.8911 6.8285 28.9642 6.81086 29.0347 6.77558C29.269 6.65715 29.3598 6.36738 29.2413 6.13053Z" fill="#010202"/>
<path d="M22.2973 0.972623C22.0352 0.574505 21.6044 0.23686 21.05 0.181425C20.9996 0.176386 20.9492 0.173866 20.9013 0.173866C20.6342 0.173866 20.3898 0.244419 20.1706 0.340169C19.4071 0.672774 18.8805 1.28003 18.5705 1.98556C18.2581 2.6936 18.1422 3.49992 18.1396 4.31884C18.1396 4.84042 18.1875 5.36453 18.2707 5.87855C18.3085 6.11289 18.5101 6.28171 18.7368 6.28171C18.762 6.28171 18.7872 6.27919 18.815 6.27415C19.072 6.23132 19.2484 5.98438 19.2055 5.72233C19.1299 5.25618 19.0871 4.77995 19.0871 4.32136C19.0871 4.2382 19.0896 4.15505 19.0921 4.07442C19.3214 4.11978 19.581 4.16261 19.649 4.17269C19.8783 4.20545 20.0849 4.22057 20.284 4.22057C20.415 4.22057 20.5385 4.21301 20.6645 4.20293C21.0651 4.16765 21.4053 4.04166 21.6749 3.90056C21.9445 3.75945 22.1386 3.60323 22.262 3.4848C22.5896 3.16228 22.7005 2.72636 22.7005 2.30556C22.6954 1.84697 22.5644 1.37578 22.2973 0.972623ZM21.6044 2.78935C21.5514 2.84227 21.4154 2.95314 21.2365 3.04637C21.0576 3.14212 20.8333 3.22275 20.5838 3.24291C20.4805 3.25299 20.3823 3.25551 20.284 3.25551C20.1328 3.25551 19.9741 3.24543 19.7825 3.21771C19.7523 3.21267 19.5936 3.18747 19.4348 3.15976C19.3542 3.14464 19.2736 3.12952 19.2055 3.1144C19.261 2.84983 19.3391 2.60289 19.4373 2.38116C19.6792 1.84445 20.0219 1.45641 20.5486 1.22208C20.6796 1.16412 20.8056 1.13389 20.9039 1.13641C20.9215 1.13641 20.9391 1.13641 20.9543 1.13893C21.1836 1.16412 21.3625 1.29011 21.5162 1.51437C21.6648 1.7361 21.753 2.04603 21.753 2.30808C21.753 2.54998 21.6749 2.72636 21.6044 2.78935Z" fill="#010202"/>
<path d="M5.2964 2.81453C5.24601 2.34334 5.17042 1.88726 5.02175 1.47151C4.87309 1.06079 4.64127 0.67275 4.25323 0.420776C4.07937 0.307388 3.87275 0.244394 3.67369 0.246914C3.35368 0.249434 3.08407 0.3855 2.85982 0.561881C2.52469 0.828974 2.2576 1.20189 2.02578 1.61513C1.79901 2.02333 1.61255 2.47436 1.48656 2.90776C1.17915 3.76195 0.937256 4.68669 0.735677 5.58876C0.677723 5.84829 0.838986 6.10531 1.09348 6.16326C1.12876 6.17082 1.16403 6.17586 1.19931 6.17586C1.41601 6.17586 1.61003 6.02467 1.66042 5.80042C1.82168 5.07977 2.00814 4.35409 2.22988 3.67376C2.38863 3.70903 2.54485 3.72415 2.69603 3.73927C3.02108 3.76699 3.33605 3.76951 3.54015 3.80226C3.82488 3.84258 4.11717 3.90809 4.42709 3.93077C4.45985 4.51535 4.48505 5.10749 4.57324 5.63663C4.61103 5.87097 4.81261 6.03979 5.03939 6.03979C5.06459 6.03979 5.0923 6.03727 5.1175 6.03475C5.37451 5.9894 5.5509 5.74246 5.50806 5.48041C5.38711 4.76732 5.39215 3.75439 5.2964 2.81453ZM3.67873 2.85484C3.37132 2.80949 3.05384 2.80949 2.77414 2.78681C2.69099 2.78177 2.61288 2.77169 2.53981 2.75909C2.67839 2.40381 2.8573 2.04601 3.0488 1.76884C3.18234 1.5723 3.32345 1.41607 3.44188 1.32284C3.56282 1.22709 3.64345 1.20945 3.67369 1.20945C3.69385 1.21197 3.70645 1.21197 3.74676 1.23465C3.89291 1.32788 4.02394 1.50678 4.13228 1.80411C4.24315 2.10648 4.31119 2.51216 4.35906 2.96319C4.16504 2.93799 3.93322 2.89264 3.67873 2.85484Z" fill="#010202"/>
<path d="M12.5306 4.93869C12.5281 4.87318 12.5281 4.80515 12.5281 4.73711C12.5281 4.41963 12.5508 4.06182 12.5508 3.70906C12.5508 3.44953 12.5382 3.19251 12.4878 2.93802C12.4172 2.60289 12.3114 2.33076 12.1224 2.11659C11.9359 1.89989 11.6462 1.77894 11.3942 1.7865C11.0465 1.79154 10.7718 1.93768 10.5224 2.09643C10.2754 2.26021 10.0512 2.45675 9.8622 2.63565C9.84204 2.65581 9.82188 2.67597 9.80424 2.69361C9.80172 2.61045 9.80172 2.52478 9.80172 2.43911C9.80172 2.35344 9.80172 2.26777 9.80172 2.17958C9.80172 1.9276 9.7992 1.67311 9.75889 1.4161C9.71857 1.1616 9.63794 0.891993 9.44644 0.657657C9.37589 0.571986 9.2877 0.491354 9.17683 0.430881C9.06848 0.370407 8.93745 0.33765 8.81399 0.33765C8.61997 0.34017 8.46374 0.405683 8.33524 0.478756C8.08326 0.6249 7.88672 0.831519 7.71538 1.07089C7.21143 1.78146 6.88639 2.80951 6.64197 3.72922C6.58654 3.9434 6.51095 4.2382 6.44543 4.54813C6.38244 4.85806 6.327 5.17555 6.32449 5.47036C6.32197 5.73493 6.53362 5.95163 6.79568 5.95415C7.05773 5.95667 7.27191 5.74249 7.27191 5.4754C7.27191 5.30405 7.31222 5.02436 7.3727 4.74719C7.43065 4.4675 7.50372 4.18529 7.55916 3.97615C7.71034 3.39661 7.90436 2.77424 8.13114 2.27281C8.24453 2.02335 8.36547 1.80414 8.4839 1.63783C8.58469 1.49421 8.68548 1.39594 8.76359 1.34303C8.78627 1.39342 8.80895 1.46649 8.82407 1.56728C8.84926 1.72603 8.8543 1.9402 8.8543 2.17958C8.8543 2.26273 8.8543 2.3484 8.8543 2.43911C8.8543 2.82211 8.85934 3.25047 8.98029 3.68386C9.00297 3.76449 9.0458 3.8678 9.14659 3.96103C9.24486 4.05678 9.39605 4.10718 9.50943 4.10214C9.6455 4.09962 9.73117 4.0593 9.79668 4.02655C9.91007 3.96355 9.98062 3.90056 10.0512 3.83505C10.1545 3.73678 10.2502 3.62843 10.3309 3.53268C10.4115 3.43945 10.4871 3.3563 10.5073 3.33614C10.6736 3.17739 10.8625 3.01361 11.0339 2.90274C11.2027 2.78684 11.3539 2.74148 11.3917 2.74904C11.4043 2.74904 11.4043 2.74904 11.4043 2.74904C11.4043 2.74904 11.4043 2.74904 11.4093 2.75408C11.427 2.76668 11.5076 2.86999 11.558 3.13456C11.5882 3.28322 11.6008 3.4848 11.6008 3.71158C11.6008 4.02403 11.5781 4.37931 11.5781 4.73963C11.5781 4.81774 11.5781 4.89838 11.5832 4.97901C11.5958 5.34941 11.6109 5.62406 11.6588 6.0247C11.6865 6.26911 11.8906 6.44801 12.1274 6.44801C12.1476 6.44801 12.1652 6.44801 12.1854 6.44549C12.4449 6.41526 12.6289 6.17588 12.5986 5.91131C12.5558 5.53587 12.5457 5.30657 12.5306 4.93869Z" fill="#010202"/>
</svg>
