<svg width="16" height="16" viewBox="0 0 16 16" fill="none" xmlns="http://www.w3.org/2000/svg">
<path fill-rule="evenodd" clip-rule="evenodd" d="M15.0454 14.9965L11.4412 11.4119C13.9666 8.8709 14.0435 4.792 11.6158 2.15758C9.18805 -0.476852 5.11647 -0.732705 2.37805 1.57709C-0.360364 3.88688 -0.794626 7.94332 1.39279 10.7804C3.5802 13.6176 7.61367 14.2294 10.5441 12.1686L14.2184 15.843C14.449 16.0578 14.8082 16.0514 15.031 15.8286C15.2538 15.6058 15.2602 15.2466 15.0454 15.016V14.9965ZM1.27227 6.73112C1.27227 3.71517 3.71717 1.27027 6.73312 1.27027C9.74906 1.27027 12.194 3.71517 12.194 6.73112C12.194 9.74706 9.74906 12.192 6.73312 12.192C3.71717 12.192 1.27227 9.74706 1.27227 6.73112Z" fill="#9DA5B1" fill-opacity="0.5"/>
</svg>
