<svg width="6" height="9" viewBox="0 0 6 9" fill="none" xmlns="http://www.w3.org/2000/svg">
<path d="M3.18003 8.93049L5.61063 6.26388C5.6708 6.1898 5.68238 6.1088 5.64533 6.02082C5.60824 5.93294 5.54116 5.88882 5.44389 5.88882L3.88832 5.88882L3.88832 0.722217C3.88832 0.657371 3.86753 0.604104 3.82586 0.562487C3.78422 0.520894 3.73095 0.5 3.66616 0.5L2.33285 0.5C2.26808 0.5 2.21481 0.520796 2.17322 0.562462C2.13158 0.604176 2.11078 0.657444 2.11078 0.722193L2.11078 5.88887L0.555242 5.88887C0.462522 5.88887 0.395438 5.93306 0.353894 6.0209C0.316705 6.10895 0.330764 6.18994 0.395439 6.26403L2.85395 8.93063C2.90022 8.97692 2.95567 9 3.02054 9C3.08057 9 3.13374 8.97677 3.18003 8.93049Z" fill="#A3A7B1"/>
</svg>
