<svg width="15" height="14" viewBox="0 0 15 14" fill="none" xmlns="http://www.w3.org/2000/svg">
<path fill-rule="evenodd" clip-rule="evenodd" d="M7.32895 0C6.92123 0.000333994 6.5508 0.226689 6.37956 0.580123L4.56455 4.33425H1.04623C0.622995 4.33461 0.2416 4.5783 0.079686 4.95182C-0.0822283 5.32534 0.00717883 5.75524 0.306265 6.04128L3.04274 8.65517L2.1108 12.7894C2.02108 13.189 2.19494 13.6006 2.5499 13.8288C2.90487 14.0571 3.3695 14.0561 3.72336 13.8263L7.32546 11.4924L10.9206 13.8263C11.2632 14.0494 11.7115 14.0583 12.0636 13.849C12.4157 13.6397 12.6053 13.2516 12.5471 12.8594L11.9258 8.68517L14.6972 6.03795C14.9934 5.75203 15.0814 5.32447 14.9207 4.95269C14.76 4.58092 14.3818 4.33727 13.9607 4.33425H10.0933L8.27833 0.580123C8.1071 0.226689 7.73666 0.000333994 7.32895 0Z" fill="#F9D100"/>
</svg>
