<svg width="20" height="20" viewBox="0 0 20 20" fill="none" xmlns="http://www.w3.org/2000/svg">
<g clip-path="url(#clip0)">
<path d="M2.75531 8.24245L2.77405 8.21434L2.49358 8.2145C2.23626 8.21465 2.00413 8.05999 1.90516 7.82247C1.80649 7.58565 1.85952 7.31283 2.03952 7.13023C2.29356 6.89113 2.69002 6.8913 2.94387 7.13073C3.06391 7.24993 3.13122 7.41226 3.13072 7.58147V7.58192C3.13072 8.03523 3.4982 8.40271 3.95151 8.40271C4.40456 8.40271 4.77188 8.03564 4.7723 7.58269C4.7723 7.58243 4.7723 7.58217 4.7723 7.58192H4.6223M2.75531 8.24245L3.2563 5.1087M2.75531 8.24245C3.63339 8.33866 4.40007 8.90557 4.74318 9.7349C5.12115 10.6485 4.91033 11.6999 4.20934 12.3972L4.20902 12.3975C3.93843 12.6651 3.6088 12.8644 3.24737 12.98V13.6101C3.24737 14.0634 2.87989 14.4309 2.42658 14.4309C1.97328 14.4309 1.6058 14.0634 1.6058 13.6101V12.9429C0.580607 12.5584 -0.062111 11.5264 0.0548349 10.4285C0.10038 9.97587 0.504106 9.64571 0.956831 9.69098C1.40973 9.73627 1.74016 10.1401 1.69487 10.593M2.75531 8.24245L1.61474 5.49799C0.633532 5.90288 0.0580554 6.93859 0.243385 7.99337C0.434868 9.08317 1.38294 9.87697 2.48941 9.87397M4.6223 7.58192C4.62706 6.65312 4.02162 5.83133 3.13315 5.56061M4.6223 7.58192C4.6223 7.95238 4.32198 8.25271 3.95151 8.25271C3.58104 8.25271 3.28072 7.95238 3.28072 7.58192H4.6223ZM3.13315 5.56061L3.28288 5.55162L3.27679 5.45012C3.24387 5.43839 3.21056 5.42739 3.17687 5.41712L3.13315 5.56061ZM3.13315 5.56061L3.10632 5.11342M3.10632 5.11342H3.25632C3.25632 5.11184 3.25631 5.11027 3.2563 5.1087M3.10632 5.11342C3.10632 4.74295 2.80599 4.44263 2.43553 4.44263C2.06506 4.44263 1.76474 4.74295 1.76474 5.11342V5.60085L3.2563 5.1087M3.10632 5.11342L3.25605 5.10443L3.2563 5.1087M2.48941 9.87397C2.48932 9.87397 2.48924 9.87397 2.48916 9.87397L2.48919 9.72397L2.48961 9.87397C2.48954 9.87397 2.48948 9.87397 2.48941 9.87397ZM2.48941 9.87397C2.81929 9.87414 3.11509 10.0773 3.23369 10.3851C3.35232 10.693 3.26921 11.0422 3.02457 11.2637C2.77993 11.4851 2.42422 11.5332 2.12959 11.3846C1.83499 11.236 1.66221 10.9214 1.69487 10.593M1.69487 10.593C1.69487 10.593 1.69488 10.593 1.69488 10.593L1.54562 10.5781L1.69487 10.593Z" fill="#9DA5B1" stroke="#9DA5B1" stroke-width="0.3"/>
<mask id="path-2-outside-1" maskUnits="userSpaceOnUse" x="5.35303" y="-0.599976" width="12" height="17" fill="black">
<rect fill="white" x="5.35303" y="-0.599976" width="12" height="17"/>
<path fill-rule="evenodd" clip-rule="evenodd" d="M15.5786 5.08213C15.967 4.658 16.1852 4.10543 16.1913 3.53037C16.1913 1.71477 14.1208 0.400024 11.2721 0.400024C8.42353 0.400024 6.35303 1.71477 6.35303 3.53037C6.35428 4.11085 6.56193 4.67197 6.93885 5.11343C6.5651 5.5427 6.35729 6.09155 6.35303 6.66072C6.35428 7.2412 6.56193 7.80232 6.93885 8.24378C6.5651 8.67305 6.35729 9.2219 6.35303 9.79106C6.35428 10.3715 6.56193 10.9327 6.93885 11.3741C6.5651 11.8034 6.35729 12.3522 6.35303 12.9214C6.35303 14.737 8.31173 16.0518 11.1603 16.0518C14.009 16.0518 16.1913 14.737 16.1913 12.9214C16.1863 12.3381 15.9684 11.7767 15.5786 11.3428C15.967 10.9187 16.1852 10.3661 16.1913 9.79106C16.1863 9.20778 15.9684 8.64639 15.5786 8.21247C15.967 7.78835 16.1852 7.23578 16.1913 6.66072C16.1863 6.07743 15.9684 5.51604 15.5786 5.08213ZM14.8497 9.79106C14.8497 10.7794 13.137 11.5798 11.1604 11.5798C9.18379 11.5798 7.69464 10.7794 7.69464 9.79106C7.70321 9.52735 7.80823 9.27595 7.98978 9.0845C8.9723 9.57762 10.0614 9.82034 11.1604 9.79106C12.3218 9.81601 13.4717 9.55656 14.5098 9.03531C14.7165 9.23385 14.8383 9.50469 14.8497 9.79106ZM11.1604 6.66072C12.3218 6.68567 13.4717 6.42621 14.5098 5.90496C14.7165 6.1035 14.8383 6.37435 14.8497 6.66072C14.8497 7.64901 13.137 8.44948 11.1604 8.44948C9.18379 8.44948 7.69464 7.64901 7.69464 6.66072C7.70321 6.39701 7.80823 6.1456 7.98978 5.95415C8.9723 6.44728 10.0614 6.68999 11.1604 6.66072ZM11.2722 1.7416C13.2488 1.7416 14.8497 2.54208 14.8497 3.53037C14.8497 4.51867 13.137 5.31914 11.1604 5.31914C9.18379 5.31914 7.69464 4.51867 7.69464 3.53037C7.69464 2.54208 9.29559 1.7416 11.2722 1.7416ZM11.1604 14.7102C9.18379 14.7102 7.69464 13.9097 7.69464 12.9214C7.70321 12.6577 7.80823 12.4063 7.98978 12.2148C8.9723 12.708 10.0614 12.9507 11.1604 12.9214C12.3218 12.9464 13.4717 12.6869 14.5098 12.1657C14.7165 12.3642 14.8383 12.635 14.8497 12.9214C14.8497 13.9097 13.137 14.7102 11.1604 14.7102Z"/>
</mask>
<path fill-rule="evenodd" clip-rule="evenodd" d="M15.5786 5.08213C15.967 4.658 16.1852 4.10543 16.1913 3.53037C16.1913 1.71477 14.1208 0.400024 11.2721 0.400024C8.42353 0.400024 6.35303 1.71477 6.35303 3.53037C6.35428 4.11085 6.56193 4.67197 6.93885 5.11343C6.5651 5.5427 6.35729 6.09155 6.35303 6.66072C6.35428 7.2412 6.56193 7.80232 6.93885 8.24378C6.5651 8.67305 6.35729 9.2219 6.35303 9.79106C6.35428 10.3715 6.56193 10.9327 6.93885 11.3741C6.5651 11.8034 6.35729 12.3522 6.35303 12.9214C6.35303 14.737 8.31173 16.0518 11.1603 16.0518C14.009 16.0518 16.1913 14.737 16.1913 12.9214C16.1863 12.3381 15.9684 11.7767 15.5786 11.3428C15.967 10.9187 16.1852 10.3661 16.1913 9.79106C16.1863 9.20778 15.9684 8.64639 15.5786 8.21247C15.967 7.78835 16.1852 7.23578 16.1913 6.66072C16.1863 6.07743 15.9684 5.51604 15.5786 5.08213ZM14.8497 9.79106C14.8497 10.7794 13.137 11.5798 11.1604 11.5798C9.18379 11.5798 7.69464 10.7794 7.69464 9.79106C7.70321 9.52735 7.80823 9.27595 7.98978 9.0845C8.9723 9.57762 10.0614 9.82034 11.1604 9.79106C12.3218 9.81601 13.4717 9.55656 14.5098 9.03531C14.7165 9.23385 14.8383 9.50469 14.8497 9.79106ZM11.1604 6.66072C12.3218 6.68567 13.4717 6.42621 14.5098 5.90496C14.7165 6.1035 14.8383 6.37435 14.8497 6.66072C14.8497 7.64901 13.137 8.44948 11.1604 8.44948C9.18379 8.44948 7.69464 7.64901 7.69464 6.66072C7.70321 6.39701 7.80823 6.1456 7.98978 5.95415C8.9723 6.44728 10.0614 6.68999 11.1604 6.66072ZM11.2722 1.7416C13.2488 1.7416 14.8497 2.54208 14.8497 3.53037C14.8497 4.51867 13.137 5.31914 11.1604 5.31914C9.18379 5.31914 7.69464 4.51867 7.69464 3.53037C7.69464 2.54208 9.29559 1.7416 11.2722 1.7416ZM11.1604 14.7102C9.18379 14.7102 7.69464 13.9097 7.69464 12.9214C7.70321 12.6577 7.80823 12.4063 7.98978 12.2148C8.9723 12.708 10.0614 12.9507 11.1604 12.9214C12.3218 12.9464 13.4717 12.6869 14.5098 12.1657C14.7165 12.3642 14.8383 12.635 14.8497 12.9214C14.8497 13.9097 13.137 14.7102 11.1604 14.7102Z" fill="#9DA5B1"/>
<path d="M16.1913 3.53037L16.4913 3.53355V3.53037H16.1913ZM6.35303 3.53037H6.05303L6.05303 3.53102L6.35303 3.53037ZM6.93885 5.11343L7.16511 5.31043L7.33496 5.11535L7.167 4.91863L6.93885 5.11343ZM6.35303 6.66072L6.05302 6.65847L6.05303 6.66136L6.35303 6.66072ZM6.93885 8.24378L7.16511 8.44077L7.33496 8.24569L7.167 8.04898L6.93885 8.24378ZM6.35303 9.79106L6.05302 9.78881L6.05303 9.79171L6.35303 9.79106ZM6.93885 11.3741L7.16511 11.5711L7.33496 11.376L7.167 11.1793L6.93885 11.3741ZM6.35303 12.9214L6.05303 12.9192V12.9214H6.35303ZM16.1913 12.9214H16.4913L16.4912 12.9189L16.1913 12.9214ZM15.5786 11.3428L15.3574 11.1402L15.1736 11.3409L15.3554 11.5433L15.5786 11.3428ZM16.1913 9.79106L16.4913 9.79424L16.4912 9.78852L16.1913 9.79106ZM15.5786 8.21247L15.3574 8.00987L15.1736 8.21055L15.3554 8.41296L15.5786 8.21247ZM16.1913 6.66072L16.4913 6.6639L16.4912 6.65817L16.1913 6.66072ZM7.69464 9.79106L7.39464 9.78131V9.79106H7.69464ZM7.98978 9.0845L8.12436 8.81637L7.92533 8.71648L7.7721 8.87807L7.98978 9.0845ZM11.1604 9.79106L11.1668 9.49113L11.1596 9.49098L11.1524 9.49117L11.1604 9.79106ZM14.5098 9.03531L14.7177 8.81896L14.5647 8.67205L14.3752 8.7672L14.5098 9.03531ZM14.5098 5.90496L14.7177 5.68861L14.5647 5.54171L14.3752 5.63686L14.5098 5.90496ZM14.8497 6.66072H15.15L15.1495 6.6488L14.8497 6.66072ZM7.69464 6.66072L7.39464 6.65096V6.66072H7.69464ZM7.98978 5.95415L8.12436 5.68603L7.92533 5.58614L7.7721 5.74772L7.98978 5.95415ZM7.69464 12.9214L7.39464 12.9117V12.9214H7.69464ZM7.98978 12.2148L8.12436 11.9467L7.92533 11.8468L7.7721 12.0084L7.98978 12.2148ZM11.1604 12.9214L11.1668 12.6215L11.1596 12.6213L11.1524 12.6215L11.1604 12.9214ZM14.5098 12.1657L14.7177 11.9493L14.5647 11.8024L14.3752 11.8975L14.5098 12.1657ZM14.8497 12.9214H15.15L15.1495 12.9095L14.8497 12.9214ZM15.7999 5.28473C16.2382 4.8061 16.4844 4.18252 16.4912 3.53355L15.8913 3.52719C15.886 4.02834 15.6958 4.5099 15.3574 4.87952L15.7999 5.28473ZM16.4913 3.53037C16.4913 2.49401 15.8967 1.62635 14.9609 1.0312C14.028 0.437892 12.7387 0.100024 11.2721 0.100024V0.700024C12.6542 0.700024 13.8245 1.01953 14.6389 1.53749C15.4505 2.05362 15.8913 2.75113 15.8913 3.53037H16.4913ZM11.2721 0.100024C9.8056 0.100024 8.51631 0.437892 7.58337 1.0312C6.64754 1.62635 6.05303 2.49401 6.05303 3.53037H6.65303C6.65303 2.75113 7.09377 2.05362 7.90534 1.53749C8.71981 1.01953 9.89007 0.700024 11.2721 0.700024V0.100024ZM6.05303 3.53102C6.05444 4.18269 6.28755 4.81262 6.7107 5.30823L7.167 4.91863C6.83631 4.53131 6.65413 4.03901 6.65303 3.52972L6.05303 3.53102ZM6.71259 4.91644C6.2918 5.39974 6.05784 6.01767 6.05304 6.65847L6.65302 6.66297C6.65675 6.16544 6.8384 5.68567 7.16511 5.31043L6.71259 4.91644ZM6.05303 6.66136C6.05444 7.31304 6.28755 7.94297 6.7107 8.43858L7.167 8.04898C6.83631 7.66166 6.65413 7.16936 6.65303 6.66007L6.05303 6.66136ZM6.71259 8.04678C6.2918 8.53008 6.05784 9.14801 6.05304 9.78881L6.65302 9.79331C6.65675 9.29578 6.8384 8.81602 7.16511 8.44077L6.71259 8.04678ZM6.05303 9.79171C6.05444 10.4434 6.28755 11.0733 6.7107 11.5689L7.167 11.1793C6.83631 10.792 6.65413 10.2997 6.65303 9.79041L6.05303 9.79171ZM6.71259 11.1771C6.2918 11.6604 6.05784 12.2784 6.05304 12.9192L6.65302 12.9237C6.65675 12.4261 6.8384 11.9464 7.16511 11.5711L6.71259 11.1771ZM6.05303 12.9214C6.05303 13.9509 6.61241 14.8194 7.52373 15.4182C8.43043 16.0138 9.69375 16.3518 11.1603 16.3518V15.7518C9.77832 15.7518 8.63799 15.4323 7.85318 14.9167C7.073 14.4041 6.65303 13.7075 6.65303 12.9214H6.05303ZM11.1603 16.3518C12.6268 16.3518 13.9422 16.0139 14.9014 15.4228C15.8615 14.8312 16.4913 13.9644 16.4913 12.9214H15.8913C15.8913 13.694 15.4298 14.3924 14.5866 14.912C13.7426 15.4322 12.5425 15.7518 11.1603 15.7518V16.3518ZM16.4912 12.9189C16.4857 12.2624 16.2405 11.6307 15.8018 11.1423L15.3554 11.5433C15.6964 11.9228 15.8869 12.4138 15.8913 12.924L16.4912 12.9189ZM15.7999 11.5454C16.2382 11.0668 16.4844 10.4432 16.4912 9.79424L15.8913 9.78788C15.886 10.289 15.6958 10.7706 15.3574 11.1402L15.7999 11.5454ZM16.4912 9.78852C16.4857 9.13209 16.2405 8.50031 15.8018 8.01198L15.3554 8.41296C15.6964 8.79247 15.8869 9.28346 15.8913 9.79361L16.4912 9.78852ZM15.7999 8.41508C16.2382 7.93645 16.4844 7.31286 16.4912 6.6639L15.8913 6.65753C15.886 7.15869 15.6958 7.64025 15.3574 8.00987L15.7999 8.41508ZM16.4912 6.65817C16.4857 6.00174 16.2405 5.36996 15.8018 4.88164L15.3554 5.28262C15.6964 5.66213 15.8869 6.15312 15.8913 6.66326L16.4912 6.65817ZM14.5497 9.79106C14.5497 10.1013 14.2685 10.4731 13.6166 10.7855C12.9889 11.0864 12.1124 11.2798 11.1604 11.2798V11.8798C12.185 11.8798 13.1531 11.673 13.8759 11.3266C14.5746 10.9917 15.1497 10.4691 15.1497 9.79106H14.5497ZM11.1604 11.2798C10.2086 11.2798 9.39227 11.0865 8.82523 10.7902C8.24634 10.4877 7.99464 10.1201 7.99464 9.79106H7.39464C7.39464 10.4503 7.88751 10.9771 8.54734 11.3219C9.21902 11.6729 10.1356 11.8798 11.1604 11.8798V11.2798ZM7.99448 9.80081C8.00067 9.61051 8.07645 9.42909 8.20747 9.29093L7.7721 8.87807C7.54001 9.12281 7.40576 9.44419 7.3948 9.78131L7.99448 9.80081ZM7.85521 9.35262C8.88191 9.86792 10.02 10.1215 11.1684 10.091L11.1524 9.49117C10.1029 9.51913 9.0627 9.28732 8.12436 8.81637L7.85521 9.35262ZM11.1539 10.091C12.3643 10.117 13.5626 9.84661 14.6445 9.30341L14.3752 8.7672C13.3808 9.2665 12.2793 9.51503 11.1668 9.49113L11.1539 10.091ZM14.302 9.25166C14.4528 9.39649 14.5416 9.59407 14.55 9.80298L15.1495 9.77915C15.135 9.41531 14.9803 9.0712 14.7177 8.81896L14.302 9.25166ZM11.1539 6.96065C12.3643 6.98665 13.5626 6.71627 14.6445 6.17306L14.3752 5.63686C13.3808 6.13616 12.2793 6.38468 11.1668 6.36078L11.1539 6.96065ZM14.302 6.12131C14.4528 6.26615 14.5416 6.46373 14.55 6.67263L15.1495 6.6488C15.135 6.28497 14.9803 5.94086 14.7177 5.68861L14.302 6.12131ZM14.5497 6.66072C14.5497 6.971 14.2685 7.34272 13.6166 7.65518C12.9889 7.95605 12.1124 8.14948 11.1604 8.14948V8.74948C12.185 8.74948 13.1531 8.54268 13.8759 8.19624C14.5746 7.86139 15.1497 7.33873 15.1497 6.66072H14.5497ZM11.1604 8.14948C10.2086 8.14948 9.39227 7.95614 8.82523 7.65982C8.24634 7.35732 7.99464 6.98977 7.99464 6.66072H7.39464C7.39464 7.31996 7.88751 7.84679 8.54734 8.1916C9.21902 8.54259 10.1356 8.74948 11.1604 8.74948V8.14948ZM7.99448 6.67047C8.00067 6.48016 8.07645 6.29874 8.20747 6.16058L7.7721 5.74772C7.54001 5.99247 7.40576 6.31385 7.3948 6.65096L7.99448 6.67047ZM7.85521 6.22228C8.88191 6.73757 10.02 6.9912 11.1684 6.96061L11.1524 6.36082C10.1029 6.38878 9.0627 6.15698 8.12436 5.68603L7.85521 6.22228ZM11.2722 2.0416C12.224 2.0416 13.0706 2.23498 13.668 2.5337C14.2833 2.84136 14.5497 3.211 14.5497 3.53037H15.1497C15.1497 2.86145 14.6156 2.3367 13.9363 1.99705C13.2392 1.64846 12.2969 1.4416 11.2722 1.4416V2.0416ZM14.5497 3.53037C14.5497 3.84065 14.2685 4.21238 13.6166 4.52484C12.9889 4.8257 12.1124 5.01914 11.1604 5.01914V5.61914C12.185 5.61914 13.1531 5.41234 13.8759 5.0659C14.5746 4.73104 15.1497 4.20838 15.1497 3.53037H14.5497ZM11.1604 5.01914C10.2086 5.01914 9.39227 4.8258 8.82523 4.52948C8.24634 4.22697 7.99464 3.85942 7.99464 3.53037H7.39464C7.39464 4.18961 7.88751 4.71645 8.54734 5.06125C9.21902 5.41225 10.1356 5.61914 11.1604 5.61914V5.01914ZM7.99464 3.53037C7.99464 3.211 8.26104 2.84136 8.87635 2.5337C9.4738 2.23498 10.3203 2.0416 11.2722 2.0416V1.4416C10.2474 1.4416 9.3052 1.64846 8.60802 1.99705C7.92871 2.3367 7.39464 2.86145 7.39464 3.53037H7.99464ZM11.1604 14.4102C10.2086 14.4102 9.39227 14.2168 8.82523 13.9205C8.24634 13.618 7.99464 13.2505 7.99464 12.9214H7.39464C7.39464 13.5807 7.88751 14.1075 8.54734 14.4523C9.21902 14.8033 10.1356 15.0102 11.1604 15.0102V14.4102ZM7.99448 12.9312C8.00067 12.7409 8.07645 12.5594 8.20747 12.4213L7.7721 12.0084C7.54001 12.2532 7.40576 12.5745 7.3948 12.9117L7.99448 12.9312ZM7.85521 12.483C8.88191 12.9983 10.02 13.2519 11.1684 13.2213L11.1524 12.6215C10.1029 12.6495 9.0627 12.4177 8.12436 11.9467L7.85521 12.483ZM11.1539 13.2213C12.3643 13.2473 13.5626 12.977 14.6445 12.4338L14.3752 11.8975C13.3808 12.3968 12.2793 12.6454 11.1668 12.6215L11.1539 13.2213ZM14.302 12.382C14.4528 12.5268 14.5416 12.7244 14.55 12.9333L15.1495 12.9095C15.135 12.5457 14.9803 12.2015 14.7177 11.9493L14.302 12.382ZM14.5497 12.9214C14.5497 13.2317 14.2685 13.6034 13.6166 13.9159C12.9889 14.2167 12.1124 14.4102 11.1604 14.4102V15.0102C12.185 15.0102 13.1531 14.8034 13.8759 14.4569C14.5746 14.1221 15.1497 13.5994 15.1497 12.9214H14.5497Z" fill="#9DA5B1" mask="url(#path-2-outside-1)"/>
</g>
<defs>
<clipPath id="clip0">
<rect width="20" height="20" fill="white"/>
</clipPath>
</defs>
</svg>
