<svg width="18" height="18" viewBox="0 0 18 18" fill="none" xmlns="http://www.w3.org/2000/svg">
<mask id="path-1-outside-1" maskUnits="userSpaceOnUse" x="5.09814" y="5.09094" width="8" height="8" fill="black">
<rect fill="white" x="5.09814" y="5.09094" width="8" height="8"/>
<path fill-rule="evenodd" clip-rule="evenodd" d="M9.00724 6.09094C7.40059 6.09094 6.09814 7.39339 6.09814 9.00003C6.09814 10.6067 7.40059 11.9091 9.00724 11.9091C10.6139 11.9091 11.9163 10.6067 11.9163 9.00003C11.9163 7.39339 10.6139 6.09094 9.00724 6.09094ZM9.00715 10.8182C8.00299 10.8182 7.18896 10.0042 7.18896 9.00002C7.18896 7.99586 8.00299 7.18184 9.00715 7.18184C10.0113 7.18184 10.8253 7.99586 10.8253 9.00002C10.8253 10.0042 10.0113 10.8182 9.00715 10.8182Z"/>
</mask>
<path fill-rule="evenodd" clip-rule="evenodd" d="M9.00724 6.09094C7.40059 6.09094 6.09814 7.39339 6.09814 9.00003C6.09814 10.6067 7.40059 11.9091 9.00724 11.9091C10.6139 11.9091 11.9163 10.6067 11.9163 9.00003C11.9163 7.39339 10.6139 6.09094 9.00724 6.09094ZM9.00715 10.8182C8.00299 10.8182 7.18896 10.0042 7.18896 9.00002C7.18896 7.99586 8.00299 7.18184 9.00715 7.18184C10.0113 7.18184 10.8253 7.99586 10.8253 9.00002C10.8253 10.0042 10.0113 10.8182 9.00715 10.8182Z" fill="#9DA5B1"/>
<path d="M9.00724 5.79094C7.2349 5.79094 5.79814 7.2277 5.79814 9.00003H6.39814C6.39814 7.55907 7.56627 6.39094 9.00724 6.39094V5.79094ZM5.79814 9.00003C5.79814 10.7724 7.2349 12.2091 9.00724 12.2091V11.6091C7.56627 11.6091 6.39814 10.441 6.39814 9.00003H5.79814ZM9.00724 12.2091C10.7796 12.2091 12.2163 10.7724 12.2163 9.00003H11.6163C11.6163 10.441 10.4482 11.6091 9.00724 11.6091V12.2091ZM12.2163 9.00003C12.2163 7.2277 10.7796 5.79094 9.00724 5.79094V6.39094C10.4482 6.39094 11.6163 7.55907 11.6163 9.00003H12.2163ZM9.00715 10.5182C8.16868 10.5182 7.48896 9.83849 7.48896 9.00002H6.88896C6.88896 10.1699 7.83731 11.1182 9.00715 11.1182V10.5182ZM7.48896 9.00002C7.48896 8.16155 8.16868 7.48184 9.00715 7.48184V6.88184C7.83731 6.88184 6.88896 7.83018 6.88896 9.00002H7.48896ZM9.00715 7.48184C9.84562 7.48184 10.5253 8.16155 10.5253 9.00002H11.1253C11.1253 7.83018 10.177 6.88184 9.00715 6.88184V7.48184ZM10.5253 9.00002C10.5253 9.83849 9.84562 10.5182 9.00715 10.5182V11.1182C10.177 11.1182 11.1253 10.1699 11.1253 9.00002H10.5253Z" fill="#9DA5B1" mask="url(#path-1-outside-1)"/>
<mask id="path-3-outside-2" maskUnits="userSpaceOnUse" x="0" y="0" width="18" height="18" fill="black">
<rect fill="white" width="18" height="18"/>
<path fill-rule="evenodd" clip-rule="evenodd" d="M15.9164 6.81818H14.7891C14.743 6.69455 14.6921 6.57333 14.6364 6.45455L15.4327 5.65818C15.8581 5.23227 15.8581 4.54228 15.4327 4.11636L13.8909 2.57455C13.465 2.14916 12.775 2.14916 12.3491 2.57455L11.5527 3.37091C11.4339 3.31758 11.3127 3.26667 11.1891 3.21818V2.09091C11.1891 1.48842 10.7007 1 10.0982 1H7.91636C7.31387 1 6.82545 1.48842 6.82545 2.09091V3.21818C6.70182 3.26424 6.58061 3.31515 6.46182 3.37091L5.66545 2.57455C5.23954 2.14916 4.54955 2.14916 4.12364 2.57455L2.58182 4.11636C2.15643 4.54228 2.15643 5.23227 2.58182 5.65818L3.37091 6.45455C3.31758 6.57333 3.26667 6.69455 3.21818 6.81818H2.09091C1.48842 6.81818 1 7.3066 1 7.90909V10.0909C1 10.6934 1.48842 11.1818 2.09091 11.1818H3.21818C3.26424 11.3055 3.31515 11.4267 3.37091 11.5455L2.57455 12.3418C2.14916 12.7677 2.14916 13.4577 2.57455 13.8836L4.11636 15.4255C4.54228 15.8508 5.23227 15.8508 5.65818 15.4255L6.45455 14.6291C6.57333 14.6824 6.69455 14.7333 6.81818 14.7818V15.9091C6.81818 16.5116 7.3066 17 7.90909 17H10.0909C10.6934 17 11.1818 16.5116 11.1818 15.9091V14.7818C11.3055 14.7358 11.4267 14.6848 11.5455 14.6291L12.3418 15.4255C12.7677 15.8508 13.4577 15.8508 13.8836 15.4255L15.4255 13.8836C15.8508 13.4577 15.8508 12.7677 15.4255 12.3418L14.6436 11.5455C14.697 11.4267 14.7479 11.3055 14.7964 11.1818H15.9236C16.5261 11.1818 17.0145 10.6934 17.0145 10.0909V7.90909C17.0146 7.6185 16.8986 7.33991 16.6925 7.13512C16.4863 6.93032 16.2069 6.81624 15.9164 6.81818ZM15.9163 10.0909H13.9781C13.849 10.6777 13.6163 11.2367 13.2909 11.7418L14.6618 13.1127L13.12 14.6546L11.7345 13.2836C11.2294 13.609 10.6704 13.8418 10.0836 13.9709V15.9091H7.90178V13.9709C7.315 13.8418 6.75595 13.609 6.25087 13.2836L4.87996 14.6546L3.33814 13.1127L4.70905 11.7418C4.38366 11.2367 4.15093 10.6777 4.02178 10.0909H2.09814V7.9091H4.03633C4.16548 7.32232 4.39821 6.76327 4.7236 6.25819L3.35269 4.88728L4.89451 3.34546L6.26542 4.71637C6.7705 4.39098 7.32955 4.15825 7.91633 4.0291V2.09092H10.0981V4.0291C10.6849 4.15825 11.244 4.39098 11.7491 4.71637L13.12 3.34546L14.6618 4.88728L13.2909 6.25819C13.6163 6.76327 13.849 7.32232 13.9781 7.9091H15.9163V10.0909Z"/>
</mask>
<path fill-rule="evenodd" clip-rule="evenodd" d="M15.9164 6.81818H14.7891C14.743 6.69455 14.6921 6.57333 14.6364 6.45455L15.4327 5.65818C15.8581 5.23227 15.8581 4.54228 15.4327 4.11636L13.8909 2.57455C13.465 2.14916 12.775 2.14916 12.3491 2.57455L11.5527 3.37091C11.4339 3.31758 11.3127 3.26667 11.1891 3.21818V2.09091C11.1891 1.48842 10.7007 1 10.0982 1H7.91636C7.31387 1 6.82545 1.48842 6.82545 2.09091V3.21818C6.70182 3.26424 6.58061 3.31515 6.46182 3.37091L5.66545 2.57455C5.23954 2.14916 4.54955 2.14916 4.12364 2.57455L2.58182 4.11636C2.15643 4.54228 2.15643 5.23227 2.58182 5.65818L3.37091 6.45455C3.31758 6.57333 3.26667 6.69455 3.21818 6.81818H2.09091C1.48842 6.81818 1 7.3066 1 7.90909V10.0909C1 10.6934 1.48842 11.1818 2.09091 11.1818H3.21818C3.26424 11.3055 3.31515 11.4267 3.37091 11.5455L2.57455 12.3418C2.14916 12.7677 2.14916 13.4577 2.57455 13.8836L4.11636 15.4255C4.54228 15.8508 5.23227 15.8508 5.65818 15.4255L6.45455 14.6291C6.57333 14.6824 6.69455 14.7333 6.81818 14.7818V15.9091C6.81818 16.5116 7.3066 17 7.90909 17H10.0909C10.6934 17 11.1818 16.5116 11.1818 15.9091V14.7818C11.3055 14.7358 11.4267 14.6848 11.5455 14.6291L12.3418 15.4255C12.7677 15.8508 13.4577 15.8508 13.8836 15.4255L15.4255 13.8836C15.8508 13.4577 15.8508 12.7677 15.4255 12.3418L14.6436 11.5455C14.697 11.4267 14.7479 11.3055 14.7964 11.1818H15.9236C16.5261 11.1818 17.0145 10.6934 17.0145 10.0909V7.90909C17.0146 7.6185 16.8986 7.33991 16.6925 7.13512C16.4863 6.93032 16.2069 6.81624 15.9164 6.81818ZM15.9163 10.0909H13.9781C13.849 10.6777 13.6163 11.2367 13.2909 11.7418L14.6618 13.1127L13.12 14.6546L11.7345 13.2836C11.2294 13.609 10.6704 13.8418 10.0836 13.9709V15.9091H7.90178V13.9709C7.315 13.8418 6.75595 13.609 6.25087 13.2836L4.87996 14.6546L3.33814 13.1127L4.70905 11.7418C4.38366 11.2367 4.15093 10.6777 4.02178 10.0909H2.09814V7.9091H4.03633C4.16548 7.32232 4.39821 6.76327 4.7236 6.25819L3.35269 4.88728L4.89451 3.34546L6.26542 4.71637C6.7705 4.39098 7.32955 4.15825 7.91633 4.0291V2.09092H10.0981V4.0291C10.6849 4.15825 11.244 4.39098 11.7491 4.71637L13.12 3.34546L14.6618 4.88728L13.2909 6.25819C13.6163 6.76327 13.849 7.32232 13.9781 7.9091H15.9163V10.0909Z" fill="#9DA5B1"/>
<path d="M15.9164 6.81818V7.11819L15.9184 7.11818L15.9164 6.81818ZM14.7891 6.81818L14.508 6.92291L14.5807 7.11818H14.7891V6.81818ZM14.6364 6.45455L14.4242 6.24241L14.2753 6.39135L14.3648 6.58202L14.6364 6.45455ZM15.4327 5.65818L15.6449 5.87031L15.645 5.87018L15.4327 5.65818ZM15.4327 4.11636L15.645 3.90436L15.6449 3.90423L15.4327 4.11636ZM13.8909 2.57455L14.103 2.36241L14.1029 2.36228L13.8909 2.57455ZM12.3491 2.57455L12.1371 2.36228L12.137 2.36241L12.3491 2.57455ZM11.5527 3.37091L11.4298 3.64459L11.6186 3.72932L11.7649 3.58304L11.5527 3.37091ZM11.1891 3.21818H10.8891V3.42278L11.0796 3.49747L11.1891 3.21818ZM11.1891 2.09091H11.4891H11.1891ZM6.82545 3.21818L6.93019 3.49931L7.12545 3.42656V3.21818H6.82545ZM6.46182 3.37091L6.24969 3.58304L6.39862 3.73198L6.58929 3.64248L6.46182 3.37091ZM5.66545 2.57455L5.87759 2.36241L5.87745 2.36228L5.66545 2.57455ZM4.12364 2.57455L3.91164 2.36228L3.9115 2.36241L4.12364 2.57455ZM2.58182 4.11636L2.36969 3.90423L2.36955 3.90436L2.58182 4.11636ZM2.58182 5.65818L2.79492 5.44702L2.79408 5.44618L2.58182 5.65818ZM3.37091 6.45455L3.64459 6.57742L3.72891 6.38962L3.58401 6.24339L3.37091 6.45455ZM3.21818 6.81818V7.11818H3.42278L3.49747 6.92771L3.21818 6.81818ZM3.21818 11.1818L3.49931 11.0771L3.42656 10.8818H3.21818V11.1818ZM3.37091 11.5455L3.58304 11.7576L3.73198 11.6087L3.64248 11.418L3.37091 11.5455ZM2.57455 12.3418L2.36241 12.1297L2.36228 12.1298L2.57455 12.3418ZM2.57455 13.8836L2.36228 14.0956L2.36241 14.0958L2.57455 13.8836ZM4.11636 15.4255L3.90423 15.6376L3.90436 15.6377L4.11636 15.4255ZM5.65818 15.4255L5.87018 15.6377L5.87031 15.6376L5.65818 15.4255ZM6.45455 14.6291L6.57742 14.3554L6.3887 14.2707L6.24241 14.417L6.45455 14.6291ZM6.81818 14.7818H7.11818V14.5772L6.92771 14.5025L6.81818 14.7818ZM6.81818 15.9091H7.11818H6.81818ZM11.1818 14.7818L11.0771 14.5007L10.8818 14.5734V14.7818H11.1818ZM11.5455 14.6291L11.7576 14.417L11.6086 14.268L11.418 14.3575L11.5455 14.6291ZM12.3418 15.4255L12.1297 15.6376L12.1298 15.6377L12.3418 15.4255ZM13.8836 15.4255L14.0956 15.6377L14.0958 15.6376L13.8836 15.4255ZM15.4255 13.8836L15.6376 14.0958L15.6377 14.0956L15.4255 13.8836ZM15.4255 12.3418L15.2114 12.552L15.2132 12.5538L15.4255 12.3418ZM14.6436 11.5455L14.37 11.4226L14.2861 11.6094L14.4296 11.7556L14.6436 11.5455ZM14.7964 11.1818V10.8818H14.5918L14.5171 11.0723L14.7964 11.1818ZM17.0145 7.90909L16.7145 7.90908V7.90909H17.0145ZM15.9163 10.0909V10.3909H16.2163V10.0909H15.9163ZM13.9781 10.0909V9.79092H13.737L13.6852 10.0264L13.9781 10.0909ZM13.2909 11.7418L13.0387 11.5794L12.9076 11.7828L13.0787 11.954L13.2909 11.7418ZM14.6618 13.1127L14.8739 13.3249L15.086 13.1127L14.8739 12.9006L14.6618 13.1127ZM13.12 14.6546L12.909 14.8678L13.1211 15.0777L13.3321 14.8667L13.12 14.6546ZM11.7345 13.2836L11.9455 13.0704L11.7744 12.9011L11.572 13.0315L11.7345 13.2836ZM10.0836 13.9709L10.0191 13.6779L9.7836 13.7298V13.9709H10.0836ZM10.0836 15.9091V16.2091H10.3836V15.9091H10.0836ZM7.90178 15.9091H7.60178V16.2091H7.90178V15.9091ZM7.90178 13.9709H8.20178V13.7298L7.96627 13.6779L7.90178 13.9709ZM6.25087 13.2836L6.41334 13.0315L6.20988 12.9004L6.03874 13.0715L6.25087 13.2836ZM4.87996 14.6546L4.66783 14.8667L4.87996 15.0788L5.09209 14.8667L4.87996 14.6546ZM3.33814 13.1127L3.12601 12.9006L2.91388 13.1127L3.12601 13.3249L3.33814 13.1127ZM4.70905 11.7418L4.92119 11.954L5.09233 11.7828L4.96125 11.5794L4.70905 11.7418ZM4.02178 10.0909L4.31477 10.0264L4.26293 9.79092H4.02178V10.0909ZM2.09814 10.0909H1.79814V10.3909H2.09814V10.0909ZM2.09814 7.9091V7.6091H1.79814V7.9091H2.09814ZM4.03633 7.9091V8.2091H4.27748L4.32931 7.97359L4.03633 7.9091ZM4.7236 6.25819L4.97579 6.42066L5.10687 6.2172L4.93573 6.04606L4.7236 6.25819ZM3.35269 4.88728L3.14056 4.67515L2.92843 4.88728L3.14056 5.09941L3.35269 4.88728ZM4.89451 3.34546L5.10664 3.13333L4.89451 2.9212L4.68238 3.13333L4.89451 3.34546ZM6.26542 4.71637L6.05329 4.9285L6.22443 5.09965L6.42789 4.96857L6.26542 4.71637ZM7.91633 4.0291L7.98081 4.32209L8.21633 4.27025V4.0291H7.91633ZM7.91633 2.09092V1.79092H7.61633V2.09092H7.91633ZM10.0981 2.09092H10.3981V1.79092H10.0981V2.09092ZM10.0981 4.0291H9.79814V4.27025L10.0337 4.32209L10.0981 4.0291ZM11.7491 4.71637L11.5866 4.96857L11.79 5.09965L11.9612 4.9285L11.7491 4.71637ZM13.12 3.34546L13.3321 3.13333L13.12 2.9212L12.9078 3.13333L13.12 3.34546ZM14.6618 4.88728L14.8739 5.09941L15.086 4.88728L14.8739 4.67515L14.6618 4.88728ZM13.2909 6.25819L13.0787 6.04606L12.9076 6.2172L13.0387 6.42066L13.2909 6.25819ZM13.9781 7.9091L13.6852 7.97359L13.737 8.2091H13.9781V7.9091ZM15.9163 7.9091H16.2163V7.6091H15.9163V7.9091ZM15.9164 6.51818H14.7891V7.11818H15.9164V6.51818ZM15.0702 6.71345C15.0213 6.58215 14.9672 6.45335 14.9079 6.32707L14.3648 6.58202C14.417 6.69332 14.4648 6.80694 14.508 6.92291L15.0702 6.71345ZM14.8485 6.66668L15.6449 5.87031L15.2206 5.44605L14.4242 6.24241L14.8485 6.66668ZM15.645 5.87018C16.1874 5.32714 16.1874 4.44741 15.645 3.90436L15.2205 4.32836C15.5289 4.63715 15.5289 5.13739 15.2205 5.44618L15.645 5.87018ZM15.6449 3.90423L14.103 2.36241L13.6788 2.78668L15.2206 4.3285L15.6449 3.90423ZM14.1029 2.36228C13.5599 1.81991 12.6801 1.81991 12.1371 2.36228L12.5611 2.78681C12.8699 2.4784 13.3701 2.4784 13.6789 2.78681L14.1029 2.36228ZM12.137 2.36241L11.3406 3.15878L11.7649 3.58304L12.5612 2.78668L12.137 2.36241ZM11.6756 3.09723C11.5523 3.04188 11.4267 2.9891 11.2986 2.93889L11.0796 3.49747C11.1988 3.54423 11.3156 3.59327 11.4298 3.64459L11.6756 3.09723ZM11.4891 3.21818V2.09091H10.8891V3.21818H11.4891ZM11.4891 2.09091C11.4891 1.32273 10.8664 0.7 10.0982 0.7V1.3C10.535 1.3 10.8891 1.6541 10.8891 2.09091H11.4891ZM10.0982 0.7H7.91636V1.3H10.0982V0.7ZM7.91636 0.7C7.14819 0.7 6.52545 1.32273 6.52545 2.09091H7.12545C7.12545 1.6541 7.47956 1.3 7.91636 1.3V0.7ZM6.52545 2.09091V3.21818H7.12545V2.09091H6.52545ZM6.72072 2.93706C6.58942 2.98597 6.46062 3.04007 6.33435 3.09934L6.58929 3.64248C6.70059 3.59024 6.81422 3.54251 6.93019 3.49931L6.72072 2.93706ZM6.67395 3.15878L5.87759 2.36241L5.45332 2.78668L6.24969 3.58304L6.67395 3.15878ZM5.87745 2.36228C5.33441 1.81991 4.45468 1.81991 3.91164 2.36228L4.33564 2.78681C4.64443 2.4784 5.14466 2.4784 5.45345 2.78681L5.87745 2.36228ZM3.9115 2.36241L2.36969 3.90423L2.79395 4.3285L4.33577 2.78668L3.9115 2.36241ZM2.36955 3.90436C1.82719 4.44741 1.82719 5.32714 2.36955 5.87018L2.79408 5.44618C2.48568 5.13739 2.48568 4.63715 2.79408 4.32836L2.36955 3.90436ZM2.36872 5.86934L3.15781 6.6657L3.58401 6.24339L2.79492 5.44703L2.36872 5.86934ZM3.09723 6.33167C3.04188 6.45495 2.9891 6.58061 2.93889 6.70866L3.49747 6.92771C3.54423 6.80848 3.59327 6.69172 3.64459 6.57742L3.09723 6.33167ZM3.21818 6.51818H2.09091V7.11818H3.21818V6.51818ZM2.09091 6.51818C1.32273 6.51818 0.7 7.14091 0.7 7.90909H1.3C1.3 7.47228 1.6541 7.11818 2.09091 7.11818V6.51818ZM0.7 7.90909V10.0909H1.3V7.90909H0.7ZM0.7 10.0909C0.7 10.8591 1.32273 11.4818 2.09091 11.4818V10.8818C1.6541 10.8818 1.3 10.5277 1.3 10.0909H0.7ZM2.09091 11.4818H3.21818V10.8818H2.09091V11.4818ZM2.93706 11.2866C2.98597 11.4179 3.04007 11.5467 3.09934 11.6729L3.64248 11.418C3.59024 11.3067 3.54251 11.1931 3.49931 11.0771L2.93706 11.2866ZM3.15878 11.3333L2.36241 12.1297L2.78668 12.554L3.58304 11.7576L3.15878 11.3333ZM2.36228 12.1298C1.81991 12.6729 1.81991 13.5526 2.36228 14.0956L2.78681 13.6716C2.4784 13.3628 2.4784 12.8626 2.78681 12.5538L2.36228 12.1298ZM2.36241 14.0958L3.90423 15.6376L4.3285 15.2133L2.78668 13.6715L2.36241 14.0958ZM3.90436 15.6377C4.44741 16.1801 5.32714 16.1801 5.87018 15.6377L5.44618 15.2132C5.13739 15.5216 4.63715 15.5216 4.32836 15.2132L3.90436 15.6377ZM5.87031 15.6376L6.66668 14.8412L6.24241 14.417L5.44605 15.2133L5.87031 15.6376ZM6.33167 14.9028C6.45495 14.9581 6.58061 15.0109 6.70866 15.0611L6.92771 14.5025C6.80848 14.4558 6.69172 14.4067 6.57742 14.3554L6.33167 14.9028ZM6.51818 14.7818V15.9091H7.11818V14.7818H6.51818ZM6.51818 15.9091C6.51818 16.6773 7.14091 17.3 7.90909 17.3V16.7C7.47228 16.7 7.11818 16.3459 7.11818 15.9091H6.51818ZM7.90909 17.3H10.0909V16.7H7.90909V17.3ZM10.0909 17.3C10.8591 17.3 11.4818 16.6773 11.4818 15.9091H10.8818C10.8818 16.3459 10.5277 16.7 10.0909 16.7V17.3ZM11.4818 15.9091V14.7818H10.8818V15.9091H11.4818ZM11.2866 15.0629C11.4179 15.014 11.5467 14.9599 11.6729 14.9007L11.418 14.3575C11.3067 14.4098 11.1931 14.4575 11.0771 14.5007L11.2866 15.0629ZM11.3333 14.8412L12.1297 15.6376L12.5539 15.2133L11.7576 14.417L11.3333 14.8412ZM12.1298 15.6377C12.6729 16.1801 13.5526 16.1801 14.0956 15.6377L13.6716 15.2132C13.3628 15.5216 12.8626 15.5216 12.5538 15.2132L12.1298 15.6377ZM14.0958 15.6376L15.6376 14.0958L15.2133 13.6715L13.6715 15.2133L14.0958 15.6376ZM15.6377 14.0956C16.1801 13.5526 16.1801 12.6729 15.6377 12.1298L15.2132 12.5538C15.5216 12.8626 15.5216 13.3628 15.2132 13.6716L15.6377 14.0956ZM15.6395 12.1317L14.8577 11.3353L14.4296 11.7556L15.2114 12.552L15.6395 12.1317ZM14.9173 11.6683C14.9727 11.5451 15.0254 11.4194 15.0757 11.2913L14.5171 11.0723C14.4703 11.1915 14.4213 11.3083 14.37 11.4226L14.9173 11.6683ZM14.7964 11.4818H15.9236V10.8818H14.7964V11.4818ZM15.9236 11.4818C16.6918 11.4818 17.3145 10.8591 17.3145 10.0909H16.7145C16.7145 10.5277 16.3604 10.8818 15.9236 10.8818V11.4818ZM17.3145 10.0909V7.90909H16.7145V10.0909H17.3145ZM17.3145 7.9091C17.3146 7.53859 17.1667 7.1834 16.9039 6.92228L16.481 7.34795C16.6305 7.49643 16.7146 7.69841 16.7145 7.90908L17.3145 7.9091ZM16.9039 6.92228C16.641 6.66117 16.2849 6.51572 15.9144 6.51819L15.9184 7.11818C16.129 7.11677 16.3316 7.19948 16.481 7.34795L16.9039 6.92228ZM15.9163 9.79092H13.9781V10.3909H15.9163V9.79092ZM13.6852 10.0264C13.5637 10.5784 13.3448 11.1043 13.0387 11.5794L13.5431 11.9043C13.8878 11.3692 14.1343 10.777 14.2711 10.1554L13.6852 10.0264ZM13.0787 11.954L14.4496 13.3249L14.8739 12.9006L13.503 11.5297L13.0787 11.954ZM14.4496 12.9006L12.9078 14.4424L13.3321 14.8667L14.8739 13.3249L14.4496 12.9006ZM13.331 14.4413L11.9455 13.0704L11.5235 13.4969L12.909 14.8678L13.331 14.4413ZM11.572 13.0315C11.0969 13.3375 10.5711 13.5564 10.0191 13.6779L10.1481 14.2639C10.7697 14.1271 11.3619 13.8805 11.897 13.5358L11.572 13.0315ZM9.7836 13.9709V15.9091H10.3836V13.9709H9.7836ZM10.0836 15.6091H7.90178V16.2091H10.0836V15.6091ZM8.20178 15.9091V13.9709H7.60178V15.9091H8.20178ZM7.96627 13.6779C7.41432 13.5564 6.88845 13.3375 6.41334 13.0315L6.0884 13.5358C6.62346 13.8805 7.21569 14.1271 7.83729 14.2639L7.96627 13.6779ZM6.03874 13.0715L4.66783 14.4424L5.09209 14.8667L6.463 13.4958L6.03874 13.0715ZM5.09209 14.4424L3.55028 12.9006L3.12601 13.3249L4.66783 14.8667L5.09209 14.4424ZM3.55028 13.3249L4.92119 11.954L4.49692 11.5297L3.12601 12.9006L3.55028 13.3249ZM4.96125 11.5794C4.65517 11.1043 4.43625 10.5784 4.31477 10.0264L3.72879 10.1554C3.86561 10.777 4.11216 11.3692 4.45686 11.9043L4.96125 11.5794ZM4.02178 9.79092H2.09814V10.3909H4.02178V9.79092ZM2.39814 10.0909V7.9091H1.79814V10.0909H2.39814ZM2.09814 8.2091H4.03633V7.6091H2.09814V8.2091ZM4.32931 7.97359C4.4508 7.42164 4.66972 6.89577 4.97579 6.42066L4.4714 6.09572C4.1267 6.63078 3.88016 7.22301 3.74334 7.84461L4.32931 7.97359ZM4.93573 6.04606L3.56482 4.67515L3.14056 5.09941L4.51147 6.47032L4.93573 6.04606ZM3.56482 5.09941L5.10664 3.5576L4.68238 3.13333L3.14056 4.67515L3.56482 5.09941ZM4.68238 3.5576L6.05329 4.9285L6.47755 4.50424L5.10664 3.13333L4.68238 3.5576ZM6.42789 4.96857C6.90299 4.66249 7.42886 4.44357 7.98081 4.32209L7.85184 3.73611C7.23024 3.87293 6.638 4.11947 6.10294 4.46418L6.42789 4.96857ZM8.21633 4.0291V2.09092H7.61633V4.0291H8.21633ZM7.91633 2.39092H10.0981V1.79092H7.91633V2.39092ZM9.79814 2.09092V4.0291H10.3981V2.09092H9.79814ZM10.0337 4.32209C10.5856 4.44357 11.1115 4.66249 11.5866 4.96857L11.9115 4.46418C11.3765 4.11947 10.7842 3.87293 10.1626 3.73611L10.0337 4.32209ZM11.9612 4.9285L13.3321 3.5576L12.9078 3.13333L11.5369 4.50424L11.9612 4.9285ZM12.9078 3.5576L14.4496 5.09941L14.8739 4.67515L13.3321 3.13333L12.9078 3.5576ZM14.4496 4.67515L13.0787 6.04606L13.503 6.47032L14.8739 5.09941L14.4496 4.67515ZM13.0387 6.42066C13.3448 6.89577 13.5637 7.42164 13.6852 7.97359L14.2711 7.84461C14.1343 7.22301 13.8878 6.63078 13.5431 6.09572L13.0387 6.42066ZM13.9781 8.2091H15.9163V7.6091H13.9781V8.2091ZM15.6163 7.9091V10.0909H16.2163V7.9091H15.6163Z" fill="#9DA5B1" mask="url(#path-3-outside-2)"/>
</svg>
