<svg width="20" height="20" viewBox="0 0 20 20" fill="none" xmlns="http://www.w3.org/2000/svg">
<path fill-rule="evenodd" clip-rule="evenodd" d="M17.7576 17.5162C18.0451 17.2287 18.0778 16.7806 17.8507 16.4567V16.4204L14.5314 13.1191C16.8504 10.59 16.863 6.68465 14.5173 4.13929C12.1102 1.52719 8.0731 1.27351 5.35789 3.56372C2.64269 5.85394 2.21211 9.87599 4.38098 12.6891C6.50314 15.4416 10.3777 16.0816 13.2654 14.1938L16.6013 17.5299L16.6083 17.5364C16.9344 17.8403 17.4425 17.8313 17.7576 17.5162ZM17.5796 16.5517V16.5331L14.1524 13.1235C16.5536 10.707 16.6266 6.82822 14.318 4.32299C13.2188 3.13022 11.7653 2.45016 10.2629 2.30199C11.7652 2.45017 13.2187 3.13024 14.3179 4.32298C16.6267 6.82839 16.5535 10.7075 14.1518 13.124L17.5795 16.5331V16.5517C17.7838 16.7709 17.7777 17.1126 17.5658 17.3245C17.4539 17.4364 17.3058 17.4909 17.1586 17.4873C17.3058 17.4909 17.454 17.4364 17.5659 17.3245C17.7778 17.1126 17.7839 16.7709 17.5796 16.5517ZM13.2987 13.8437L13.2986 13.8437C12.0073 14.7519 10.4907 15.1143 9.02786 14.9732C10.4907 15.1143 12.0073 14.7519 13.2987 13.8437ZM4.75222 8.67257C4.75222 5.95405 6.95602 3.75026 9.67454 3.75026C12.3931 3.75026 14.5968 5.95405 14.5968 8.67257C14.5968 11.3911 12.3931 13.5949 9.67454 13.5949C6.95602 13.5949 4.75222 11.3911 4.75222 8.67257ZM4.48114 8.67257C4.48114 5.80433 6.8063 3.47917 9.67454 3.47917C9.84398 3.47917 10.0115 3.48729 10.1768 3.50315C10.0115 3.48728 9.84392 3.47916 9.67444 3.47916C6.80621 3.47916 4.48104 5.80433 4.48104 8.67256C4.48104 11.3616 6.52469 13.5732 9.14354 13.8392C6.52474 13.5732 4.48114 11.3615 4.48114 8.67257Z" fill="#9DA5B1"/>
</svg>
