<svg width="20" height="20" viewBox="0 0 20 20" fill="none" xmlns="http://www.w3.org/2000/svg">
<mask id="path-1-outside-1" maskUnits="userSpaceOnUse" x="1" y="3" width="18" height="14" fill="black">
<rect fill="white" x="1" y="3" width="18" height="14"/>
<path fill-rule="evenodd" clip-rule="evenodd" d="M16 14H4.00005C3.33731 14 2.80005 13.4627 2.80005 12.8V5.2C2.80005 4.53726 3.33731 4 4.00005 4H16C16.6628 4 17.2 4.53726 17.2 5.2V12.8C17.2 13.4627 16.6628 14 16 14ZM16 5.2H4V12.8H16V5.2ZM18 15.4H2V16.6H18V15.4Z"/>
</mask>
<path fill-rule="evenodd" clip-rule="evenodd" d="M16 14H4.00005C3.33731 14 2.80005 13.4627 2.80005 12.8V5.2C2.80005 4.53726 3.33731 4 4.00005 4H16C16.6628 4 17.2 4.53726 17.2 5.2V12.8C17.2 13.4627 16.6628 14 16 14ZM16 5.2H4V12.8H16V5.2ZM18 15.4H2V16.6H18V15.4Z" fill="#9DA5B1"/>
<path d="M4 5.2V4.9H3.7V5.2H4ZM16 5.2H16.3V4.9H16V5.2ZM4 12.8H3.7V13.1H4V12.8ZM16 12.8V13.1H16.3V12.8H16ZM2 15.4V15.1H1.7V15.4H2ZM18 15.4H18.3V15.1H18V15.4ZM2 16.6H1.7V16.9H2V16.6ZM18 16.6V16.9H18.3V16.6H18ZM4.00005 14.3H16V13.7H4.00005V14.3ZM2.50005 12.8C2.50005 13.6284 3.17162 14.3 4.00005 14.3V13.7C3.50299 13.7 3.10005 13.2971 3.10005 12.8H2.50005ZM2.50005 5.2V12.8H3.10005V5.2H2.50005ZM4.00005 3.7C3.17162 3.7 2.50005 4.37157 2.50005 5.2H3.10005C3.10005 4.70294 3.50299 4.3 4.00005 4.3V3.7ZM16 3.7H4.00005V4.3H16V3.7ZM17.5 5.2C17.5 4.37157 16.8285 3.7 16 3.7V4.3C16.4971 4.3 16.9 4.70294 16.9 5.2H17.5ZM17.5 12.8V5.2H16.9V12.8H17.5ZM16 14.3C16.8285 14.3 17.5 13.6284 17.5 12.8H16.9C16.9 13.2971 16.4971 13.7 16 13.7V14.3ZM4 5.5H16V4.9H4V5.5ZM4.3 12.8V5.2H3.7V12.8H4.3ZM16 12.5H4V13.1H16V12.5ZM15.7 5.2V12.8H16.3V5.2H15.7ZM2 15.7H18V15.1H2V15.7ZM2.3 16.6V15.4H1.7V16.6H2.3ZM18 16.3H2V16.9H18V16.3ZM17.7 15.4V16.6H18.3V15.4H17.7Z" fill="#9DA5B1" mask="url(#path-1-outside-1)"/>
</svg>
