<svg width="20" height="20" viewBox="0 0 20 20" fill="none" xmlns="http://www.w3.org/2000/svg">
<mask id="path-1-outside-1" maskUnits="userSpaceOnUse" x="1" y="2" width="18" height="16" fill="black">
<rect fill="white" x="1" y="2" width="18" height="16"/>
<path fill-rule="evenodd" clip-rule="evenodd" d="M7.79972 11.7928H14.834C15.2565 11.793 15.6385 11.5412 15.8047 11.1527L17.9149 6.22871C18.0545 5.90263 18.0208 5.52828 17.8254 5.2323C17.6299 4.93633 17.2989 4.75834 16.9442 4.75856H5.33774C5.13486 4.76117 4.93704 4.82223 4.76797 4.93441L4.06455 3.31654C3.98088 3.12484 3.79186 3.00067 3.5827 3H2.52757C2.2362 3 2 3.2362 2 3.52757C2 3.81893 2.2362 4.05513 2.52757 4.05513H3.23099L6.44212 11.3918C6.83978 12.5817 6.69311 13.8863 6.04117 14.9582C6.04032 15.674 6.47344 16.3189 7.13637 16.5889C7.79931 16.8589 8.55975 16.7002 9.05928 16.1875C9.55881 15.6748 9.69773 14.9105 9.41056 14.2548H13.2266C12.9164 14.9658 13.1087 15.7962 13.7 16.2984C14.2912 16.8006 15.1418 16.8561 15.7932 16.4349C16.4447 16.0136 16.7432 15.2153 16.5279 14.47C16.3126 13.7247 15.6343 13.2085 14.8586 13.1996H7.88413H7.81379C7.4253 13.1996 7.11037 12.8847 7.11037 12.4962C7.11037 12.1077 7.4253 11.7928 7.81379 11.7928H7.79972ZM16.9442 5.81369L14.834 10.7377H7.44801L5.33774 5.81369H16.9442ZM8.50314 14.9582C8.50314 15.3467 8.18821 15.6616 7.79972 15.6616C7.41123 15.6616 7.0963 15.3467 7.0963 14.9582C7.0963 14.5697 7.41123 14.2548 7.79972 14.2548C8.18821 14.2548 8.50314 14.5697 8.50314 14.9582ZM15.5374 14.9582C15.5374 15.3467 15.2224 15.6616 14.834 15.6616C14.4455 15.6616 14.1305 15.3467 14.1305 14.9582C14.1305 14.5697 14.4455 14.2548 14.834 14.2548C15.2224 14.2548 15.5374 14.5697 15.5374 14.9582Z"/>
</mask>
<path fill-rule="evenodd" clip-rule="evenodd" d="M7.79972 11.7928H14.834C15.2565 11.793 15.6385 11.5412 15.8047 11.1527L17.9149 6.22871C18.0545 5.90263 18.0208 5.52828 17.8254 5.2323C17.6299 4.93633 17.2989 4.75834 16.9442 4.75856H5.33774C5.13486 4.76117 4.93704 4.82223 4.76797 4.93441L4.06455 3.31654C3.98088 3.12484 3.79186 3.00067 3.5827 3H2.52757C2.2362 3 2 3.2362 2 3.52757C2 3.81893 2.2362 4.05513 2.52757 4.05513H3.23099L6.44212 11.3918C6.83978 12.5817 6.69311 13.8863 6.04117 14.9582C6.04032 15.674 6.47344 16.3189 7.13637 16.5889C7.79931 16.8589 8.55975 16.7002 9.05928 16.1875C9.55881 15.6748 9.69773 14.9105 9.41056 14.2548H13.2266C12.9164 14.9658 13.1087 15.7962 13.7 16.2984C14.2912 16.8006 15.1418 16.8561 15.7932 16.4349C16.4447 16.0136 16.7432 15.2153 16.5279 14.47C16.3126 13.7247 15.6343 13.2085 14.8586 13.1996H7.88413H7.81379C7.4253 13.1996 7.11037 12.8847 7.11037 12.4962C7.11037 12.1077 7.4253 11.7928 7.81379 11.7928H7.79972ZM16.9442 5.81369L14.834 10.7377H7.44801L5.33774 5.81369H16.9442ZM8.50314 14.9582C8.50314 15.3467 8.18821 15.6616 7.79972 15.6616C7.41123 15.6616 7.0963 15.3467 7.0963 14.9582C7.0963 14.5697 7.41123 14.2548 7.79972 14.2548C8.18821 14.2548 8.50314 14.5697 8.50314 14.9582ZM15.5374 14.9582C15.5374 15.3467 15.2224 15.6616 14.834 15.6616C14.4455 15.6616 14.1305 15.3467 14.1305 14.9582C14.1305 14.5697 14.4455 14.2548 14.834 14.2548C15.2224 14.2548 15.5374 14.5697 15.5374 14.9582Z" fill="#9DA5B1"/>
<path d="M14.834 11.7928L14.8341 11.4928H14.834V11.7928ZM15.8047 11.1527L15.5289 11.0345L15.5289 11.0347L15.8047 11.1527ZM17.9149 6.22871L18.1907 6.34689L18.1908 6.34671L17.9149 6.22871ZM16.9442 4.75856V5.05856H16.9444L16.9442 4.75856ZM5.33774 4.75856V4.45853L5.33387 4.45858L5.33774 4.75856ZM4.76797 4.93441L4.49285 5.05403L4.63557 5.3823L4.93384 5.18439L4.76797 4.93441ZM4.06455 3.31654L4.33967 3.19692L4.3395 3.19654L4.06455 3.31654ZM3.5827 3L3.58366 2.7H3.5827V3ZM3.23099 4.05513L3.50582 3.93485L3.42716 3.75513H3.23099V4.05513ZM6.44212 11.3918L6.72665 11.2967L6.72236 11.2839L6.71695 11.2716L6.44212 11.3918ZM6.04117 14.9582L5.78485 14.8023L5.74126 14.874L5.74117 14.9578L6.04117 14.9582ZM9.41056 14.2548V13.9548H8.95166L9.13576 14.3751L9.41056 14.2548ZM13.2266 14.2548L13.5016 14.3747L13.6849 13.9548H13.2266V14.2548ZM14.8586 13.1996L14.862 12.8996H14.8586V13.1996ZM16.9442 5.81369L17.22 5.93187L17.3992 5.51369H16.9442V5.81369ZM14.834 10.7377V11.0377H15.0318L15.1097 10.8558L14.834 10.7377ZM7.44801 10.7377L7.17226 10.8558L7.25019 11.0377H7.44801V10.7377ZM5.33774 5.81369V5.51369H4.88278L5.062 5.93187L5.33774 5.81369ZM7.79972 12.0928H14.834V11.4928H7.79972V12.0928ZM14.8338 12.0928C15.3765 12.0931 15.867 11.7696 16.0805 11.2707L15.5289 11.0347C15.4099 11.3127 15.1366 11.493 14.8341 11.4928L14.8338 12.0928ZM16.0804 11.2708L18.1907 6.34689L17.6392 6.11054L15.5289 11.0345L16.0804 11.2708ZM18.1908 6.34671C18.3699 5.92792 18.3267 5.44712 18.0757 5.067L17.575 5.39761C17.7149 5.60943 17.739 5.87734 17.6391 6.11071L18.1908 6.34671ZM18.0757 5.067C17.8247 4.68688 17.3996 4.45828 16.944 4.45856L16.9444 5.05856C17.1982 5.0584 17.4352 5.18579 17.575 5.39761L18.0757 5.067ZM16.9442 4.45856H5.33774V5.05856H16.9442V4.45856ZM5.33387 4.45858C5.07331 4.46194 4.81924 4.54036 4.6021 4.68444L4.93384 5.18439C5.05483 5.1041 5.19641 5.06041 5.34161 5.05853L5.33387 4.45858ZM5.04309 4.8148L4.33967 3.19692L3.78943 3.43616L4.49285 5.05403L5.04309 4.8148ZM4.3395 3.19654C4.20826 2.89583 3.91176 2.70105 3.58366 2.7L3.58175 3.3C3.67197 3.30029 3.7535 3.35385 3.78959 3.43654L4.3395 3.19654ZM3.5827 2.7H2.52757V3.3H3.5827V2.7ZM2.52757 2.7C2.07051 2.7 1.7 3.07051 1.7 3.52757H2.3C2.3 3.40189 2.40189 3.3 2.52757 3.3V2.7ZM1.7 3.52757C1.7 3.98462 2.07051 4.35513 2.52757 4.35513V3.75513C2.40189 3.75513 2.3 3.65325 2.3 3.52757H1.7ZM2.52757 4.35513H3.23099V3.75513H2.52757V4.35513ZM2.95616 4.17542L6.16729 11.5121L6.71695 11.2716L3.50582 3.93485L2.95616 4.17542ZM6.15759 11.4869C6.52726 12.5931 6.39091 13.8059 5.78485 14.8023L6.29748 15.1141C6.9953 13.9668 7.1523 12.5704 6.72665 11.2967L6.15759 11.4869ZM5.74117 14.9578C5.74018 15.7958 6.24718 16.5507 7.02321 16.8667L7.24954 16.3111C6.6997 16.0871 6.34047 15.5522 6.34117 14.9585L5.74117 14.9578ZM7.02321 16.8667C7.79924 17.1828 8.68941 16.997 9.27415 16.3968L8.84441 15.9781C8.4301 16.4033 7.79938 16.535 7.24954 16.3111L7.02321 16.8667ZM9.27415 16.3968C9.8589 15.7967 10.0215 14.902 9.68536 14.1344L9.13576 14.3751C9.37394 14.919 9.25872 15.5529 8.84441 15.9781L9.27415 16.3968ZM9.41056 14.5548H13.2266V13.9548H9.41056V14.5548ZM12.9517 14.1348C12.5885 14.9671 12.8136 15.9391 13.5058 16.527L13.8942 16.0697C13.4038 15.6532 13.2443 14.9645 13.5016 14.3747L12.9517 14.1348ZM13.5058 16.527C14.1979 17.1149 15.1935 17.1798 15.9561 16.6868L15.6304 16.1829C15.09 16.5323 14.3846 16.4863 13.8942 16.0697L13.5058 16.527ZM15.9561 16.6868C16.7187 16.1937 17.0682 15.2592 16.8161 14.3867L16.2397 14.5533C16.4183 15.1714 16.1707 15.8336 15.6304 16.1829L15.9561 16.6868ZM16.8161 14.3867C16.5641 13.5143 15.7701 12.9101 14.862 12.8997L14.8551 13.4996C15.4985 13.507 16.0611 13.9351 16.2397 14.5533L16.8161 14.3867ZM14.8586 12.8996H7.88413V13.4996H14.8586V12.8996ZM7.88413 12.8996H7.81379V13.4996H7.88413V12.8996ZM7.81379 12.8996C7.59099 12.8996 7.41037 12.719 7.41037 12.4962H6.81037C6.81037 13.0504 7.25962 13.4996 7.81379 13.4996V12.8996ZM7.41037 12.4962C7.41037 12.2734 7.59099 12.0928 7.81379 12.0928V11.4928C7.25962 11.4928 6.81037 11.942 6.81037 12.4962H7.41037ZM7.81379 11.4928H7.79972V12.0928H7.81379V11.4928ZM16.6685 5.69552L14.5582 10.6195L15.1097 10.8558L17.22 5.93187L16.6685 5.69552ZM14.834 10.4377H7.44801V11.0377H14.834V10.4377ZM7.72375 10.6195L5.61348 5.69552L5.062 5.93187L7.17226 10.8558L7.72375 10.6195ZM5.33774 6.11369H16.9442V5.51369H5.33774V6.11369ZM8.20314 14.9582C8.20314 15.181 8.02252 15.3616 7.79972 15.3616V15.9616C8.3539 15.9616 8.80314 15.5124 8.80314 14.9582H8.20314ZM7.79972 15.3616C7.57692 15.3616 7.3963 15.181 7.3963 14.9582H6.7963C6.7963 15.5124 7.24554 15.9616 7.79972 15.9616V15.3616ZM7.3963 14.9582C7.3963 14.7354 7.57692 14.5548 7.79972 14.5548V13.9548C7.24554 13.9548 6.7963 14.404 6.7963 14.9582H7.3963ZM7.79972 14.5548C8.02252 14.5548 8.20314 14.7354 8.20314 14.9582H8.80314C8.80314 14.404 8.3539 13.9548 7.79972 13.9548V14.5548ZM15.2374 14.9582C15.2374 15.181 15.0568 15.3616 14.834 15.3616V15.9616C15.3881 15.9616 15.8374 15.5124 15.8374 14.9582H15.2374ZM14.834 15.3616C14.6111 15.3616 14.4305 15.181 14.4305 14.9582H13.8305C13.8305 15.5124 14.2798 15.9616 14.834 15.9616V15.3616ZM14.4305 14.9582C14.4305 14.7354 14.6111 14.5548 14.834 14.5548V13.9548C14.2798 13.9548 13.8305 14.404 13.8305 14.9582H14.4305ZM14.834 14.5548C15.0568 14.5548 15.2374 14.7354 15.2374 14.9582H15.8374C15.8374 14.404 15.3881 13.9548 14.834 13.9548V14.5548Z" fill="#9DA5B1" mask="url(#path-1-outside-1)"/>
</svg>
