<svg width="20" height="20" viewBox="0 0 20 20" fill="none" xmlns="http://www.w3.org/2000/svg">
<mask id="path-1-outside-1" maskUnits="userSpaceOnUse" x="1" y="4" width="18" height="12" fill="black">
<rect fill="white" x="1" y="4" width="18" height="12"/>
<path fill-rule="evenodd" clip-rule="evenodd" d="M17.8181 10.075C17.8513 9.91422 17.8099 9.74705 17.7054 9.62044L14.069 5.25682C13.948 5.09569 13.7479 5.01445 13.5488 5.04555C13.3497 5.07665 13.1839 5.21501 13.1178 5.40538C13.0516 5.59575 13.0958 5.8071 13.2327 5.955L16.2763 9.59135H3.79999L7.12725 5.955C7.28472 5.81647 7.34881 5.59994 7.29212 5.39802C7.23542 5.19611 7.06798 5.04458 6.86143 5.00826C6.65487 4.97194 6.44579 5.05726 6.32362 5.22773L2.32364 9.59135C2.20976 9.71893 2.1638 9.8933 2.2 10.0604C2.06997 10.2444 2.0001 10.4642 2 10.6895V11.7804C1.99976 13.7182 3.51902 15.3157 5.45431 15.4127C7.38959 15.5097 9.06099 14.0721 9.25452 12.1441H10.7454C10.939 14.0721 12.6103 15.5097 14.5456 15.4127C16.4809 15.3157 18.0002 13.7182 17.9999 11.7804V10.6895C18.0022 10.4711 17.9389 10.257 17.8181 10.075ZM10.7272 10.6968V11.0604H9.2727V10.6968H10.7272ZM8.1818 11.7877C8.1818 13.1935 7.04216 14.3332 5.63635 14.3332C4.23054 14.3332 3.09091 13.1935 3.09091 11.7877V10.6968H8.1818V11.7877ZM16.909 11.7877C16.909 13.1935 15.7694 14.3332 14.3636 14.3332C12.9578 14.3332 11.8181 13.1935 11.8181 11.7877V10.6968H16.909V11.7877Z"/>
</mask>
<path fill-rule="evenodd" clip-rule="evenodd" d="M17.8181 10.075C17.8513 9.91422 17.8099 9.74705 17.7054 9.62044L14.069 5.25682C13.948 5.09569 13.7479 5.01445 13.5488 5.04555C13.3497 5.07665 13.1839 5.21501 13.1178 5.40538C13.0516 5.59575 13.0958 5.8071 13.2327 5.955L16.2763 9.59135H3.79999L7.12725 5.955C7.28472 5.81647 7.34881 5.59994 7.29212 5.39802C7.23542 5.19611 7.06798 5.04458 6.86143 5.00826C6.65487 4.97194 6.44579 5.05726 6.32362 5.22773L2.32364 9.59135C2.20976 9.71893 2.1638 9.8933 2.2 10.0604C2.06997 10.2444 2.0001 10.4642 2 10.6895V11.7804C1.99976 13.7182 3.51902 15.3157 5.45431 15.4127C7.38959 15.5097 9.06099 14.0721 9.25452 12.1441H10.7454C10.939 14.0721 12.6103 15.5097 14.5456 15.4127C16.4809 15.3157 18.0002 13.7182 17.9999 11.7804V10.6895C18.0022 10.4711 17.9389 10.257 17.8181 10.075ZM10.7272 10.6968V11.0604H9.2727V10.6968H10.7272ZM8.1818 11.7877C8.1818 13.1935 7.04216 14.3332 5.63635 14.3332C4.23054 14.3332 3.09091 13.1935 3.09091 11.7877V10.6968H8.1818V11.7877ZM16.909 11.7877C16.909 13.1935 15.7694 14.3332 14.3636 14.3332C12.9578 14.3332 11.8181 13.1935 11.8181 11.7877V10.6968H16.909V11.7877Z" fill="#9DA5B1"/>
<path d="M17.7054 9.62044L17.9368 9.42948L17.9359 9.42839L17.7054 9.62044ZM14.069 5.25682L13.8292 5.43703L13.8337 5.44307L13.8386 5.44888L14.069 5.25682ZM13.2327 5.955L13.4627 5.76245L13.4579 5.7567L13.4528 5.75121L13.2327 5.955ZM16.2763 9.59135V9.89135H16.9186L16.5064 9.3988L16.2763 9.59135ZM3.79999 9.59135L3.57866 9.38883L3.11886 9.89135H3.79999V9.59135ZM7.12725 5.955L6.9291 5.72976L6.91689 5.74049L6.90592 5.75248L7.12725 5.955ZM6.32362 5.22773L6.54477 5.43045L6.55696 5.41715L6.56746 5.40249L6.32362 5.22773ZM2.32364 9.59135L2.10247 9.38861L2.09982 9.39158L2.32364 9.59135ZM2.2 10.0604L2.445 10.2336L2.52112 10.1259L2.4932 9.99694L2.2 10.0604ZM2 10.6895L1.7 10.6894V10.6895H2ZM2 11.7804L2.3 11.7805V11.7804H2ZM9.25452 12.1441V11.8441H8.98312L8.95602 12.1141L9.25452 12.1441ZM10.7454 12.1441L11.0439 12.1141L11.0168 11.8441H10.7454V12.1441ZM17.9999 11.7804H17.6999V11.7805L17.9999 11.7804ZM17.9999 10.6895L17.6999 10.6864V10.6895H17.9999ZM10.7272 10.6968H11.0272V10.3968H10.7272V10.6968ZM10.7272 11.0604V11.3604H11.0272V11.0604H10.7272ZM9.2727 11.0604H8.9727V11.3604H9.2727V11.0604ZM9.2727 10.6968V10.3968H8.9727V10.6968H9.2727ZM3.09091 10.6968V10.3968H2.79091V10.6968H3.09091ZM8.1818 10.6968H8.4818V10.3968H8.1818V10.6968ZM11.8181 10.6968V10.3968H11.5181V10.6968H11.8181ZM16.909 10.6968H17.209V10.3968H16.909V10.6968ZM18.1119 10.1357C18.1635 9.88592 18.0991 9.6262 17.9368 9.42948L17.474 9.8114C17.5207 9.86791 17.5392 9.94251 17.5243 10.0143L18.1119 10.1357ZM17.9359 9.42839L14.2995 5.06476L13.8386 5.44888L17.4749 9.8125L17.9359 9.42839ZM14.3089 5.07661C14.1212 4.82686 13.8112 4.70094 13.5025 4.74914L13.5951 5.34195C13.6847 5.32796 13.7747 5.36452 13.8292 5.43703L14.3089 5.07661ZM13.5025 4.74914C13.1939 4.79734 12.9369 5.01181 12.8344 5.30689L13.4011 5.50388C13.4309 5.41821 13.5055 5.35595 13.5951 5.34195L13.5025 4.74914ZM12.8344 5.30689C12.7318 5.60196 12.8003 5.92954 13.0125 6.15879L13.4528 5.75121C13.3912 5.68465 13.3713 5.58955 13.4011 5.50388L12.8344 5.30689ZM13.0026 6.14755L16.0463 9.7839L16.5064 9.3988L13.4627 5.76245L13.0026 6.14755ZM16.2763 9.29135H3.79999V9.89135H16.2763V9.29135ZM4.02132 9.79387L7.34858 6.15752L6.90592 5.75248L3.57866 9.38883L4.02132 9.79387ZM7.32541 6.18024C7.56948 5.96553 7.66882 5.62989 7.58095 5.31692L7.00328 5.47912C7.0288 5.56998 6.99995 5.66742 6.9291 5.72976L7.32541 6.18024ZM7.58095 5.31692C7.49307 5.00395 7.23354 4.76908 6.91338 4.71279L6.80948 5.30373C6.90243 5.32007 6.97777 5.38826 7.00328 5.47912L7.58095 5.31692ZM6.91338 4.71279C6.59322 4.6565 6.26914 4.78875 6.07978 5.05297L6.56746 5.40249C6.62244 5.32578 6.71653 5.28738 6.80948 5.30373L6.91338 4.71279ZM6.10247 5.02501L2.10249 9.38863L2.54478 9.79407L6.54477 5.43045L6.10247 5.02501ZM2.09982 9.39158C1.92203 9.59077 1.85028 9.863 1.9068 10.1239L2.4932 9.99694C2.47732 9.9236 2.49748 9.8471 2.54745 9.79112L2.09982 9.39158ZM1.955 9.88731C1.78921 10.1219 1.70013 10.4021 1.7 10.6894L2.3 10.6897C2.30007 10.5263 2.35073 10.367 2.445 10.2336L1.955 9.88731ZM1.7 10.6895V11.7804H2.3V10.6895H1.7ZM1.7 11.7804C1.69974 13.878 3.34434 15.6073 5.43929 15.7123L5.46932 15.1131C3.6937 15.0241 2.29978 13.5583 2.3 11.7805L1.7 11.7804ZM5.43929 15.7123C7.53424 15.8173 9.34352 14.2611 9.55302 12.174L8.95602 12.1141C8.77846 13.8831 7.24495 15.2021 5.46932 15.1131L5.43929 15.7123ZM9.25452 12.4441H10.7454V11.8441H9.25452V12.4441ZM10.4469 12.174C10.6564 14.2611 12.4657 15.8173 14.5607 15.7123L14.5306 15.1131C12.755 15.2021 11.2215 13.8831 11.0439 12.1141L10.4469 12.174ZM14.5607 15.7123C16.6556 15.6073 18.3002 13.878 18.2999 11.7804L17.6999 11.7805C17.7002 13.5583 16.3062 15.0241 14.5306 15.1131L14.5607 15.7123ZM18.2999 11.7804V10.6895H17.6999V11.7804H18.2999ZM18.2999 10.6927C18.3028 10.4142 18.2221 10.1412 18.0681 9.90913L17.5681 10.2408C17.6557 10.3728 17.7016 10.528 17.7 10.6864L18.2999 10.6927ZM10.4272 10.6968V11.0604H11.0272V10.6968H10.4272ZM10.7272 10.7604H9.2727V11.3604H10.7272V10.7604ZM9.5727 11.0604V10.6968H8.9727V11.0604H9.5727ZM9.2727 10.9968H10.7272V10.3968H9.2727V10.9968ZM7.88179 11.7877C7.88179 13.0278 6.87648 14.0332 5.63635 14.0332V14.6332C7.20785 14.6332 8.4818 13.3592 8.4818 11.7877H7.88179ZM5.63635 14.0332C4.39622 14.0332 3.39091 13.0278 3.39091 11.7877H2.79091C2.79091 13.3592 4.06485 14.6332 5.63635 14.6332V14.0332ZM3.39091 11.7877V10.6968H2.79091V11.7877H3.39091ZM3.09091 10.9968H8.1818V10.3968H3.09091V10.9968ZM7.88179 10.6968V11.7877H8.4818V10.6968H7.88179ZM16.609 11.7877C16.609 13.0278 15.6037 14.0332 14.3636 14.0332V14.6332C15.9351 14.6332 17.209 13.3592 17.209 11.7877H16.609ZM14.3636 14.0332C13.1235 14.0332 12.1181 13.0278 12.1181 11.7877H11.5181C11.5181 13.3592 12.7921 14.6332 14.3636 14.6332V14.0332ZM12.1181 11.7877V10.6968H11.5181V11.7877H12.1181ZM11.8181 10.9968H16.909V10.3968H11.8181V10.9968ZM16.609 10.6968V11.7877H17.209V10.6968H16.609Z" fill="#9DA5B1" mask="url(#path-1-outside-1)"/>
<path d="M6.39542 11.7853C6.37841 12.3303 6.0021 12.7977 5.47387 12.931C5.09544 12.9828 4.82783 13.3294 4.87473 13.7097C4.92202 14.0932 5.27122 14.3657 5.65468 14.3184L5.78632 14.3021V14.3006C5.78726 14.3004 5.78819 14.3003 5.78912 14.3002L5.79818 14.2991L5.80703 14.2969C6.96149 14.0101 7.77564 12.9785 7.78631 11.789L7.78632 11.789V11.7877C7.78632 11.4036 7.47495 11.0922 7.09086 11.0922C6.70758 11.0922 6.39672 11.4023 6.39542 11.7853Z" fill="#9DA5B1" stroke="#9DA5B1" stroke-width="0.3"/>
<path d="M15.1227 11.7853C15.1057 12.3303 14.7294 12.7977 14.2012 12.931C13.8227 12.9828 13.5551 13.3294 13.602 13.7097C13.6493 14.0932 13.9985 14.3657 14.382 14.3184L14.5136 14.3021V14.3006C14.5146 14.3004 14.5155 14.3003 14.5164 14.3002L14.5255 14.2991L14.5343 14.2969C15.6888 14.0101 16.5029 12.9785 16.5136 11.789L16.5136 11.789V11.7877C16.5136 11.4036 16.2022 11.0922 15.8182 11.0922C15.4349 11.0922 15.124 11.4023 15.1227 11.7853Z" fill="#9DA5B1" stroke="#9DA5B1" stroke-width="0.3"/>
</svg>
