<svg width="20" height="20" viewBox="0 0 20 20" fill="none" xmlns="http://www.w3.org/2000/svg">
<path d="M8.0162 14.6691L8.01598 14.6693C7.8256 14.8318 7.56639 14.8878 7.32595 14.8184L7.32597 14.8185L7.36721 14.6742L7.32558 14.8183L4.91773 14.1298L3.34007 15.4082V15.9325H16.6775C17.089 15.9325 17.4226 16.266 17.4226 16.6775C17.4226 17.089 17.089 17.4226 16.6775 17.4226H2.59503C2.18356 17.4226 1.85 17.089 1.85 16.6775V2.59503C1.85 2.18356 2.18356 1.85 2.59503 1.85C3.00651 1.85 3.34007 2.18356 3.34007 2.59503V10.7768L3.9333 10.3333L3.93353 10.3331C4.12886 10.1877 4.38295 10.1469 4.614 10.2239L4.6141 10.2239L6.52746 10.863L9.37341 7.6603L9.37362 7.66006C9.58678 7.4212 9.9287 7.34522 10.223 7.47132L10.223 7.47136L12.3694 8.39282L15.2202 3.04424L8.0162 14.6691ZM8.0162 14.6691L10.3656 12.6565L12.274 13.93C12.274 13.93 12.274 13.9301 12.2741 13.9301C12.5597 14.1218 12.9394 14.093 13.1928 13.8605L17.9531 9.49694L17.959 9.49149M8.0162 14.6691L17.959 9.49149M17.959 9.49149L17.9643 9.48544M17.959 9.49149L17.9643 9.48544M17.9643 9.48544C18.2145 9.20107 18.2115 8.77424 17.9574 8.49341C17.7032 8.21258 17.2788 8.16712 16.971 8.38776L16.9636 8.39303M17.9643 9.48544L16.9636 8.39303M16.9636 8.39303L16.9569 8.39914M16.9636 8.39303L16.9569 8.39914M16.9569 8.39914L12.6287 12.3696L10.7432 11.1064L10.743 11.1062M16.9569 8.39914L10.743 11.1062M10.743 11.1062C10.465 10.9207 10.0976 10.943 9.84406 11.1608C9.84403 11.1608 9.844 11.1608 9.84398 11.1608L7.37061 13.2781L4.98083 12.5942C4.9808 12.5942 4.98077 12.5942 4.98074 12.5942C4.74873 12.5277 4.49886 12.5776 4.3103 12.7283L4.31019 12.7284M10.743 11.1062L4.31019 12.7284M4.31019 12.7284L3.34007 13.5051V12.6429L4.51433 11.7631L6.52232 12.4324L4.31019 12.7284ZM12.4138 10.0281L12.4135 10.028L10.1328 9.05111L7.31702 12.2188C7.31699 12.2189 7.31695 12.2189 7.31692 12.2189C7.11895 12.4431 6.80611 12.5272 6.52243 12.4324L12.4138 10.0281ZM12.4138 10.0281C12.7685 10.1794 13.18 10.0351 13.3624 9.69535L13.3626 9.69496M12.4138 10.0281L13.3626 9.69496M13.3626 9.69496L16.5362 3.74462L16.5362 3.74449M13.3626 9.69496L16.5362 3.74449M16.5362 3.74449C16.6613 3.5094 16.6515 3.22543 16.5104 2.99955M16.5362 3.74449L16.5104 2.99955M16.5104 2.99955C16.3694 2.77368 16.1185 2.64021 15.8524 2.64943M16.5104 2.99955L15.8524 2.64943M15.8524 2.64943C15.5863 2.65864 15.3453 2.80911 15.2202 3.04414L15.8524 2.64943Z" fill="#9DA5B1" stroke="#9DA5B1" stroke-width="0.3"/>
</svg>
