<svg width="20" height="20" viewBox="0 0 20 20" fill="none" xmlns="http://www.w3.org/2000/svg">
<path d="M17.4606 8.88369H16.382C16.0013 8.88369 15.6927 9.19231 15.6927 9.57302C15.6927 9.95372 16.0013 10.2623 16.382 10.2623H17.4606C17.8413 10.2623 18.15 9.95372 18.15 9.57302C18.15 9.19231 17.8413 8.88369 17.4606 8.88369Z" fill="#9DA5B1" stroke="#9DA5B1" stroke-width="0.3"/>
<path d="M16.4041 11.3359L16.4039 11.3357C16.0866 11.1251 15.6587 11.2115 15.4481 11.5287C15.2375 11.8459 15.3238 12.2737 15.6409 12.4844C15.641 12.4844 15.641 12.4845 15.6411 12.4845L16.7195 13.2034L16.7197 13.2036C17.0369 13.4142 17.4649 13.3278 17.6755 13.0106C17.8861 12.6934 17.7998 12.2655 17.4826 12.0549C17.4826 12.0548 17.4825 12.0548 17.4825 12.0548L16.4041 11.3359Z" fill="#9DA5B1" stroke="#9DA5B1" stroke-width="0.3"/>
<path d="M16.1617 7.90255V7.88376C16.2384 7.86674 16.312 7.83665 16.3791 7.79444L16.3791 7.79445L16.3806 7.79349L17.4932 7.07569C17.7071 6.94666 17.8345 6.71192 17.8261 6.46212C17.8176 6.2114 17.6736 5.98509 17.4501 5.87122C17.2271 5.75761 16.96 5.77382 16.7524 5.91346L15.6398 6.63128C15.3794 6.79542 15.2594 7.11237 15.3458 7.40789C15.4323 7.70372 15.7046 7.90617 16.0129 7.90373L16.1617 7.90255Z" fill="#9DA5B1" stroke="#9DA5B1" stroke-width="0.3"/>
<mask id="path-4-outside-1" maskUnits="userSpaceOnUse" x="1" y="3" width="15" height="13" fill="black">
<rect fill="white" x="1" y="3" width="15" height="13"/>
<path fill-rule="evenodd" clip-rule="evenodd" d="M13.8652 4H12.427C11.8312 4 11.3483 4.48293 11.3483 5.07865V5.11101L5.17124 7.59551C5.01924 7.16558 4.61331 6.87769 4.1573 6.8764H3.07865C2.48293 6.8764 2 7.35933 2 7.95506V11.5506C2 12.1463 2.48293 12.6292 3.07865 12.6292H4.1573C4.61198 12.6264 5.01609 12.3388 5.16764 11.9101L5.83281 12.2013C5.7955 12.2749 5.7758 12.3562 5.77528 12.4387C5.75478 13.4009 6.29107 14.2887 7.15236 14.7182C7.46959 14.8758 7.81927 14.9571 8.17348 14.9555C8.8134 14.948 9.42898 14.7092 9.90652 14.2831C9.97564 14.222 10.0277 14.144 10.0575 14.0566L11.3699 14.6355C11.4724 15.1378 11.9143 15.4985 12.427 15.4984H13.8652C14.4609 15.4984 14.9438 15.0155 14.9438 14.4198V5.07146C14.9399 4.47855 14.4581 3.99999 13.8652 4ZM4.1573 11.5506H3.07865V7.95506H4.1573V11.5506ZM11.3483 13.5281L5.23595 10.8027V8.7137L11.3483 6.23639V13.5281ZM7.63417 13.7654C7.20603 13.5555 6.9165 13.1395 6.86833 12.6652L9.02563 13.6108C8.62256 13.9067 8.09238 13.9656 7.63417 13.7654ZM13.8652 14.427H12.427V5.07865H13.8652V14.427Z"/>
</mask>
<path fill-rule="evenodd" clip-rule="evenodd" d="M13.8652 4H12.427C11.8312 4 11.3483 4.48293 11.3483 5.07865V5.11101L5.17124 7.59551C5.01924 7.16558 4.61331 6.87769 4.1573 6.8764H3.07865C2.48293 6.8764 2 7.35933 2 7.95506V11.5506C2 12.1463 2.48293 12.6292 3.07865 12.6292H4.1573C4.61198 12.6264 5.01609 12.3388 5.16764 11.9101L5.83281 12.2013C5.7955 12.2749 5.7758 12.3562 5.77528 12.4387C5.75478 13.4009 6.29107 14.2887 7.15236 14.7182C7.46959 14.8758 7.81927 14.9571 8.17348 14.9555C8.8134 14.948 9.42898 14.7092 9.90652 14.2831C9.97564 14.222 10.0277 14.144 10.0575 14.0566L11.3699 14.6355C11.4724 15.1378 11.9143 15.4985 12.427 15.4984H13.8652C14.4609 15.4984 14.9438 15.0155 14.9438 14.4198V5.07146C14.9399 4.47855 14.4581 3.99999 13.8652 4ZM4.1573 11.5506H3.07865V7.95506H4.1573V11.5506ZM11.3483 13.5281L5.23595 10.8027V8.7137L11.3483 6.23639V13.5281ZM7.63417 13.7654C7.20603 13.5555 6.9165 13.1395 6.86833 12.6652L9.02563 13.6108C8.62256 13.9067 8.09238 13.9656 7.63417 13.7654ZM13.8652 14.427H12.427V5.07865H13.8652V14.427Z" fill="#9DA5B1"/>
<path d="M13.8652 4V4.3H13.8652L13.8652 4ZM11.3483 5.11101L11.4603 5.38934L11.6483 5.3137V5.11101H11.3483ZM5.17124 7.59551L4.88839 7.6955L4.99274 7.99065L5.28318 7.87384L5.17124 7.59551ZM4.1573 6.8764L4.15815 6.5764H4.1573V6.8764ZM4.1573 12.6292V12.9292L4.15915 12.9292L4.1573 12.6292ZM5.16764 11.9101L5.28796 11.6353L4.99236 11.5059L4.8848 11.8101L5.16764 11.9101ZM5.83281 12.2013L6.10037 12.337L6.24397 12.0539L5.95313 11.9265L5.83281 12.2013ZM5.77528 12.4387L6.07525 12.445L6.07527 12.4406L5.77528 12.4387ZM7.15236 14.7182L7.01847 14.9867L7.01888 14.9869L7.15236 14.7182ZM8.17348 14.9555L8.17481 15.2555L8.177 15.2555L8.17348 14.9555ZM9.90652 14.2831L9.70777 14.0584L9.7068 14.0593L9.90652 14.2831ZM10.0575 14.0566L10.1786 13.7821L9.87941 13.6502L9.77365 13.9596L10.0575 14.0566ZM11.3699 14.6355L11.6638 14.5755L11.6328 14.4236L11.491 14.361L11.3699 14.6355ZM12.427 15.4984V15.1984H12.4269L12.427 15.4984ZM14.9438 5.07146H15.2438L15.2438 5.06946L14.9438 5.07146ZM4.1573 11.5506V11.8506H4.4573V11.5506H4.1573ZM3.07865 11.5506H2.77865V11.8506H3.07865V11.5506ZM3.07865 7.95506V7.65506H2.77865V7.95506H3.07865ZM4.1573 7.95506H4.4573V7.65506H4.1573V7.95506ZM11.3483 13.5281L11.2261 13.8021L11.6483 13.9903V13.5281H11.3483ZM5.23595 10.8027H4.93596V10.9974L5.11378 11.0767L5.23595 10.8027ZM5.23595 8.7137L5.12327 8.43566L4.93596 8.51158V8.7137H5.23595ZM11.3483 6.23639H11.6483V5.7911L11.2356 5.95836L11.3483 6.23639ZM6.86833 12.6652L6.98877 12.3904L6.51793 12.184L6.56986 12.6955L6.86833 12.6652ZM9.02563 13.6108L9.20318 13.8526L9.62238 13.5448L9.14607 13.336L9.02563 13.6108ZM13.8652 14.427V14.727H14.1652V14.427H13.8652ZM12.427 14.427H12.127V14.727H12.427V14.427ZM12.427 5.07865V4.77865H12.127V5.07865H12.427ZM13.8652 5.07865H14.1652V4.77865H13.8652V5.07865ZM13.8652 3.7H12.427V4.3H13.8652V3.7ZM12.427 3.7C11.6656 3.7 11.0483 4.31724 11.0483 5.07865H11.6483C11.6483 4.64861 11.9969 4.3 12.427 4.3V3.7ZM11.0483 5.07865V5.11101H11.6483V5.07865H11.0483ZM11.2364 4.83268L5.05929 7.31718L5.28318 7.87384L11.4603 5.38934L11.2364 4.83268ZM5.45408 7.49551C5.2598 6.94601 4.74097 6.57804 4.15815 6.57641L4.15646 7.1764C4.48564 7.17733 4.77867 7.38515 4.88839 7.6955L5.45408 7.49551ZM4.1573 6.5764H3.07865V7.1764H4.1573V6.5764ZM3.07865 6.5764C2.31724 6.5764 1.7 7.19365 1.7 7.95506H2.3C2.3 7.52502 2.64861 7.1764 3.07865 7.1764V6.5764ZM1.7 7.95506V11.5506H2.3V7.95506H1.7ZM1.7 11.5506C1.7 12.312 2.31724 12.9292 3.07865 12.9292V12.3292C2.64861 12.3292 2.3 11.9806 2.3 11.5506H1.7ZM3.07865 12.9292H4.1573V12.3292H3.07865V12.9292ZM4.15915 12.9292C4.74029 12.9256 5.25678 12.558 5.45049 12.0101L4.8848 11.8101C4.77539 12.1196 4.48368 12.3272 4.15546 12.3292L4.15915 12.9292ZM5.04732 12.1849L5.71249 12.4762L5.95313 11.9265L5.28796 11.6353L5.04732 12.1849ZM5.56525 12.0657C5.5069 12.1807 5.47611 12.3078 5.47529 12.4367L6.07527 12.4406C6.0755 12.4046 6.08409 12.3691 6.10037 12.337L5.56525 12.0657ZM5.47535 12.4323C5.45237 13.5105 6.05333 14.5053 7.01847 14.9867L7.28625 14.4497C6.52882 14.072 6.05718 13.2913 6.07521 12.445L5.47535 12.4323ZM7.01888 14.9869C7.37798 15.1653 7.77383 15.2573 8.17481 15.2555L8.17216 14.6555C7.8647 14.6569 7.56119 14.5863 7.28584 14.4495L7.01888 14.9869ZM8.177 15.2555C8.88936 15.2471 9.57463 14.9813 10.1062 14.507L9.7068 14.0593C9.28333 14.4371 8.73744 14.6489 8.16997 14.6555L8.177 15.2555ZM10.1053 14.5079C10.2134 14.4123 10.2947 14.2902 10.3414 14.1537L9.77365 13.9596C9.76063 13.9977 9.73793 14.0318 9.70777 14.0584L10.1053 14.5079ZM9.93645 14.3311L11.2488 14.91L11.491 14.361L10.1786 13.7821L9.93645 14.3311ZM11.0759 14.6955C11.207 15.3375 11.7718 15.7986 12.427 15.7984L12.4269 15.1984C12.0568 15.1985 11.7378 14.9381 11.6638 14.5755L11.0759 14.6955ZM12.427 15.7984H13.8652V15.1984H12.427V15.7984ZM13.8652 15.7984C14.6266 15.7984 15.2438 15.1812 15.2438 14.4198H14.6438C14.6438 14.8498 14.2952 15.1984 13.8652 15.1984V15.7984ZM15.2438 14.4198V5.07146H14.6438V14.4198H15.2438ZM15.2438 5.06946C15.2388 4.31164 14.623 3.69998 13.8652 3.7L13.8652 4.3C14.2932 4.29999 14.641 4.64545 14.6438 5.07346L15.2438 5.06946ZM4.1573 11.2506H3.07865V11.8506H4.1573V11.2506ZM3.37865 11.5506V7.95506H2.77865V11.5506H3.37865ZM3.07865 8.25506H4.1573V7.65506H3.07865V8.25506ZM3.8573 7.95506V11.5506H4.4573V7.95506H3.8573ZM11.4705 13.2541L5.35813 10.5287L5.11378 11.0767L11.2261 13.8021L11.4705 13.2541ZM5.53595 10.8027V8.7137H4.93596V10.8027H5.53595ZM5.34864 8.99173L11.461 6.51443L11.2356 5.95836L5.12327 8.43566L5.34864 8.99173ZM11.0483 6.23639V13.5281H11.6483V6.23639H11.0483ZM7.76623 13.496C7.43112 13.3317 7.2045 13.0062 7.16679 12.6349L6.56986 12.6955C6.6285 13.2729 6.98095 13.7793 7.50211 14.0348L7.76623 13.496ZM6.74789 12.9399L8.90519 13.8855L9.14607 13.336L6.98877 12.3904L6.74789 12.9399ZM8.84808 13.369C8.53124 13.6016 8.11449 13.6479 7.75431 13.4905L7.51403 14.0403C8.07027 14.2834 8.71388 14.2119 9.20318 13.8526L8.84808 13.369ZM13.8652 14.127H12.427V14.727H13.8652V14.127ZM12.727 14.427V5.07865H12.127V14.427H12.727ZM12.427 5.37865H13.8652V4.77865H12.427V5.37865ZM13.5652 5.07865V14.427H14.1652V5.07865H13.5652Z" fill="#9DA5B1" mask="url(#path-4-outside-1)"/>
</svg>
