<svg width="16" height="16" viewBox="0 0 16 16" fill="none" xmlns="http://www.w3.org/2000/svg">
<path fill-rule="evenodd" clip-rule="evenodd" d="M3.21301 3.66265C3.21301 4.08837 3.55837 4.43374 3.98409 4.43374C4.40981 4.43374 4.75518 4.08837 4.75518 3.66265V2.82735H11.2451V3.66265C11.2451 4.08837 11.5904 4.43374 12.0161 4.43374C12.4419 4.43374 12.7872 4.08837 12.7872 3.66265V2.82735H13.9437C14.2268 2.82735 14.4578 3.05833 14.4578 3.34133V5.1406H1.54217V3.34133C1.54217 3.05833 1.77316 2.82735 2.05626 2.82735H3.21301V3.66265ZM12.7872 1.28518H13.9437C15.0782 1.28518 16 2.20681 16 3.34133V5.91169V13.9437C16 15.0782 15.0782 16 13.9437 16H2.05626C0.92177 16 0 15.0782 0 13.9437V5.91169V3.34133C0 2.20681 0.921795 1.28518 2.05626 1.28518H3.21301V0.771084C3.21301 0.345362 3.55837 0 3.98409 0C4.40981 0 4.75518 0.345362 4.75518 0.771084V1.28518H11.2451V0.771084C11.2451 0.345363 11.5904 0 12.0161 0C12.4419 0 12.7872 0.345363 12.7872 0.771084V1.28518ZM11.5342 2.82735V3.66265C11.5342 3.89544 11.6995 4.08984 11.9191 4.13479C11.6996 4.08982 11.5343 3.89543 11.5343 3.66265V2.82735H11.5342ZM11.5342 1.28518V0.771084C11.5342 0.505059 11.7501 0.289157 12.0161 0.289157C12.0162 0.289157 12.0162 0.28916 12.0162 0.28916C11.7502 0.28916 11.5343 0.505062 11.5343 0.771087V1.28518H11.5342ZM12.7872 1.57434H13.9438L13.9437 1.57434L12.7872 1.57434ZM3.21301 1.57434H2.05631C1.08151 1.57434 0.289204 2.36653 0.289204 3.34133V5.30977L0.289157 5.30981V3.34133C0.289157 2.36653 1.08147 1.57434 2.05626 1.57434H3.21301V1.57434ZM3.99333 4.14449C4.2551 4.13956 4.46602 3.92559 4.46602 3.66265V2.82735H4.46583V3.66265C4.46583 3.92553 4.25501 4.13946 3.99333 4.14449ZM4.46602 1.28518H4.46583V0.771087C4.46583 0.505062 4.24993 0.28916 3.9839 0.28916L3.98409 0.289157C4.25012 0.289157 4.46602 0.505059 4.46602 0.771084V1.28518ZM0.289157 6.51356V13.9437C0.289157 14.5353 0.580933 15.0596 1.02819 15.3805C0.580955 15.0596 0.289204 14.5353 0.289204 13.9437V6.5136L0.289157 6.51356ZM0.289204 5.91848L0.289157 5.91169L0.289204 5.90489V5.91169V5.91848ZM14.747 5.1406V3.34133C14.747 2.99475 14.5261 2.69866 14.2178 2.58637C14.5261 2.69867 14.747 2.99477 14.747 3.34133V5.1406H14.747ZM1.54217 6.68277V13.9437C1.54217 14.2268 1.77321 14.4578 2.05626 14.4578H13.9437C14.2268 14.4578 14.4578 14.2268 14.4578 13.9437V6.68277H1.54217ZM14.747 6.68277V13.9437C14.747 14.3865 14.3865 14.747 13.9437 14.747H2.05626L2.05631 14.747H13.9438C14.3865 14.747 14.747 14.3865 14.747 13.9437V6.68277H14.747Z" fill="#554B60"/>
</svg>
