<svg width="17" height="18" viewBox="0 0 17 18" fill="none" xmlns="http://www.w3.org/2000/svg">
<path fill-rule="evenodd" clip-rule="evenodd" d="M1.00133 7.89056C0.955714 9.65743 2.04477 11.2556 3.70587 11.8595C4.48932 12.1773 5.324 12.3501 6.16924 12.3694H6.51377V12.3694H6.16929C5.32405 12.3501 4.48936 12.1773 3.70592 11.8595C2.04482 11.2556 0.955762 9.65742 1.00138 7.89054C1.00138 5.46852 2.82048 4.32469 4.23305 3.92159C4.33284 3.54837 4.48725 3.19196 4.69127 2.86389C4.98701 2.38955 5.46152 1.86489 6.21384 1.49339C5.46149 1.86489 4.98697 2.38955 4.69122 2.8639C4.4872 3.19197 4.33279 3.54839 4.233 3.9216C2.82044 4.3247 1.00133 5.46853 1.00133 7.89056ZM11.3278 12.3607C11.2111 12.3666 11.0991 12.3694 10.9927 12.3694H10.3036V11.3358H10.3036V12.3694H10.9926C11.099 12.3694 11.2111 12.3666 11.3278 12.3607ZM13.9107 10.6101C14.594 10.2035 15.127 9.56924 15.127 8.5796C15.127 6.38841 13.3458 6.16791 12.6567 6.16791C12.5615 6.16258 12.466 6.16258 12.3708 6.16791C12.3708 6.16791 12.0263 2.03358 8.58098 2.03358C8.34388 2.03358 8.12311 2.04664 7.91752 2.07095C8.12309 2.04664 8.34385 2.03359 8.58093 2.03359C12.0262 2.03359 12.3707 6.16792 12.3707 6.16792C12.466 6.16259 12.5614 6.16259 12.6567 6.16792C13.3457 6.16792 15.1269 6.38842 15.1269 8.57961C15.1269 9.56923 14.594 10.2035 13.9107 10.6101ZM5.13566 4.7898C5.13441 4.78994 5.10836 4.79289 5.06198 4.80013C5.1095 4.79271 5.13566 4.78981 5.13566 4.78981V4.7898ZM6.16823 11.0358L6.16924 11.0358H6.81377V12.6694L6.16239 12.6693C5.28263 12.6492 4.41383 12.4697 3.59816 12.1396C1.81997 11.4906 0.654125 9.77914 0.701334 7.88669C0.703209 5.36678 2.53994 4.14246 3.99016 3.68153C4.09672 3.33873 4.24683 3.01041 4.43665 2.70518C5.01812 1.77256 6.21703 0.700012 8.58093 0.700012C10.1452 0.700012 11.2837 1.33262 12.081 2.20551C12.8164 3.01052 13.2561 4.01248 13.4919 4.8972C14.2004 5.02808 14.9104 5.33848 15.4614 5.89161C16.07 6.50264 16.4605 7.3862 16.4605 8.57961C16.4605 10.2189 15.5251 11.2538 14.3889 11.8629C13.2646 12.4656 11.9202 12.6694 10.9926 12.6694H10.0036V11.0358H10.9926L10.994 11.0358L11.0013 11.0358L11.0324 11.0352C11.0603 11.0346 11.1022 11.0333 11.156 11.0308C11.2637 11.0257 11.4189 11.0153 11.6055 10.9946C11.9803 10.953 12.4747 10.8701 12.9649 10.7067C13.9593 10.3752 14.8269 9.75844 14.8269 8.57961C14.8269 7.58206 14.4305 7.07847 13.9923 6.80714C13.5305 6.52125 12.9791 6.46792 12.6567 6.46792H12.6483L12.6399 6.46745C12.5559 6.46275 12.4716 6.46275 12.3875 6.46745L12.096 6.48376L12.0718 6.19283L12.0717 6.1918L12.071 6.18496L12.0679 6.15462C12.0648 6.12724 12.0598 6.08593 12.0522 6.0327C12.037 5.92615 12.0114 5.7723 11.9702 5.58701C11.8876 5.21513 11.7437 4.72333 11.4995 4.23492C11.0132 3.26245 10.1508 2.33359 8.58093 2.33359C6.95424 2.33359 6.1927 2.97553 5.82072 3.5707C5.62883 3.87772 5.53185 4.18677 5.48319 4.42034C5.45896 4.53664 5.44704 4.63264 5.4412 4.69806C5.43828 4.73071 5.4369 4.75558 5.43624 4.77135L5.4357 4.78795L5.43566 4.79067V5.05832L5.16862 5.088L5.16411 5.08855L5.14265 5.09143C5.123 5.09419 5.09296 5.09873 5.05402 5.10553C4.97608 5.11914 4.86295 5.14172 4.72646 5.17711C4.45228 5.24819 4.09014 5.36932 3.73098 5.56885C3.01929 5.96423 2.33491 6.65343 2.33491 7.89056C2.33491 8.68678 2.57198 9.26597 2.91516 9.69495C3.26211 10.1286 3.73144 10.4257 4.21746 10.6282C4.7032 10.8306 5.19313 10.9333 5.56452 10.9848C5.74944 11.0105 5.90302 11.0233 6.00942 11.0296C6.06257 11.0328 6.10381 11.0343 6.13114 11.0351L6.16141 11.0358L6.16823 11.0358ZM5.97112 13.7916C5.91467 13.815 5.86256 13.8489 5.81784 13.8922C5.60951 14.0873 5.59872 14.4143 5.79373 14.6226L7.86089 16.8621C8.01658 16.9541 8.19113 17 8.36567 17C8.19114 17 8.01661 16.954 7.86094 16.8621L5.79378 14.6226C5.59876 14.4143 5.60956 14.0873 5.81789 13.8922C5.8626 13.8489 5.91469 13.815 5.97112 13.7916ZM7.90568 15.4701L7.90573 15.4702V7.98014C7.90573 7.75251 8.05289 7.55926 8.25727 7.49033C8.05287 7.55925 7.90568 7.75251 7.90568 7.98015V15.4701ZM8.93931 15.229V15.229L10.3346 13.8509C10.385 13.8039 10.4418 13.7678 10.502 13.7425C10.4418 13.7678 10.385 13.8039 10.3346 13.8509L8.93931 15.229ZM6.16491 13.4544C5.9585 13.4527 5.75966 13.5319 5.61098 13.675C5.28376 13.9832 5.26708 14.4981 5.57391 14.8268L5.57469 14.8276L7.67034 17.0979L7.70829 17.1203C8.11377 17.3599 8.61748 17.3599 9.02296 17.1203L9.05684 17.1003L11.322 14.7933L11.3231 14.7923C11.6405 14.4733 11.6403 13.9573 11.3222 13.6388L11.3143 13.6314C10.9808 13.3206 10.4635 13.3205 10.13 13.6313L9.23926 14.5111V7.98015C9.23926 7.52905 8.87357 7.16336 8.42247 7.16336C7.97137 7.16336 7.60568 7.52905 7.60568 7.98015V14.6898L6.73208 13.7215C6.59089 13.5581 6.38761 13.4611 6.17159 13.4545L6.16491 13.4544Z" fill="#5AD4A1"/>
</svg>
