<svg width="55" height="40" viewBox="0 0 55 40" fill="none" xmlns="http://www.w3.org/2000/svg">
<path d="M4.87908 19.9824C4.87908 19.9008 4.87703 19.8191 4.87292 19.7376C4.85244 19.3306 4.91106 18.2048 5.31687 16.8697C5.71428 15.5621 6.36346 14.319 7.31552 13.3734C8.84383 11.8556 10.6483 10.1055 12.331 8.48937C13.3133 9.38379 14.6455 10.0544 16.3066 10.1465C21.2102 10.8187 24.944 14.9935 24.944 19.9824C24.944 25.4354 20.4839 29.913 14.9116 29.913H14.2608C13.4492 29.913 11.8261 30.3999 11.8261 32.3477C11.8261 33.1593 12.313 34.7825 14.2608 34.7825H14.9116C23.1417 34.7825 29.8136 28.1563 29.8136 19.9824C29.8136 12.4096 24.0868 6.16515 16.6998 5.28776C16.3789 5.28776 16.1121 5.21474 15.8911 5.09326C15.7305 5.005 15.5942 4.89115 15.479 4.76115C15.0458 4.27231 14.9116 3.55504 14.9116 3.11028V0.742267C14.9116 -0.441742 14.1168 0.051594 13.7194 0.446265C13.6218 0.53813 13.5168 0.636966 13.4052 0.742267C12.7632 1.34775 11.8986 2.16689 10.9166 3.10309L10.909 3.11028C10.6421 3.36474 10.3666 3.62781 10.0845 3.89756C8.09678 5.79838 5.78436 8.03103 3.88406 9.91833C0.546004 13.2336 -0.0898167 18.0091 0.0095325 19.9824C0.0095325 21.3525 0.196986 22.6791 0.547811 23.9383C0.713032 24.5386 1.3913 25.7391 2.7826 25.7391C3.61955 25.7391 5.21737 25.3912 5.31687 23.2499C5.30781 23.1103 5.27521 22.7741 5.21737 22.546C4.99662 21.7271 4.87908 20.8676 4.87908 19.9824Z" fill="#E53654"/>
<path d="M7.16519 32.139C8.50988 32.139 9.59997 31.049 9.59997 29.7043C9.59997 28.3596 8.50988 27.2695 7.16519 27.2695C5.8205 27.2695 4.73042 28.3596 4.73042 29.7043C4.73042 31.049 5.8205 32.139 7.16519 32.139Z" fill="#E53654"/>
<path d="M49.9777 20.0176C49.9777 20.0993 49.9798 20.1809 49.9839 20.2625C50.0044 20.6694 49.9457 21.7952 49.5399 23.1304C49.1425 24.4379 48.4933 25.6811 47.5413 26.6266C46.013 28.1445 44.2085 29.8945 42.5258 31.5107C41.5435 30.6162 40.2113 29.9456 38.5502 29.8535C33.6466 29.1813 29.9128 25.0065 29.9128 20.0176C29.9128 14.5646 34.3729 10.0871 39.9452 10.0871H40.596C41.4076 10.0871 43.0307 9.6001 43.0307 7.65228C43.0307 6.84069 42.5438 5.21751 40.596 5.21751H39.9452C31.7151 5.21751 25.0432 11.8437 25.0432 20.0176C25.0432 27.5904 30.77 33.8349 38.157 34.7123C38.4779 34.7123 38.7447 34.7853 38.9657 34.9068C39.1263 34.995 39.2626 35.1089 39.3778 35.2389C39.811 35.7277 39.9452 36.445 39.9452 36.8897V39.2578C39.9452 40.4418 40.74 39.9484 41.1374 39.5538C41.235 39.4619 41.34 39.3631 41.4516 39.2578C42.0936 38.6523 42.9582 37.8331 43.9402 36.8969L43.9478 36.8897C44.2147 36.6353 44.4902 36.3722 44.7723 36.1025C46.76 34.2016 49.0724 31.969 50.9727 30.0817C54.3108 26.7665 54.9466 21.991 54.8473 20.0176C54.8473 18.6475 54.6598 17.3209 54.309 16.0617C54.1438 15.4615 53.4655 14.261 52.0742 14.261C51.2372 14.261 49.6394 14.6088 49.5399 16.7501C49.549 16.8897 49.5816 17.2259 49.6394 17.454C49.8602 18.2729 49.9777 19.1324 49.9777 20.0176Z" fill="#5AD5A1"/>
<path d="M47.6916 7.86097C46.3469 7.86097 45.2568 8.95106 45.2568 10.2957C45.2568 11.6404 46.3469 12.7305 47.6916 12.7305C49.0363 12.7305 50.1264 11.6404 50.1264 10.2957C50.1264 8.95106 49.0363 7.86097 47.6916 7.86097Z" fill="#5AD5A1"/>
<path d="M22.261 19.7676L14.702 25.5822C13.6362 26.4021 12.1075 26.2027 11.2876 25.1368C10.4678 24.071 10.6671 22.5423 11.733 21.7225L20.7349 14.7979C20.8868 14.6756 21.051 14.5736 21.2234 14.4926C21.8722 14.1877 22.6377 14.179 23.3029 14.4947C23.4736 14.5753 23.6362 14.6765 23.7867 14.7977L31.3044 20.5805L38.8633 14.766C39.9292 13.9461 41.4578 14.1455 42.2777 15.2113C43.0976 16.2771 42.8982 17.8058 41.8324 18.6257L32.8306 25.5501C32.6786 25.6726 32.5142 25.7746 32.3416 25.8557C32.0115 26.0115 31.657 26.0875 31.3044 26.0872C30.9518 26.0875 30.5973 26.0114 30.2672 25.8557C30.0946 25.7746 29.9302 25.6726 29.7782 25.5501L22.261 19.7676Z" fill="#554B60"/>
</svg>
