<svg width="16" height="15" viewBox="0 0 16 15" fill="none" xmlns="http://www.w3.org/2000/svg">
<path fill-rule="evenodd" clip-rule="evenodd" d="M4.08325 12.6135V10.8653H3.4436C3.15736 10.8653 2.88661 10.799 2.64587 10.6809L3.32157 1.63381C3.3619 1.63113 3.40259 1.62977 3.4436 1.62977H12.5564C13.5581 1.62977 14.3702 2.44184 14.3702 3.44357V9.05146C14.3702 10.0532 13.5581 10.8653 12.5564 10.8653H6.04998L4.08325 12.6135ZM3.31257 1.63443C3.31557 1.63422 3.31857 1.63401 3.32157 1.63381L3.34329 1.34297C3.34083 1.34309 3.33837 1.34321 3.33591 1.34333L3.31257 1.63443ZM2.58968 10.6521C2.60822 10.662 2.62695 10.6716 2.64587 10.6809L2.62291 10.9882C2.60339 10.98 2.58401 10.9714 2.56479 10.9625L2.58968 10.6521ZM2.47713 12.0561C1.18282 11.6403 0.288433 10.4317 0.289205 9.05147V3.44358C0.289205 1.70918 1.68895 0.301718 3.42041 0.289228L3.42041 0.289225C3.42094 0.289221 3.42146 0.289217 3.42199 0.289214L3.42199 0.289217C3.4292 0.289169 3.43642 0.289144 3.44364 0.289144H12.5565C12.57 0.289144 12.5836 0.289228 12.5972 0.289399C12.5836 0.289228 12.57 0.289141 12.5564 0.289141H3.44359C3.43639 0.289141 3.42919 0.289165 3.42199 0.289214L3.44359 -1.52588e-05H12.5564C14.4583 -1.52588e-05 16 1.54173 16 3.44358V9.05146C16 10.9533 14.4583 12.4951 12.5564 12.4951H6.67285L4.68784 14.258C4.29357 14.6104 3.72857 14.6984 3.24597 14.4822C2.76326 14.266 2.45283 13.7861 2.45345 13.2572L2.54167 12.076C2.60767 12.0957 2.67467 12.1133 2.74261 12.1288V13.2574C2.74206 13.6723 2.98555 14.0487 3.36419 14.2183C3.43419 14.2497 3.5064 14.2729 3.57954 14.2882C3.50641 14.2729 3.43423 14.2497 3.36424 14.2183C2.9856 14.0487 2.74211 13.6723 2.74266 13.2574V12.1288C2.6747 12.1133 2.60769 12.0957 2.54167 12.076L2.54167 12.076C2.52005 12.0696 2.49854 12.0629 2.47713 12.0561L2.47713 12.0561ZM2.47713 12.0561L2.45345 12.3515C1.00559 11.9176 -0.00078271 10.5811 4.56775e-07 9.05146V3.44358C4.56775e-07 1.54173 1.54175 -1.52588e-05 3.44359 -1.52588e-05L3.42041 0.289225C1.68893 0.301689 0.289157 1.70917 0.289157 3.44358V9.05146C0.288386 10.4317 1.18279 11.6403 2.47713 12.0561ZM3.4436 11.1544C3.44362 11.1544 3.44363 11.1544 3.44365 11.1544L3.7941 11.1544H3.4436ZM12.9802 1.38334C13.9385 1.57943 14.6594 2.42732 14.6594 3.44357V9.05146C14.6594 10.2129 13.7178 11.1544 12.5564 11.1544H6.15992L3.79414 13.2573V13.2574L6.15997 11.1544H12.5565C13.7179 11.1544 14.6594 10.2129 14.6594 9.05146V3.44358C14.6594 2.42731 13.9385 1.57942 12.9802 1.38334ZM2.58968 10.6521C2.01845 10.3467 1.6298 9.74446 1.6298 9.05146V3.44357C1.6298 2.4859 2.372 1.70158 3.31257 1.63443L2.58968 10.6521ZM8.00004 7.06242C8.4501 7.06242 8.81494 6.69758 8.81494 6.24752C8.81494 5.79747 8.4501 5.43262 8.00004 5.43262C7.54999 5.43262 7.18515 5.79747 7.18515 6.24752C7.18515 6.69758 7.54999 7.06242 8.00004 7.06242ZM11.5049 7.06242C11.955 7.06242 12.3198 6.69758 12.3198 6.24752C12.3198 5.79747 11.955 5.43262 11.5049 5.43262C11.0549 5.43262 10.69 5.79747 10.69 6.24752C10.69 6.69758 11.0549 7.06242 11.5049 7.06242ZM4.53713 7.06242C4.98718 7.06242 5.35203 6.69758 5.35203 6.24752C5.35203 5.79747 4.98718 5.43262 4.53713 5.43262C4.08707 5.43262 3.72223 5.79747 3.72223 6.24752C3.72223 6.69758 4.08707 7.06242 4.53713 7.06242ZM7.89076 6.76189C7.65287 6.71157 7.47435 6.50039 7.47435 6.24752C7.47435 5.95717 7.70973 5.72178 8.00009 5.72178C8.01029 5.72178 8.02042 5.72207 8.03048 5.72265C8.02041 5.72207 8.01026 5.72178 8.00004 5.72178C7.70968 5.72178 7.4743 5.95716 7.4743 6.24752C7.4743 6.50041 7.65285 6.71159 7.89076 6.76189ZM11.5354 5.72265C11.5253 5.72207 11.5152 5.72178 11.505 5.72178C11.2146 5.72178 10.9792 5.95717 10.9792 6.24752C10.9792 6.51972 11.1861 6.7436 11.4512 6.77055C11.1861 6.74362 10.9792 6.51973 10.9792 6.24752C10.9792 5.95716 11.2146 5.72178 11.5049 5.72178C11.5152 5.72178 11.5253 5.72207 11.5354 5.72265ZM4.50674 6.7724C4.23055 6.75663 4.01144 6.52767 4.01144 6.24752C4.01144 5.95717 4.24682 5.72178 4.53718 5.72178C4.54738 5.72178 4.55751 5.72207 4.56756 5.72265C4.55749 5.72207 4.54734 5.72178 4.53713 5.72178C4.24677 5.72178 4.01139 5.95716 4.01139 6.24752C4.01139 6.52768 4.23052 6.75665 4.50674 6.7724Z" fill="#5AD4A1"/>
</svg>
