<?xml version="1.0" standalone="no"?>
<!DOCTYPE svg PUBLIC "-//W3C//DTD SVG 20010904//EN"
 "http://www.w3.org/TR/2001/REC-SVG-20010904/DTD/svg10.dtd">
<svg version="1.0" xmlns="http://www.w3.org/2000/svg"
 width="400.000000pt" height="400.000000pt" viewBox="0 0 400.000000 400.000000"
 preserveAspectRatio="xMidYMid meet">
<g transform="translate(0.000000,400.000000) scale(0.100000,-0.100000)"
fill="#000000" stroke="none">
<path d="M1092 3638 c-249 -237 -804 -797 -854 -862 -32 -43 -76 -113 -97
-155 -38 -74 -105 -251 -96 -251 2 0 0 -12 -6 -26 -5 -15 -12 -43 -15 -63 -3
-20 -10 -56 -14 -81 -9 -47 -6 -344 4 -370 3 -8 8 -33 11 -55 8 -57 69 -233
106 -307 134 -269 372 -490 643 -598 370 -147 784 -100 1115 126 l80 54 93
-70 c163 -124 391 -218 564 -234 67 -6 108 -31 134 -83 21 -42 24 -62 25 -196
2 -152 5 -166 43 -167 18 0 86 65 538 515 389 387 426 431 502 580 30 61 95
235 87 235 -2 0 0 11 5 25 5 14 12 38 15 53 3 15 8 38 11 52 13 61 11 344 -3
418 -67 373 -285 692 -598 873 -116 68 -270 125 -385 144 -19 3 -48 8 -63 11
-54 11 -273 5 -357 -10 -189 -34 -358 -107 -516 -225 l-31 -23 -94 71 c-155
119 -354 203 -544 232 -100 15 -127 30 -156 88 -20 40 -23 61 -24 194 -2 152
-5 166 -43 167 -8 0 -43 -28 -80 -62z"/>
</g>
</svg>
