<svg width="21" height="20" viewBox="0 0 21 20" fill="none" xmlns="http://www.w3.org/2000/svg">
<path fill-rule="evenodd" clip-rule="evenodd" d="M10.0092 6.36364C8.00086 6.36364 6.3728 7.99169 6.3728 10C6.3728 12.0083 8.00086 13.6364 10.0092 13.6364C12.0175 13.6364 13.6455 12.0083 13.6455 10C13.6455 7.99169 12.0175 6.36364 10.0092 6.36364ZM10.0091 12.2727C8.75391 12.2727 7.73637 11.2552 7.73637 10C7.73637 8.74481 8.75391 7.72727 10.0091 7.72727C11.2643 7.72727 12.2818 8.74481 12.2818 10C12.2818 11.2552 11.2643 12.2727 10.0091 12.2727Z" fill="#9DA5B1"/>
<path fill-rule="evenodd" clip-rule="evenodd" d="M18.6455 7.27273H17.2364C17.1788 7.11818 17.1152 6.96667 17.0455 6.81818L18.0409 5.82273C18.5726 5.29033 18.5726 4.42785 18.0409 3.89545L16.1136 1.96818C15.5812 1.43645 14.7188 1.43645 14.1864 1.96818L13.1909 2.96364C13.0424 2.89697 12.8909 2.83333 12.7364 2.77273V1.36364C12.7364 0.610521 12.1258 0 11.3727 0H8.64546C7.89234 0 7.28182 0.610521 7.28182 1.36364V2.77273C7.12727 2.8303 6.97576 2.89394 6.82727 2.96364L5.83182 1.96818C5.29942 1.43645 4.43694 1.43645 3.90455 1.96818L1.97727 3.89545C1.44554 4.42785 1.44554 5.29033 1.97727 5.82273L2.96364 6.81818C2.89697 6.96667 2.83333 7.11818 2.77273 7.27273H1.36364C0.610521 7.27273 0 7.88325 0 8.63636V11.3636C0 12.1168 0.610521 12.7273 1.36364 12.7273H2.77273C2.8303 12.8818 2.89394 13.0333 2.96364 13.1818L1.96818 14.1773C1.43645 14.7097 1.43645 15.5722 1.96818 16.1045L3.89545 18.0318C4.42785 18.5636 5.29033 18.5636 5.82273 18.0318L6.81818 17.0364C6.96667 17.103 7.11818 17.1667 7.27273 17.2273V18.6364C7.27273 19.3895 7.88325 20 8.63636 20H11.3636C12.1168 20 12.7273 19.3895 12.7273 18.6364V17.2273C12.8818 17.1697 13.0333 17.1061 13.1818 17.0364L14.1773 18.0318C14.7097 18.5636 15.5722 18.5636 16.1045 18.0318L18.0318 16.1045C18.5636 15.5722 18.5636 14.7097 18.0318 14.1773L17.0545 13.1818C17.1212 13.0333 17.1848 12.8818 17.2455 12.7273H18.6545C19.4077 12.7273 20.0182 12.1168 20.0182 11.3636V8.63636C20.0182 8.27312 19.8733 7.92489 19.6156 7.6689C19.3579 7.4129 19.0087 7.27031 18.6455 7.27273ZM18.6455 11.3636H16.2227C16.0613 12.0971 15.7704 12.7959 15.3636 13.4273L17.0773 15.1409L15.15 17.0682L13.4182 15.3545C12.7868 15.7613 12.088 16.0522 11.3546 16.2136V18.6364H8.62728V16.2136C7.89381 16.0522 7.195 15.7613 6.56365 15.3545L4.85001 17.0682L2.92274 15.1409L4.63637 13.4273C4.22964 12.7959 3.93872 12.0971 3.77728 11.3636H1.37274V8.63636H3.79546C3.9569 7.90289 4.24782 7.20408 4.65455 6.57273L2.94092 4.85909L4.86819 2.93182L6.58183 4.64545C7.21318 4.23872 7.91199 3.9478 8.64546 3.78636V1.36364H11.3727V3.78636C12.1062 3.9478 12.805 4.23872 13.4364 4.64545L15.15 2.93182L17.0773 4.85909L15.3636 6.57273C15.7704 7.20408 16.0613 7.90289 16.2227 8.63636H18.6455V11.3636Z" fill="#9DA5B1"/>
</svg>
