<svg width="18" height="20" viewBox="0 0 18 20" fill="none" xmlns="http://www.w3.org/2000/svg">
<path fill-rule="evenodd" clip-rule="evenodd" d="M16.7518 15.4306C16.5658 15.2582 15.0549 13.711 15.0549 8.82915C15.0195 7.16021 14.4034 5.55582 13.3127 4.29207C12.7273 3.59232 12.0027 3.02215 11.1848 2.61789C11.1885 2.57714 11.1885 2.53614 11.1848 2.49539C11.1848 1.11722 10.0676 0 8.68943 0C7.31126 0 6.19404 1.11722 6.19404 2.49539C6.19035 2.53614 6.19035 2.57714 6.19404 2.61789C5.37619 3.02215 4.65151 3.59232 4.06615 4.29207C2.97547 5.55582 2.35939 7.16021 2.32391 8.82915C2.32391 13.702 0.817602 15.2446 0.631582 15.417C0.121133 15.7223 -0.11634 16.3357 0.0553732 16.9051C0.23654 17.5017 0.793187 17.9044 1.4165 17.8897H5.85376C5.60371 18.1511 5.60371 18.563 5.85376 18.8243C6.5857 19.576 7.59034 20 8.63952 20C9.68869 20 10.6933 19.576 11.4253 18.8243C11.6584 18.5668 11.6584 18.1744 11.4253 17.9169H15.9215C16.5448 17.9316 17.1015 17.5289 17.2826 16.9324C17.4682 16.3693 17.25 15.752 16.7518 15.4306ZM8.70304 1.34298C9.17801 1.38348 9.58918 1.68923 9.76471 2.13243C9.06444 1.98663 8.34164 1.98663 7.64136 2.13243C7.81689 1.68923 8.22806 1.38348 8.70304 1.34298ZM8.703 3.38466C11.5795 3.38466 13.6938 6.28839 13.6938 8.82915C13.6683 10.3584 13.8468 11.8842 14.2246 13.3662H3.18138C3.55921 11.8842 3.73773 10.3584 3.71222 8.82915C3.71222 6.28839 5.82649 3.38466 8.703 3.38466ZM8.67129 18.6474C7.98977 18.6547 7.33461 18.3844 6.85646 17.8988H10.4407C9.9739 18.3736 9.33717 18.643 8.67129 18.6474ZM1.44376 16.5422C2.01127 16.054 2.44531 15.4294 2.70506 14.7273H14.7056C14.9654 15.4294 15.3994 16.054 15.9669 16.5422H1.44376Z" fill="#9DA5B1"/>
</svg>
